<svg xmlns="http://www.w3.org/2000/svg" fill="none" viewBox="0 0 80 80" height="80" width="80">
<circle stroke="#201C1A" fill="#FBF9EB" r="39.5" cy="40" cx="40"></circle>
<path fill="#FBF9EB" d="M51.2132 27.278C51.2132 27.278 48.3545 61.1086 48.1624 62.6732C47.9477 64.4457 47.0663 65.2882 45.6878 65.4304C45.6878 65.4304 35.2699 65.4851 32.3094 65.3757C30.897 65.321 29.4846 64.2488 29.2812 62.5748C28.8406 58.8 25.8575 27.5734 25.8575 27.5734"></path>
<path fill="#87C00D" d="M50.682 32.5408C49.6538 42.8585 48.3092 61.4806 48.151 62.6732C47.9363 64.4457 47.055 65.2882 45.6878 65.4304C45.6878 65.4304 35.2698 65.4851 32.3094 65.3757C30.897 65.321 29.4846 64.2488 29.2925 62.5747C28.9761 59.8832 27.801 44.9811 26.6484 34.6634C27.1795 34.6087 27.7219 34.6196 28.2416 34.6634C30.106 34.8494 31.9026 35.5059 33.767 35.67C37.3602 36.0092 40.8291 34.5759 44.2753 33.5365C46.3318 32.9128 48.5578 32.4423 50.6933 32.5299L50.682 32.5408Z"></path>
<mask height="34" width="25" y="32" x="26" maskUnits="userSpaceOnUse" style="mask-type:alpha" id="mask0_8145_100158">
<path fill="#F09F54" d="M50.682 32.5408C49.6538 42.8585 48.3092 61.4806 48.151 62.6732C47.9363 64.4457 47.055 65.2882 45.6878 65.4304C45.6878 65.4304 35.2698 65.4851 32.3094 65.3757C30.897 65.321 29.4846 64.2488 29.2925 62.5747C28.9761 59.8832 27.801 44.9811 26.6484 34.6634C27.1795 34.6087 27.7219 34.6196 28.2416 34.6634C30.106 34.8494 31.9026 35.5059 33.767 35.67C37.3602 36.0092 40.8291 34.5759 44.2753 33.5365C46.3318 32.9128 48.5578 32.4423 50.6933 32.5299L50.682 32.5408Z"></path>
</mask>
<g mask="url(#mask0_8145_100158)">
<path fill="#201C1A" d="M34.1958 50.3239C33.9858 50.2039 33.8658 50.0339 33.8458 49.7739C33.8358 49.4739 33.9458 49.2239 34.1358 49.0039C34.2858 48.8239 34.5058 48.8639 34.7058 48.8739C35.0258 48.8839 35.4158 49.1839 35.5058 49.4839C35.5858 49.7139 35.5058 49.9639 35.2858 50.0739C35.1358 50.1539 34.9558 50.2039 34.7858 50.2439C34.5858 50.2839 34.3858 50.3039 34.1858 50.3239H34.1958Z" clip-rule="evenodd" fill-rule="evenodd"></path>
<path fill="#201C1A" d="M37.3459 36.844C37.1359 36.964 36.9359 37.144 36.7059 37.184C36.4459 37.234 36.1159 37.234 35.8959 37.114C35.7159 37.014 35.6559 36.704 35.5559 36.494C35.6359 36.284 35.6959 36.094 35.7659 35.904C35.8459 35.884 35.9159 35.834 35.9859 35.844C36.2859 35.884 36.5859 35.924 36.8659 36.004C37.2159 36.104 37.4259 36.334 37.3459 36.844Z" clip-rule="evenodd" fill-rule="evenodd"></path>
<path fill="#201C1A" d="M33.6759 47.634C33.5459 48.144 33.1359 48.244 32.7659 48.374C32.6759 48.404 32.5059 48.344 32.4359 48.264C32.2659 48.084 32.1459 47.864 32.0059 47.674C32.0759 47.294 32.2159 47.004 32.4959 46.814C32.5859 46.754 32.7759 46.724 32.8359 46.774C33.1459 47.014 33.5359 47.184 33.6759 47.634Z" clip-rule="evenodd" fill-rule="evenodd"></path>
<path fill="#201C1A" d="M44.5359 36.6939C44.5359 36.6939 44.5359 36.7339 44.5059 36.7739C44.1859 37.3439 43.8959 37.4239 43.3359 37.0939C43.2059 37.0139 43.0959 36.9139 42.9459 36.7939C42.8959 36.5239 42.8859 36.2239 42.9659 35.8939C43.2459 35.8539 43.5159 35.8039 43.7659 35.7639C44.1159 35.9639 44.4959 36.1039 44.5359 36.6939Z" clip-rule="evenodd" fill-rule="evenodd"></path>
<path fill="#201C1A" d="M29.7059 41.004C29.2559 40.944 28.9159 40.884 28.5659 40.834C28.5259 40.804 28.4759 40.784 28.4459 40.744C28.0559 40.094 28.0859 40.014 28.8759 39.504C29.3159 39.694 29.8359 39.794 29.9959 40.454C29.9159 40.604 29.8159 40.794 29.7059 40.994V41.004Z" clip-rule="evenodd" fill-rule="evenodd"></path>
<path fill="#201C1A" d="M48.0359 33.3639C48.0359 33.3639 47.9159 33.4639 47.8359 33.5139C47.5859 33.6539 47.2959 33.7839 47.0559 33.5839C46.7659 33.3439 46.6659 32.9939 46.7659 32.6239C46.7959 32.5239 46.9059 32.3739 46.9959 32.3639C47.3459 32.3139 47.6759 32.2239 47.9759 32.0339C48.1059 31.9539 48.2659 32.1239 48.2359 32.2939C48.1759 32.6339 48.1059 32.9739 48.0259 33.3639H48.0359Z" clip-rule="evenodd" fill-rule="evenodd"></path>
<path fill="#201C1A" d="M36.2959 44.854C35.9659 44.694 35.8559 44.454 35.8059 44.164C35.7559 43.864 35.8759 43.614 36.0159 43.374C36.1459 43.144 36.3459 43.084 36.5959 43.184C36.7359 43.244 36.8659 43.324 37.0059 43.404C37.0859 43.614 37.1559 43.834 37.2459 44.074C37.1659 44.194 37.0659 44.314 37.0159 44.444C36.8859 44.754 36.5759 44.744 36.2959 44.854Z" clip-rule="evenodd" fill-rule="evenodd"></path>
<path fill="#201C1A" d="M32.2059 50.504C32.5959 50.314 32.8659 50.404 33.1359 50.674C33.3759 50.914 33.6159 51.134 33.5459 51.514C33.5359 51.584 33.5359 51.674 33.4859 51.734C33.2959 51.974 33.0059 52.024 32.7359 52.034C32.5559 52.034 32.3859 51.904 32.3059 51.674C32.1659 51.304 32.1359 50.944 32.2059 50.504Z" clip-rule="evenodd" fill-rule="evenodd"></path>
<path fill="#201C1A" d="M40.3259 54.2039C40.4959 54.2739 40.6159 54.3139 40.7159 54.3739C41.1059 54.5939 41.1559 54.8539 40.9059 55.2439C40.7259 55.5239 40.4759 55.7239 40.1559 55.8939C39.8559 55.6539 39.5059 55.4539 39.3959 55.0039C39.4259 54.7939 39.6459 54.7439 39.8059 54.6239C39.9659 54.5039 40.1159 54.3739 40.3159 54.2039H40.3259Z" clip-rule="evenodd" fill-rule="evenodd"></path>
<path fill="#201C1A" d="M43.0859 54.8239C43.2059 54.6439 43.2959 54.4539 43.4359 54.3239C43.5259 54.2339 43.7159 54.1639 43.8359 54.1939C44.1859 54.2639 44.4459 54.5239 44.4859 54.8539C44.5259 55.1539 44.4859 55.5039 44.2259 55.7539C44.0259 55.9439 43.8359 55.9439 43.6159 55.7839C43.2959 55.5639 43.1959 55.2339 43.0859 54.8239Z" clip-rule="evenodd" fill-rule="evenodd"></path>
<path fill="#201C1A" d="M47.5459 52.2539C47.2259 52.0239 46.9759 51.8639 46.7359 51.6839C46.5759 51.5639 46.5259 51.3339 46.6559 51.2139C46.9359 50.9639 47.1759 50.6739 47.5459 50.5339C47.8259 50.4239 47.9959 50.5039 48.1159 50.8239C48.3259 51.3539 48.3159 51.3739 47.9159 51.7339C47.8459 51.8039 47.7459 51.8539 47.6959 51.9239C47.6459 51.9939 47.6159 52.1039 47.5559 52.2539H47.5459Z" clip-rule="evenodd" fill-rule="evenodd"></path>
<path fill="#201C1A" d="M33.7159 34.7739C33.7659 34.6639 33.7959 34.5839 33.8359 34.5239C34.0459 34.1639 34.3759 34.0439 34.7159 34.2139C34.8759 34.2939 35.0059 34.4039 35.1559 34.5039C35.2359 34.5539 35.3259 34.6139 35.3259 34.6139C35.3559 34.7539 35.3659 34.7839 35.3659 34.8039C35.2159 35.1839 35.0259 35.6239 34.5959 35.6439C34.1059 35.6639 33.9159 35.2039 33.7259 34.7839L33.7159 34.7739Z" clip-rule="evenodd" fill-rule="evenodd"></path>
<path fill="#201C1A" d="M43.8859 33.8239C43.5126 33.6639 43.2359 33.4039 43.0559 33.0439C43.1859 32.6939 43.1759 32.2539 43.6659 32.0339C44.1159 32.1839 44.3459 32.5439 44.4259 33.0139C44.4859 33.4139 44.1659 33.5839 43.8859 33.8239Z" clip-rule="evenodd" fill-rule="evenodd"></path>
<path fill="#201C1A" d="M48.736 35.354C48.736 34.974 48.736 34.704 48.736 34.424C48.736 34.254 48.826 34.134 48.956 34.044C49.396 33.744 49.676 33.804 49.946 34.284C49.996 34.374 50.046 34.464 50.076 34.554C50.196 34.914 49.966 35.304 49.586 35.344C49.336 35.374 49.086 35.344 48.726 35.344L48.736 35.354Z" clip-rule="evenodd" fill-rule="evenodd"></path>
<path fill="#201C1A" d="M40.496 37.174C40.226 37.214 39.976 37.254 39.726 37.284C39.466 37.174 39.376 36.924 39.276 36.704C39.176 36.494 39.256 36.304 39.466 36.194C39.686 36.084 39.926 35.994 40.196 35.864C40.386 35.954 40.606 36.074 40.826 36.174C41.076 36.644 40.696 36.874 40.506 37.164L40.496 37.174Z" clip-rule="evenodd" fill-rule="evenodd"></path>
<path fill="#201C1A" d="M28.3359 65.964C28.4359 65.664 28.6359 65.524 28.8659 65.394C29.0959 65.274 29.2859 65.264 29.5059 65.394C29.8859 65.614 29.9859 66.064 29.7259 66.414C29.2959 66.984 28.8159 66.804 28.4959 66.344C28.4159 66.224 28.3759 66.074 28.3359 65.964Z" clip-rule="evenodd" fill-rule="evenodd"></path>
<path fill="#201C1A" d="M42.5359 61.0939H41.4259C41.3559 60.9139 41.2559 60.7639 41.2259 60.6039C41.1459 60.1839 41.2759 60.0139 41.6959 59.9139C41.7959 59.8939 41.8859 59.8639 41.9859 59.8439C42.3759 59.7439 42.4559 59.8139 42.6059 60.1539C42.7359 60.4639 42.5959 60.7439 42.5359 61.0939Z" clip-rule="evenodd" fill-rule="evenodd"></path>
<path fill="#201C1A" d="M38.4259 56.0439C38.5559 56.1439 38.6459 56.1939 38.7159 56.2639C39.1459 56.6739 39.1559 56.9039 38.7759 57.3539C38.5959 57.5739 38.3659 57.6439 38.0959 57.5639C37.8059 57.4839 37.5859 57.2839 37.5559 56.9939C37.5259 56.7139 37.6759 56.4539 37.9059 56.2839C38.0459 56.1839 38.2159 56.1339 38.4259 56.0439Z" clip-rule="evenodd" fill-rule="evenodd"></path>
<path fill="#201C1A" d="M45.8359 45.0339C46.1259 45.2839 46.4159 45.4839 46.5659 45.8039C46.3659 46.2839 45.9459 46.4039 45.5359 46.5339C45.3259 46.5939 45.0959 46.4539 45.0759 46.2539C45.0459 45.9739 45.0159 45.7039 45.1659 45.4339C45.3059 45.1839 45.5159 45.0939 45.8459 45.0239L45.8359 45.0339Z" clip-rule="evenodd" fill-rule="evenodd"></path>
<path fill="#201C1A" d="M36.0559 59.204C35.9459 58.864 35.7659 58.574 35.8859 58.204C36.0359 58.074 36.1859 57.884 36.4559 58.014C36.7959 58.194 37.2459 58.234 37.3659 58.714C37.4259 58.964 37.3259 59.174 37.1059 59.274C36.7659 59.424 36.4259 59.424 36.0559 59.204Z" clip-rule="evenodd" fill-rule="evenodd"></path>
<path fill="#201C1A" d="M44.9659 49.0039C45.1559 48.8739 45.3659 48.7339 45.5559 48.6039C45.7559 48.7039 45.9259 48.7639 46.0659 48.8539C46.5359 49.1639 46.5259 49.7239 46.0659 50.0339C45.9859 50.0939 45.8859 50.1339 45.7959 50.1639C45.6359 50.2339 45.4359 50.1639 45.3359 50.0139C45.2359 49.8439 45.1259 49.6739 45.0559 49.4839C45.0059 49.3439 44.9959 49.1939 44.9559 48.9839L44.9659 49.0039Z" clip-rule="evenodd" fill-rule="evenodd"></path>
<path fill="#201C1A" d="M44.8959 40.5439C44.5759 40.7139 44.2959 40.8839 44.0059 41.0139C43.9259 41.0439 43.7959 41.0239 43.7159 40.9839C43.3959 40.7839 43.2259 40.4839 43.2159 40.1039C43.2159 39.8839 43.3559 39.7239 43.5759 39.6839C43.6459 39.6739 43.7359 39.6539 43.7959 39.6839C44.2159 39.8639 44.7359 39.9039 44.8959 40.5539V40.5439Z" clip-rule="evenodd" fill-rule="evenodd"></path>
<path fill="#201C1A" d="M49.3959 52.2039C49.5359 52.2839 49.6359 52.3239 49.7059 52.3939C50.5759 53.1739 50.1659 53.4139 49.4559 53.7239C49.2259 53.8239 49.0459 53.7439 48.8559 53.5239C48.7059 53.3339 48.6759 53.0739 48.8059 52.8939C48.9659 52.6739 49.1559 52.4739 49.3859 52.2139L49.3959 52.2039Z" clip-rule="evenodd" fill-rule="evenodd"></path>
<path fill="#201C1A" d="M48.7558 46.374C48.7458 46.144 48.7358 46.004 48.7258 45.854C48.7258 45.594 48.7058 45.304 49.0158 45.224C49.3258 45.144 49.6658 45.104 49.9258 45.394C50.1858 45.674 50.2158 45.824 50.0158 46.374H48.7558Z" clip-rule="evenodd" fill-rule="evenodd"></path>
<path fill="#201C1A" d="M43.9059 50.554C44.3359 50.714 44.4859 51.004 44.4159 51.414C44.3859 51.644 44.0459 52.014 43.8259 52.064C43.6059 52.114 43.4159 51.994 43.2759 51.854C43.1359 51.714 43.0359 51.524 42.9259 51.364C43.0359 50.794 43.5259 50.734 43.9059 50.554Z" clip-rule="evenodd" fill-rule="evenodd"></path>
<path fill="#201C1A" d="M44.9159 34.594C45.1159 34.244 45.4059 34.104 45.7559 34.004C45.8859 34.054 46.0359 34.104 46.1659 34.174C46.4659 34.354 46.5259 34.684 46.3159 34.954C46.1859 35.114 46.0359 35.254 45.8859 35.384C45.6559 35.584 45.4359 35.544 45.2259 35.314C45.1959 35.274 45.1459 35.244 45.1259 35.194C45.0559 35.004 44.9959 34.814 44.9159 34.594Z" clip-rule="evenodd" fill-rule="evenodd"></path>
<path fill="#201C1A" d="M50.8659 61.6039C51.0059 61.6239 51.1659 61.6039 51.2959 61.6639C51.8259 61.8739 51.8859 62.0439 51.6559 62.5839C51.5959 62.7139 51.6059 62.8939 51.5259 63.0039C51.4459 63.1139 51.2959 63.2039 51.1559 63.2239C51.0759 63.2339 50.9459 63.0939 50.9059 62.9939C50.8459 62.8539 50.8259 62.7139 50.6459 62.6539C50.5659 62.6239 50.4559 62.5439 50.4459 62.4739C50.4259 62.3639 50.4459 62.2139 50.4959 62.1139C50.5859 61.9439 50.7259 61.7939 50.8659 61.6039Z" clip-rule="evenodd" fill-rule="evenodd"></path>
<path fill="#201C1A" d="M34.7958 52.4839C34.9158 52.6439 35.0358 52.8039 35.1658 52.9539C35.4258 53.2739 35.4158 53.4039 35.1558 53.6239C34.6258 54.0639 34.2658 53.9839 33.9758 53.3639C33.9358 53.2739 33.8958 53.1839 33.8758 53.0839C33.8258 52.8339 33.9558 52.6239 34.1958 52.5539C34.2458 52.5439 34.2958 52.5339 34.3458 52.5339C34.4958 52.5139 34.6358 52.4939 34.8158 52.4739L34.7958 52.4839Z" clip-rule="evenodd" fill-rule="evenodd"></path>
<path fill="#201C1A" d="M37.856 35.4639C37.806 35.2139 37.7559 35.0239 37.7259 34.8339C37.6259 34.2239 37.646 34.1839 38.286 33.8839C39.006 34.2539 38.946 34.5539 38.876 34.9439C38.806 35.3139 38.556 35.4339 37.856 35.4639Z" clip-rule="evenodd" fill-rule="evenodd"></path>
<path fill="#201C1A" d="M43.5459 58.064C43.8159 58.114 44.0659 58.154 44.3259 58.204C44.5059 58.514 44.4059 58.844 44.4159 59.144C44.1759 59.434 43.8759 59.484 43.5659 59.424C43.4259 59.394 43.2959 59.294 43.1859 59.194C43.0359 59.064 43.0359 58.884 43.0459 58.694C43.0559 58.544 43.0559 58.544 43.5359 58.054L43.5459 58.064Z" clip-rule="evenodd" fill-rule="evenodd"></path>
<path fill="#201C1A" d="M38.9159 60.5739C38.9159 60.5739 38.9159 60.714 38.9059 60.814C38.8559 61.054 38.5659 61.2939 38.3659 61.2739C38.0859 61.2439 37.7359 61.024 37.7159 60.814C37.6959 60.564 37.6959 60.3039 37.7159 60.0539C37.7359 59.8939 37.9659 59.7439 38.1259 59.7839C38.3259 59.8339 38.5159 59.8939 38.6959 59.9839C38.9259 60.0839 38.9059 60.304 38.9059 60.584L38.9159 60.5739Z" clip-rule="evenodd" fill-rule="evenodd"></path>
<path fill="#201C1A" d="M36.9859 51.7839C36.7759 52.1139 36.4659 52.1239 36.1159 52.0439C35.9259 51.8539 35.8159 51.5939 35.7259 51.3339C35.6159 51.0339 35.7759 50.7939 36.0959 50.7139C36.2859 50.6639 36.4859 50.6439 36.7259 50.5939C36.7859 50.7139 36.8859 50.8239 36.9159 50.9639C36.9659 51.2339 36.9659 51.5039 36.9959 51.7839H36.9859Z" clip-rule="evenodd" fill-rule="evenodd"></path>
<path fill="#201C1A" d="M37.7459 37.914C38.0959 37.634 38.4359 37.574 38.8659 37.954C38.9059 38.114 39.0059 38.374 39.0459 38.644C39.0859 38.904 38.8759 39.044 38.6059 38.984C38.3159 38.914 38.0259 38.854 37.7059 38.784C37.6559 38.694 37.6059 38.584 37.5459 38.474C37.6159 38.284 37.6759 38.094 37.7359 37.914H37.7459Z" clip-rule="evenodd" fill-rule="evenodd"></path>
<path fill="#201C1A" d="M36.2859 65.304C36.5759 65.424 36.7959 65.524 37.0459 65.624V66.404C36.8559 66.454 36.6659 66.494 36.4859 66.574C36.1759 66.714 35.9459 66.554 35.7159 66.414C35.4859 66.264 35.4759 65.864 35.7059 65.684C35.8859 65.544 36.0859 65.434 36.2859 65.304Z" clip-rule="evenodd" fill-rule="evenodd"></path>
<path fill="#201C1A" d="M47.1659 43.2339C47.3559 43.2839 47.5059 43.3139 47.6459 43.3739C48.1659 43.5939 48.2759 44.3039 47.8459 44.6139C47.7559 44.6839 47.6059 44.7239 47.4959 44.7039C47.0859 44.6339 46.7759 44.2639 46.7459 43.8639C46.7359 43.6739 46.7859 43.5939 47.1659 43.2439V43.2339Z" clip-rule="evenodd" fill-rule="evenodd"></path>
<path fill="#201C1A" d="M42.3859 53.6939C41.9259 53.7339 41.6659 53.5839 41.4859 53.3239C41.4059 53.2139 41.3759 53.0339 41.3959 52.9039C41.4259 52.7339 41.5159 52.5739 41.6159 52.4239C41.7559 52.2139 42.0459 52.2039 42.1959 52.3939C42.3559 52.5839 42.5059 52.7939 42.6459 52.9939C42.7559 53.1439 42.8059 53.3439 42.6959 53.4939C42.6059 53.6139 42.4159 53.6739 42.3759 53.6939H42.3859Z" clip-rule="evenodd" fill-rule="evenodd"></path>
<path fill="#201C1A" d="M28.4159 62.524C28.4459 62.344 28.4659 62.224 28.4859 62.104C28.5659 61.654 28.6159 61.634 29.0759 61.724C29.6859 61.854 29.7359 61.924 29.7159 62.504C29.7159 62.724 29.6259 62.894 29.4159 62.974C29.3059 63.024 29.1859 63.064 29.0559 63.124C28.8459 62.924 28.6459 62.744 28.4159 62.524Z" clip-rule="evenodd" fill-rule="evenodd"></path>
<path fill="#201C1A" d="M28.6059 48.2139C28.3259 47.9439 28.3559 47.6839 28.5259 47.4339C28.7359 47.1439 29.0359 46.9839 29.3759 47.0539C29.6059 47.0939 29.8759 47.1839 29.9859 47.4539C29.5559 48.2539 29.5359 48.2639 28.6059 48.2139Z" clip-rule="evenodd" fill-rule="evenodd"></path>
<path fill="#201C1A" d="M35.3759 38.4039C35.3459 38.7739 34.9559 39.1639 34.5659 39.1839C34.4959 39.1839 34.4159 39.1639 34.3559 39.1239C34.1159 38.9639 33.9859 38.3539 34.1259 38.0939C34.2859 37.7939 34.6959 37.6839 35.0559 37.8439C35.2259 37.9239 35.3959 38.2139 35.3859 38.4039H35.3759Z" clip-rule="evenodd" fill-rule="evenodd"></path>
<path fill="#201C1A" d="M42.3359 37.564C42.5459 37.934 42.6359 38.294 42.5859 38.684C42.5559 38.934 42.4159 39.044 42.1759 39.004C41.9759 38.964 41.7859 38.934 41.5859 38.894C41.2459 38.824 41.0859 38.484 41.2859 38.204C41.3759 38.064 41.5259 37.954 41.6759 37.864C41.8659 37.754 42.0759 37.684 42.3359 37.564Z" clip-rule="evenodd" fill-rule="evenodd"></path>
<path fill="#201C1A" d="M28.1859 49.3439C27.8559 49.6939 27.5559 50.0139 27.2259 50.3639C27.0859 50.2939 26.9559 50.2239 26.8059 50.1439C26.8059 49.9339 26.8059 49.7339 26.8059 49.5339C26.7959 49.2439 26.9559 49.0439 27.1859 48.9339C27.4459 48.8139 27.7359 48.8039 27.9559 49.0339C28.0359 49.1239 28.1059 49.2239 28.1859 49.3339V49.3439Z" clip-rule="evenodd" fill-rule="evenodd"></path>
<path fill="#201C1A" d="M50.4458 54.684C50.4458 54.684 50.5158 54.594 50.5558 54.574C51.1758 54.254 51.4958 54.404 51.6358 55.084C51.6558 55.184 51.6858 55.274 51.7158 55.374C51.7158 55.394 51.7158 55.424 51.6958 55.514C51.5858 55.584 51.4458 55.724 51.2958 55.744C51.1358 55.774 50.9458 55.704 50.7858 55.644C50.4158 55.504 50.3358 55.294 50.4458 54.684Z" clip-rule="evenodd" fill-rule="evenodd"></path>
<path fill="#201C1A" d="M47.3359 54.3839C47.6659 54.5439 47.9259 54.6739 48.2059 54.8039C48.3059 55.0139 48.2759 55.2239 48.0959 55.4139C47.9559 55.5539 47.8159 55.7039 47.6559 55.8339C47.4859 55.9739 47.2459 55.9239 47.1159 55.7539C46.8259 55.3739 46.8259 55.1239 47.0959 54.7239C47.1659 54.6239 47.2359 54.5239 47.3359 54.3839Z" clip-rule="evenodd" fill-rule="evenodd"></path>
<path fill="#201C1A" d="M47.0659 59.4239C46.9259 59.1339 46.7959 58.8639 46.6459 58.5739C46.6959 58.4739 46.7359 58.3539 46.8059 58.2539C46.9159 58.0839 47.1159 58.0139 47.2759 58.0839C47.5459 58.2139 47.8159 58.3639 48.0259 58.5739C48.2459 58.7939 48.0659 59.1939 47.7459 59.2739C47.5459 59.3239 47.3559 59.3539 47.0659 59.4139V59.4239Z" clip-rule="evenodd" fill-rule="evenodd"></path>
<path fill="#201C1A" d="M45.6759 65.1039C45.4059 64.8739 45.1659 64.6639 44.8959 64.4239C44.9659 64.2639 45.0059 64.1139 45.0859 63.9939C45.3559 63.5739 45.4759 63.5439 45.9659 63.7139C46.0559 63.7439 46.1459 63.7839 46.2159 63.8139C46.3859 64.3839 46.2359 64.7939 45.6759 65.1039Z" clip-rule="evenodd" fill-rule="evenodd"></path>
<path fill="#201C1A" d="M47.376 46.8239C47.586 46.9339 47.796 47.0239 47.976 47.1539C48.046 47.2039 48.086 47.3239 48.106 47.4139C48.156 47.8239 47.816 48.2839 47.406 48.3639C47.346 48.3739 47.246 48.3439 47.196 48.3039C46.896 48.0239 46.816 47.3939 47.056 47.0539C47.116 46.9639 47.246 46.9139 47.376 46.8339V46.8239Z" clip-rule="evenodd" fill-rule="evenodd"></path>
<path fill="#201C1A" d="M38.316 52.5739C38.606 52.6939 38.866 52.7939 39.016 53.0939C38.956 53.2139 38.906 53.3539 38.826 53.4739C38.636 53.7439 38.336 53.8739 38.046 53.8439C37.726 53.8139 37.506 53.5839 37.476 53.2339C37.7026 52.9606 37.986 52.7406 38.326 52.5739H38.316Z" clip-rule="evenodd" fill-rule="evenodd"></path>
<path fill="#201C1A" d="M37.0359 39.9339C37.0359 40.0639 37.0659 40.2139 37.0659 40.3639C37.0559 40.7839 36.9359 40.8839 36.4959 40.8939C36.0659 40.8939 36.0659 40.8939 35.6859 40.4139C35.7559 40.1639 35.8059 39.8639 36.0859 39.7339C36.4159 39.5839 36.7359 39.6839 37.0359 39.9439V39.9339Z" clip-rule="evenodd" fill-rule="evenodd"></path>
<path fill="#201C1A" d="M48.736 49.1239C49.2826 48.9839 49.7393 49.1206 50.106 49.5339C50.056 49.6739 49.996 49.8339 49.936 49.9939C49.676 50.0739 49.436 50.1539 49.196 50.2139C48.986 50.2639 48.766 50.1139 48.746 49.9039C48.726 49.6539 48.746 49.4039 48.746 49.1139L48.736 49.1239Z" clip-rule="evenodd" fill-rule="evenodd"></path>
<path fill="#201C1A" d="M46.8459 62.0439C47.0059 61.8739 47.0959 61.6939 47.2259 61.6339C47.3359 61.5839 47.5159 61.6539 47.6559 61.6939C47.7759 61.7239 47.8759 61.8139 47.9959 61.8539C48.4059 62.0039 48.4659 62.2339 48.3859 62.7039C48.3459 62.9139 48.066 63.0439 47.916 62.9039C47.736 62.7339 47.516 62.7139 47.326 62.6139C47.146 62.5139 47.0359 62.2839 46.8459 62.0439Z" clip-rule="evenodd" fill-rule="evenodd"></path>
<path fill="#201C1A" d="M45.1059 41.5839C45.2959 41.5139 45.4259 41.4539 45.5759 41.4139C45.8959 41.3239 46.0859 41.4339 46.1059 41.7439C46.1259 41.9639 46.1059 42.1939 46.1059 42.4039C45.8959 42.7039 45.6059 42.7439 45.2859 42.7139C44.9959 42.6839 44.8359 42.4739 44.8959 42.1839C44.9359 41.9939 45.0259 41.8039 45.0959 41.5839H45.1059Z" clip-rule="evenodd" fill-rule="evenodd"></path>
<path fill="#201C1A" d="M50.4659 39.9539C50.6959 39.7039 50.9459 39.6039 51.2759 39.7739C51.3559 39.8139 51.4759 39.8039 51.5759 39.8239C51.8459 39.8939 51.9259 39.9939 51.9459 40.2339C51.9659 40.5039 51.8859 40.6239 51.5859 40.7239C51.3459 40.8039 51.1159 40.9539 50.8359 40.8239C50.5859 40.6039 50.5659 40.2639 50.4759 39.9539H50.4659Z" clip-rule="evenodd" fill-rule="evenodd"></path>
<path fill="#201C1A" d="M32.8159 32.0339C33.0759 32.2339 33.2959 32.4039 33.5159 32.5739C33.5959 32.9639 33.4659 33.2739 33.1559 33.5039C32.9059 33.6939 32.6459 33.7039 32.3759 33.4339C32.0959 32.8739 32.6159 32.5339 32.8159 32.0339Z" clip-rule="evenodd" fill-rule="evenodd"></path>
<path fill="#201C1A" d="M42.5258 34.5839C42.3558 34.5539 42.1858 34.5239 42.0258 34.5039C41.8758 34.4839 41.7958 34.5639 41.7558 34.7239C41.9258 35.0139 42.2858 34.9839 42.5158 35.1639C42.5958 35.3639 42.4558 35.4639 42.3058 35.4939C41.9858 35.5439 41.6458 35.6039 41.3758 35.3139C41.2458 35.1739 41.1858 35.0139 41.2158 34.8239C41.2958 34.3639 41.7858 33.9839 42.2558 34.0139C42.4358 34.0239 42.5258 34.1939 42.5158 34.5839H42.5258Z" clip-rule="evenodd" fill-rule="evenodd"></path>
<path fill="#201C1A" d="M46.2558 52.6639C46.2158 52.7739 46.1758 52.8439 46.1758 52.9139C46.1758 53.4839 45.8458 53.6939 45.2758 53.7039C45.2058 53.3139 44.9558 52.9439 45.0958 52.5139C45.7458 52.1239 45.7558 52.1239 46.2658 52.6639H46.2558Z" clip-rule="evenodd" fill-rule="evenodd"></path>
<path fill="#201C1A" d="M37.0659 47.9739C36.8559 48.0539 36.7159 48.1139 36.5859 48.1539C36.4459 48.1939 36.2959 48.2439 36.1459 48.2339C35.7559 48.2339 35.5559 47.8539 35.7759 47.5339C35.9659 47.2439 36.2559 47.0839 36.5959 47.0339C36.8459 46.9939 37.0459 47.1639 37.0659 47.4139C37.0859 47.5939 37.0659 47.7639 37.0659 47.9639V47.9739Z" clip-rule="evenodd" fill-rule="evenodd"></path>
<path fill="#201C1A" d="M41.4459 48.9339C41.7359 48.9739 42.0059 48.9939 42.2759 49.0439C42.4359 49.0739 42.5459 49.184 42.5759 49.354C42.6059 49.524 42.5359 49.6539 42.3859 49.7339C42.1659 49.8539 41.9359 49.9739 41.7059 50.0639C41.5559 50.1139 41.4059 50.064 41.3059 49.924C41.2659 49.864 41.2259 49.7939 41.1959 49.7239C41.0259 49.3939 41.0259 49.3439 41.2859 49.0539C41.3359 49.0039 41.4059 48.964 41.4559 48.924L41.4459 48.9339Z" clip-rule="evenodd" fill-rule="evenodd"></path>
<path fill="#201C1A" d="M45.716 39.144C45.516 39.014 45.386 38.874 45.356 38.654C45.346 38.534 45.306 38.404 45.276 38.284C45.1893 37.9706 45.326 37.7273 45.686 37.554C46.046 37.744 46.286 38.054 46.406 38.454C46.296 38.784 46.146 39.064 45.716 39.144Z" clip-rule="evenodd" fill-rule="evenodd"></path>
<path fill="#201C1A" d="M29.686 51.274C29.636 51.554 29.526 51.774 29.326 51.944C29.036 52.194 28.626 52.094 28.556 51.724C28.496 51.434 28.526 51.124 28.546 50.824C28.546 50.744 28.666 50.674 28.756 50.564C29.096 50.784 29.496 50.904 29.696 51.274H29.686Z" clip-rule="evenodd" fill-rule="evenodd"></path>
<path fill="#201C1A" d="M31.5659 64.1639C31.3926 64.5039 31.1759 64.7673 30.9159 64.9539C30.7459 64.7839 30.5559 64.6339 30.4059 64.4339C30.2259 64.2039 30.3559 63.6339 30.6059 63.4739C30.7259 63.4039 30.9859 63.4239 31.1059 63.5439C31.2759 63.7239 31.4059 63.9439 31.5659 64.1539V64.1639Z" clip-rule="evenodd" fill-rule="evenodd"></path>
<path fill="#201C1A" d="M35.8859 32.5639C36.0659 32.4839 36.2059 32.4239 36.3359 32.3539C36.4659 32.2839 36.5859 32.2139 36.6959 32.1539C36.9959 32.2939 37.0259 32.5639 37.1559 32.7839C37.2759 32.9839 37.2259 33.1639 37.0659 33.3339C36.8559 33.5439 36.7159 33.5839 36.4559 33.4639C36.1059 33.2939 35.7759 33.1039 35.8859 32.5839V32.5639Z" clip-rule="evenodd" fill-rule="evenodd"></path>
<path fill="#201C1A" d="M28.3459 43.9939C28.4559 43.7539 28.5059 43.6439 28.5659 43.5039C28.7059 43.4739 28.8459 43.4439 28.9859 43.3939C29.3059 43.2839 29.4759 43.3139 29.6359 43.5339C29.6959 43.6139 29.7359 43.7039 29.7859 43.8039C29.9059 44.0739 29.8759 44.2239 29.6659 44.4139C29.4659 44.5939 29.1659 44.6339 28.9659 44.5039C28.9259 44.4739 28.8859 44.4339 28.8459 44.4039C28.6859 44.2739 28.5259 44.1539 28.3459 44.0039V43.9939Z" clip-rule="evenodd" fill-rule="evenodd"></path>
<path fill="#201C1A" d="M32.9359 66.6039C32.5059 66.4939 32.0759 66.5239 31.8859 66.0539C32.0759 65.5639 32.5459 65.4939 32.9859 65.4439C33.2859 65.4039 33.5059 65.8239 33.3459 66.1239C33.2459 66.2939 33.0859 66.4339 32.9359 66.6039Z" clip-rule="evenodd" fill-rule="evenodd"></path>
<path fill="#201C1A" d="M37.0659 61.7939C37.0659 62.1139 37.0759 62.3639 37.0659 62.6139C37.0459 62.8239 36.8259 63.0739 36.6359 63.0939C36.3359 63.1239 36.0959 62.9839 35.9159 62.7639C35.7759 62.6039 35.7359 62.3939 35.8659 62.2039C35.9159 62.1239 36.0159 62.0039 36.0659 62.0139C36.3459 62.0739 36.5359 61.8939 36.7659 61.7839C36.8259 61.7539 36.9159 61.7839 37.0759 61.7939H37.0659Z" clip-rule="evenodd" fill-rule="evenodd"></path>
<path fill="#201C1A" d="M49.7359 42.4739C49.3659 42.5639 49.0159 42.6339 48.6159 42.5039C48.5659 42.2339 48.5159 41.9739 48.7459 41.7439C48.9659 41.5139 49.4259 41.4139 49.7259 41.5839C49.8259 41.6339 49.9059 41.7639 49.9359 41.8739C49.9959 42.0839 49.9159 42.2739 49.7359 42.4739Z" clip-rule="evenodd" fill-rule="evenodd"></path>
<path fill="#201C1A" d="M28.4059 55.254C28.4959 55.024 28.5659 54.814 28.6459 54.604C28.7459 54.354 29.0259 54.234 29.2459 54.314C29.6059 54.444 29.7359 54.624 29.6959 54.914C29.6559 55.204 29.5159 55.434 29.2259 55.544C28.9059 55.664 28.6359 55.604 28.3959 55.254H28.4059Z" clip-rule="evenodd" fill-rule="evenodd"></path>
<path fill="#201C1A" d="M51.736 32.4939C51.826 33.0239 51.706 33.4739 51.256 33.8039C50.636 33.5039 50.4459 33.2139 50.5959 32.7739C50.6359 32.6639 50.7359 32.5639 50.8359 32.4939C51.0459 32.3539 51.146 32.3639 51.736 32.4939Z" clip-rule="evenodd" fill-rule="evenodd"></path>
<path fill="#201C1A" d="M30.4959 57.3939C30.2459 57.0839 30.3259 56.7839 30.3659 56.4939C30.3859 56.3639 30.5659 56.2539 30.7159 56.2839C30.8659 56.3039 31.0059 56.3539 31.1559 56.3739C31.6459 56.4439 31.8059 56.6739 31.6759 57.1439C31.6459 57.2739 31.4559 57.3739 31.3159 57.3339C31.0092 57.2472 30.7325 57.2639 30.4859 57.3839L30.4959 57.3939Z" clip-rule="evenodd" fill-rule="evenodd"></path>
<path fill="#201C1A" d="M45.6959 57.4239C45.4959 57.3639 45.3259 57.3239 45.1659 57.2639C44.9359 57.1739 44.8459 56.9339 44.9259 56.6939C45.0459 56.3239 45.4059 56.1439 45.7659 56.2839C45.8559 56.3239 45.9559 56.3639 46.0359 56.4139C46.3759 56.6239 46.3659 57.0539 46.0159 57.2739C45.9159 57.3439 45.7859 57.3739 45.6959 57.4239Z" clip-rule="evenodd" fill-rule="evenodd"></path>
<path fill="#201C1A" d="M41.9259 63.504C42.1659 63.664 42.4259 63.854 42.7159 64.054C42.5259 64.444 42.3359 64.754 41.8959 64.804C41.6559 64.834 41.5659 64.774 41.2159 64.354C41.5059 64.134 41.4159 63.624 41.9259 63.514V63.504Z" clip-rule="evenodd" fill-rule="evenodd"></path>
<path fill="#201C1A" d="M48.5959 38.194C48.7159 38.084 48.8259 37.974 48.9459 37.884C49.0259 37.824 49.1259 37.794 49.2459 37.744C49.5959 37.974 49.9159 38.244 50.0359 38.684C49.8859 38.994 49.6559 39.104 49.3459 39.034C48.9459 38.944 48.6659 38.704 48.5859 38.194H48.5959Z" clip-rule="evenodd" fill-rule="evenodd"></path>
<path fill="#201C1A" d="M41.5859 42.674C41.5159 42.354 41.2459 42.064 41.4759 41.654C41.6359 41.654 41.8059 41.654 41.9659 41.654C42.1159 41.654 42.2659 41.624 42.4059 41.614C42.4559 41.654 42.5159 41.674 42.5359 41.714C42.8559 42.364 42.7059 42.644 41.9959 42.734C41.9459 42.734 41.8959 42.734 41.8459 42.734C41.7759 42.734 41.6959 42.704 41.5859 42.684V42.674Z" clip-rule="evenodd" fill-rule="evenodd"></path>
<path fill="#201C1A" d="M32.1859 40.3439C32.2459 40.1439 32.2859 39.9939 32.3459 39.8539C32.4159 39.7039 32.6859 39.5339 32.8259 39.5539C33.0559 39.5739 33.3559 39.8039 33.3759 39.9939C33.3959 40.1939 33.4059 40.3939 33.3759 40.5939C33.3259 40.8539 33.0959 40.9239 32.8159 40.9939C32.6159 40.7839 32.3959 40.5539 32.1959 40.3439H32.1859Z" clip-rule="evenodd" fill-rule="evenodd"></path>
<path fill="#201C1A" d="M47.2859 65.314C47.8659 65.404 48.0159 65.804 48.1659 66.184C48.2559 66.404 48.0559 66.654 47.8159 66.644C47.4659 66.634 47.1859 66.464 46.9759 66.184C46.8359 66.004 46.8459 65.794 46.9759 65.614C47.0559 65.494 47.1959 65.404 47.2959 65.314H47.2859Z" clip-rule="evenodd" fill-rule="evenodd"></path>
<path fill="#201C1A" d="M50.6159 51.514C50.4859 51.034 50.6459 50.724 51.1459 50.554C51.3459 50.684 51.5559 50.824 51.7859 50.974C51.7859 51.184 51.7959 51.384 51.7859 51.584C51.7659 51.824 51.5759 51.944 51.3459 51.854C51.1159 51.764 50.8959 51.644 50.6159 51.514Z" clip-rule="evenodd" fill-rule="evenodd"></path>
<path fill="#201C1A" d="M28.6559 36.3839C28.9059 36.1239 29.1659 35.9839 29.4959 35.9839C29.9259 35.9839 30.0959 36.2439 29.9259 36.6339C29.7859 36.9439 29.5759 37.1839 29.2859 37.3339C28.7959 37.2039 28.7859 36.7839 28.6559 36.3839Z" clip-rule="evenodd" fill-rule="evenodd"></path>
<path fill="#201C1A" d="M27.1959 53.7639C27.1459 53.7639 27.0159 53.7639 26.8959 53.7139C26.8159 53.6839 26.7059 53.5939 26.6959 53.5139C26.6659 53.3439 26.6459 53.1539 26.6859 52.9939C26.7459 52.7339 27.0959 52.5239 27.3359 52.5639C27.5959 52.5939 27.8359 52.8539 27.8759 53.1339C27.9359 53.6039 27.7759 53.7839 27.2059 53.7839L27.1959 53.7639Z" clip-rule="evenodd" fill-rule="evenodd"></path>
<path fill="#201C1A" d="M40.8959 62.3739C40.7259 62.7739 40.3159 62.8539 40.0059 63.1439C39.8959 63.0239 39.7759 62.9439 39.7059 62.8239C39.6059 62.6539 39.5559 62.4639 39.4659 62.2339C39.6159 62.1339 39.7659 62.0139 39.9259 61.9039C40.3459 61.6439 40.5359 61.6939 40.7759 62.1039C40.8259 62.1839 40.8559 62.2839 40.8959 62.3639V62.3739Z" clip-rule="evenodd" fill-rule="evenodd"></path>
<path fill="#201C1A" d="M43.3059 47.9439C43.3359 47.6639 43.3659 47.4239 43.3959 47.1839C43.6259 46.8839 43.8959 46.8839 44.1859 47.0539C44.3459 47.1539 44.4359 47.2839 44.4359 47.4839C44.4359 47.7039 44.4359 47.9239 44.4359 48.1639C43.9959 48.3239 43.6659 48.2239 43.3059 47.9439Z" clip-rule="evenodd" fill-rule="evenodd"></path>
<path fill="#201C1A" d="M41.8258 57.4439C41.8258 57.4439 41.7658 57.4439 41.6658 57.4239C41.4958 57.3939 41.3658 57.2239 41.3658 57.0339C41.3658 56.8139 41.3658 56.5939 41.3958 56.3739C41.4158 56.1439 41.7258 56.0139 41.9258 56.1439C42.2358 56.3439 42.3658 56.6939 42.5458 56.9839C42.6358 57.1239 42.4958 57.3539 42.3358 57.4039C42.2858 57.4139 42.2358 57.4339 42.1858 57.4339C42.1158 57.4339 42.0358 57.4339 41.8158 57.4339L41.8258 57.4439Z" clip-rule="evenodd" fill-rule="evenodd"></path>
<path fill="#201C1A" d="M51.0459 57.7939C51.4959 58.0039 51.6759 58.4339 51.9159 58.8139C51.9559 58.8739 51.9159 59.0339 51.8659 59.0839C51.7859 59.1539 51.5759 59.2439 51.5459 59.2039C51.2859 58.9539 50.9359 59.0139 50.5859 58.9039C50.6659 58.5539 50.6859 58.2039 50.8559 57.9039C50.8859 57.8539 50.9759 57.8339 51.0459 57.7939Z" clip-rule="evenodd" fill-rule="evenodd"></path>
<path fill="#201C1A" d="M27.2359 37.8439C27.3659 37.8439 27.4759 37.8239 27.5659 37.8339C27.9659 37.8839 28.0759 38.0639 27.9459 38.4539C27.7559 39.0439 27.5359 39.1339 26.7659 38.9339C26.6659 38.4839 26.9659 38.2039 27.2359 37.8439Z" clip-rule="evenodd" fill-rule="evenodd"></path>
<path fill="#201C1A" d="M27.1859 64.9239C27.1459 64.7739 27.1259 64.6239 27.0659 64.5039C27.0059 64.3739 26.8659 64.2739 26.8159 64.1439C26.7759 64.0139 26.8159 63.8539 26.8159 63.7439C27.0959 63.4239 27.3559 63.4239 27.6459 63.6239C27.8459 63.7639 27.9759 63.954 27.9459 64.194C27.8959 64.604 27.6759 64.8839 27.1859 64.9239Z" clip-rule="evenodd" fill-rule="evenodd"></path>
<path fill="#201C1A" d="M30.9159 59.944C31.0459 59.984 31.1659 60.014 31.2859 60.054C31.6559 60.184 31.7159 60.274 31.6959 60.664C31.6859 60.964 31.5759 61.094 31.2959 61.114C31.0959 61.134 30.8959 61.114 30.6759 61.114C30.5759 60.884 30.4859 60.684 30.3959 60.474C30.4859 60.204 30.6859 60.054 30.9159 59.934V59.944Z" clip-rule="evenodd" fill-rule="evenodd"></path>
<path fill="#201C1A" d="M44.2859 44.334C44.0459 44.304 43.7959 44.294 43.5559 44.244C43.2359 44.184 43.0859 43.814 43.2859 43.534C43.4159 43.354 43.5959 43.214 43.7459 43.064C44.4759 43.474 44.5459 43.634 44.2859 44.334Z" clip-rule="evenodd" fill-rule="evenodd"></path>
<path fill="#201C1A" d="M34.0659 45.4339C34.2159 45.3739 34.3759 45.3039 34.5359 45.2439C34.9759 45.0839 35.0859 45.3039 35.2059 45.6239C35.2459 45.7339 35.2359 45.8739 35.2259 45.9939C35.2159 46.2439 35.0959 46.3639 34.8559 46.3939C34.7859 46.4039 34.7059 46.4039 34.6259 46.3939C34.5259 46.3839 34.4259 46.3639 34.3259 46.3439C34.1259 46.0739 33.9159 45.8139 34.0559 45.4239L34.0659 45.4339Z" clip-rule="evenodd" fill-rule="evenodd"></path>
<path fill="#201C1A" d="M27.4858 41.3339C27.6858 41.5239 27.8658 41.6939 28.0658 41.8939C27.9158 42.1439 27.8359 42.3639 27.6959 42.5239C27.3759 42.8939 26.9359 42.7739 26.7859 42.3039C26.7659 42.2539 26.7558 42.2039 26.7458 42.1539C26.7458 42.1039 26.7458 42.0539 26.7458 41.9539C26.8458 41.8539 26.9558 41.7239 27.0858 41.6139C27.1958 41.5239 27.3258 41.4439 27.4858 41.3339Z" clip-rule="evenodd" fill-rule="evenodd"></path>
<path fill="#201C1A" d="M32.826 54.0539C32.966 54.3839 32.926 54.6639 33.146 54.8439C33.206 54.8939 33.236 55.0339 33.226 55.1239C33.206 55.2339 33.156 55.3639 33.076 55.4339C32.916 55.5739 32.706 55.6339 32.506 55.5639C32.396 55.5239 32.246 55.4339 32.226 55.3439C32.136 54.9939 32.086 54.6339 32.426 54.3639C32.536 54.2739 32.656 54.1839 32.836 54.0439L32.826 54.0539Z" clip-rule="evenodd" fill-rule="evenodd"></path>
<path fill="#201C1A" d="M39.9458 57.9639C40.1758 58.0139 40.3958 58.0539 40.6358 58.1039C40.7858 58.2639 40.9558 58.4539 40.8858 58.6939C40.7958 58.9639 40.5758 59.1339 40.2858 59.2939C40.0458 59.0339 39.8058 58.7839 39.5558 58.5039C39.5258 58.2239 39.7358 58.0839 39.9558 57.9539L39.9458 57.9639Z" clip-rule="evenodd" fill-rule="evenodd"></path>
<path fill="#201C1A" d="M29.2359 59.4539C29.1259 59.4139 29.0159 59.4039 28.9459 59.3439C28.6159 59.0539 28.5559 58.4539 28.8259 58.1039C28.8759 58.0339 28.9959 57.9739 29.0859 57.9639C29.4559 57.9439 29.7759 58.2839 29.7059 58.6439C29.6559 58.8639 29.5759 59.0739 29.4759 59.2739C29.4359 59.3539 29.3259 59.3939 29.2459 59.4539H29.2359Z" clip-rule="evenodd" fill-rule="evenodd"></path>
<path fill="#201C1A" d="M30.4659 53.2439C30.4959 53.1439 30.5359 52.9739 30.5959 52.8139C30.6659 52.6139 30.7759 52.4239 31.0159 52.4139C31.2459 52.4039 31.3959 52.5739 31.4959 52.7539C31.6159 52.9639 31.6059 53.2039 31.4159 53.3939C31.2759 53.5439 31.1359 53.6839 30.9759 53.8139C30.7959 53.9639 30.5559 53.8639 30.5159 53.6339C30.4959 53.5339 30.4959 53.4339 30.4759 53.2539L30.4659 53.2439Z" clip-rule="evenodd" fill-rule="evenodd"></path>
<path fill="#201C1A" d="M45.1859 60.5839C45.2359 60.3939 45.2759 60.2539 45.3259 60.1139C45.4159 59.8139 45.7259 59.6939 45.9759 59.8539C46.2959 60.0539 46.2859 60.3539 46.2859 60.6639C46.2859 60.9939 46.1059 61.1739 45.7859 61.2839C45.5859 61.0439 45.3959 60.8239 45.1959 60.5839H45.1859Z" clip-rule="evenodd" fill-rule="evenodd"></path>
<path fill="#201C1A" d="M31.3259 35.3139C30.8359 35.4939 30.6059 35.0739 30.2159 34.9039C30.3659 34.6039 30.6859 34.4839 30.7459 34.1639C30.7759 34.0039 31.0459 33.9739 31.2059 34.0739C31.5159 34.2639 31.6159 34.5039 31.5159 34.8439C31.4659 35.0139 31.3859 35.1639 31.3259 35.3239V35.3139Z" clip-rule="evenodd" fill-rule="evenodd"></path>
<path fill="#201C1A" d="M39.7259 33.4139C39.7059 33.2939 39.6959 33.1939 39.6859 33.0939C39.6259 32.6039 39.8759 32.4739 40.3359 32.3239C40.5159 32.2639 40.8259 32.5339 40.8859 32.7639C40.9559 33.0739 40.6359 33.5239 40.3259 33.5139C40.1259 33.5139 39.9359 33.4439 39.7259 33.4039V33.4139Z" clip-rule="evenodd" fill-rule="evenodd"></path>
<path fill="#201C1A" d="M29.8659 33.494H29.0159C28.9059 33.274 28.7859 33.084 28.6959 32.874C28.6559 32.784 28.6459 32.684 28.6459 32.584C28.6459 32.414 28.7259 32.294 28.8759 32.214C29.0359 32.134 29.1759 32.174 29.2959 32.284C29.6059 32.594 29.7959 32.964 29.8659 33.494Z" clip-rule="evenodd" fill-rule="evenodd"></path>
<path fill="#201C1A" d="M51.1659 37.1839C50.6759 36.9539 50.7159 36.5439 50.6559 36.1539C50.7159 36.0939 50.7659 36.0039 50.8459 35.9539C51.1059 35.7939 51.1859 35.7939 51.3059 36.0539C51.3859 36.2239 51.4959 36.2639 51.6359 36.3139C51.7859 36.3639 51.9359 36.4739 51.8959 36.6439C51.8659 36.8039 51.8059 36.9939 51.5959 37.0439C51.4559 37.0839 51.3059 37.1339 51.1559 37.1839H51.1659Z" clip-rule="evenodd" fill-rule="evenodd"></path>
<path fill="#201C1A" d="M49.9159 63.554V64.564C49.6759 64.644 49.4559 64.804 49.1659 64.804C49.0059 64.804 48.8659 64.744 48.7859 64.604C48.6959 64.454 48.7359 64.304 48.8459 64.184C49.0059 64.014 49.1559 63.834 49.3359 63.704C49.4659 63.614 49.6559 63.614 49.9159 63.554Z" clip-rule="evenodd" fill-rule="evenodd"></path>
<path fill="#201C1A" d="M39.7059 44.5039C39.5659 44.3339 39.4259 44.1639 39.2759 43.9639C39.5359 43.9239 39.7559 43.884 39.8859 43.594C40.0059 43.344 40.2159 43.3039 40.3859 43.3939C40.6959 43.5639 40.8059 43.804 40.6959 44.084C40.5159 44.544 40.4159 44.584 39.7059 44.5039Z" clip-rule="evenodd" fill-rule="evenodd"></path>
<path fill="#201C1A" d="M30.3259 38.7039C30.2959 38.4839 30.3859 38.2939 30.5759 38.1339C30.9159 37.8539 31.4159 38.0039 31.5259 38.4539C31.5459 38.5539 31.4959 38.7139 31.4259 38.7839C31.3059 38.9039 31.1459 38.9939 30.9959 39.0839C30.6359 39.3039 30.3459 39.1539 30.3359 38.7039H30.3259Z" clip-rule="evenodd" fill-rule="evenodd"></path>
<path fill="#201C1A" d="M31.6659 42.084C31.4959 42.254 31.3459 42.434 31.1759 42.574C30.8359 42.864 30.3459 42.724 30.1959 42.304C30.1459 42.144 30.2059 41.974 30.3559 41.914C30.6059 41.804 30.8659 41.734 31.1359 41.674C31.4059 41.614 31.5559 41.764 31.6659 42.094V42.084Z" clip-rule="evenodd" fill-rule="evenodd"></path>
<path fill="#201C1A" d="M44.3959 62.7539C44.2859 62.7639 44.1859 62.8139 44.1459 62.7839C43.9359 62.6439 43.7559 62.4839 43.5059 62.7239C43.4859 62.7439 43.2959 62.6739 43.2759 62.6139C43.1459 62.2539 43.1759 61.9139 43.5559 61.7039C43.8659 61.7139 44.1559 61.8039 44.3959 62.0239V62.7639V62.7539Z" clip-rule="evenodd" fill-rule="evenodd"></path>
<path fill="#201C1A" d="M35.2959 63.7739C35.3959 64.0339 35.4459 64.2139 35.2259 64.3639C35.1259 64.4339 35.0259 64.5139 34.9359 64.5939C34.5459 64.9039 34.3359 64.8939 33.9659 64.5239C33.9359 64.4939 33.9159 64.4439 33.8859 64.3939C34.1359 63.8239 34.2059 63.7839 34.7459 63.8039C34.9159 63.8039 35.0859 63.7839 35.2959 63.7639V63.7739Z" clip-rule="evenodd" fill-rule="evenodd"></path>
<path fill="#201C1A" d="M35.606 54.924C35.826 54.674 36.026 54.454 36.176 54.294C36.596 54.254 36.556 54.574 36.696 54.734C36.786 54.724 36.886 54.704 36.976 54.694C37.006 54.724 37.046 54.764 37.056 54.804C37.096 54.994 37.046 55.144 36.876 55.264C36.666 55.404 36.476 55.444 35.966 55.444C35.856 55.294 35.736 55.114 35.606 54.934V54.924Z" clip-rule="evenodd" fill-rule="evenodd"></path>
<path fill="#201C1A" d="M41.9759 46.4339C41.8159 46.2939 41.6959 46.1939 41.5859 46.0939C41.3659 45.8639 41.3259 45.7239 41.4159 45.5639C41.5759 45.2939 41.8559 45.1439 42.1059 45.2039C42.2759 45.2439 42.4459 45.3639 42.7259 45.6539C42.5759 45.9839 42.2959 46.1839 41.9659 46.4439L41.9759 46.4339Z" clip-rule="evenodd" fill-rule="evenodd"></path>
<path fill="#201C1A" d="M49.9759 56.4839C49.8159 57.0139 49.4959 57.3139 49.0859 57.7039C48.9659 57.2839 48.9359 56.9639 48.6459 56.8339C48.9159 56.1739 48.9859 56.1439 49.5459 56.3239C49.6659 56.3639 49.7859 56.4039 49.9759 56.4739V56.4839Z" clip-rule="evenodd" fill-rule="evenodd"></path>
<path fill="#201C1A" d="M27.856 60.3639C27.786 60.6039 27.666 60.8839 27.396 61.0539C27.216 61.1639 27.006 61.1639 26.816 61.0539C26.666 60.9639 26.606 60.7339 26.676 60.5039C26.766 60.1839 27.206 59.9039 27.556 59.9339C27.716 59.9439 27.876 60.1539 27.856 60.3739V60.3639Z" clip-rule="evenodd" fill-rule="evenodd"></path>
<path fill="#201C1A" d="M32.3659 59.0939C32.3159 58.8939 32.2758 58.7439 32.2458 58.6039C32.3658 58.3439 32.5758 58.1739 32.8358 58.1639C33.0758 58.1639 33.3459 58.1839 33.5159 58.4839C33.4559 58.6839 33.3859 58.9239 33.2959 59.2039C32.9959 59.1639 32.7059 59.1339 32.3659 59.0839V59.0939Z" clip-rule="evenodd" fill-rule="evenodd"></path>
<path fill="#201C1A" d="M51.9359 47.6339C51.8959 47.7239 51.8659 47.8039 51.8359 47.8639C51.5659 48.3339 51.2559 48.3839 50.8659 48.0039C50.7259 47.8639 50.5359 47.7439 50.6059 47.4339C50.8959 47.2639 51.2459 47.1439 51.6559 47.1039C51.7559 47.2839 51.8459 47.4639 51.9359 47.6239V47.6339Z" clip-rule="evenodd" fill-rule="evenodd"></path>
<path fill="#201C1A" d="M34.7059 61.084C34.3459 60.844 33.9659 60.6839 33.8959 60.2139C33.9459 60.0239 34.0559 59.9139 34.2759 59.9639C34.3459 59.9839 34.4159 60.0239 34.4859 60.0239C35.0259 60.0239 35.0259 60.0239 35.1359 60.4539C35.2259 60.7939 35.0459 60.964 34.7059 61.084Z" clip-rule="evenodd" fill-rule="evenodd"></path>
<path fill="#201C1A" d="M27.2159 45.1439C27.4259 45.3839 27.5759 45.5539 27.7159 45.7339C27.8959 45.9739 27.8159 46.2339 27.5059 46.3039C27.1759 46.3839 26.8659 46.3039 26.5959 46.1139C26.4859 46.0339 26.4559 45.8739 26.5359 45.7739C26.7359 45.5639 26.9559 45.3739 27.2159 45.1439Z" clip-rule="evenodd" fill-rule="evenodd"></path>
<path fill="#201C1A" d="M39.0859 49.1939C38.7459 49.5939 38.3159 49.6739 37.9059 49.7539C37.8059 49.7739 37.6759 49.6239 37.5259 49.5339C37.8559 49.1939 38.0459 48.8039 38.4859 48.5739C38.6759 48.7639 38.8559 48.9639 39.0859 49.2039V49.1939Z" clip-rule="evenodd" fill-rule="evenodd"></path>
<path fill="#201C1A" d="M51.2259 43.2239C51.3659 43.5839 51.9159 43.7539 51.7459 44.3339C51.6759 44.3539 51.5859 44.4039 51.4959 44.4139C50.8259 44.4439 50.7059 44.3339 50.6559 43.6639C50.6359 43.3539 50.7559 43.2539 51.2259 43.2339V43.2239Z" clip-rule="evenodd" fill-rule="evenodd"></path>
<path fill="#201C1A" d="M50.7059 66.544C50.4459 65.854 50.5359 65.664 51.2759 65.364C51.7959 65.824 51.8259 65.924 51.5659 66.454C51.4359 66.424 51.2959 66.354 51.1659 66.364C51.0259 66.374 50.8959 66.464 50.7159 66.534L50.7059 66.544Z" clip-rule="evenodd" fill-rule="evenodd"></path>
<path fill="#201C1A" d="M40.3459 40.9239C40.0759 40.7339 39.8959 40.6139 39.7159 40.4839C39.7159 40.2439 39.6959 40.0139 39.7159 39.7939C39.7359 39.6339 39.9759 39.4939 40.1259 39.5439C40.2659 39.5939 40.4059 39.6539 40.5359 39.7339C40.7359 39.8539 40.7859 40.0539 40.6759 40.2539C40.6159 40.3639 40.5259 40.4539 40.4659 40.5639C40.4159 40.6439 40.3959 40.7439 40.3359 40.9239H40.3459Z" clip-rule="evenodd" fill-rule="evenodd"></path>
<path fill="#201C1A" d="M48.8159 61.224C48.6559 61.044 48.5559 60.854 48.5759 60.604C48.5959 60.354 48.8259 60.174 49.0559 60.234C49.2259 60.274 49.3959 60.334 49.5559 60.404C49.8159 60.524 49.8559 60.814 49.6559 61.034C49.4159 61.304 49.1359 61.304 48.8159 61.214V61.224Z" clip-rule="evenodd" fill-rule="evenodd"></path>
<path fill="#201C1A" d="M27.7959 57.414H26.9859C26.8759 57.224 26.7759 57.054 26.6859 56.904C26.7159 56.654 27.0259 56.344 27.2059 56.404C27.4159 56.464 27.6459 56.564 27.7959 56.714C27.9459 56.884 27.9059 57.134 27.7959 57.414Z" clip-rule="evenodd" fill-rule="evenodd"></path>
<path fill="#201C1A" d="M38.1859 45.1939C38.2859 45.2139 38.3359 45.2239 38.3759 45.2439C38.8559 45.5239 38.8759 46.2339 38.4159 46.5039C38.2059 46.6239 37.8959 46.5039 37.8759 46.2839C37.8459 46.0139 37.8459 45.7239 37.8959 45.4639C37.9159 45.3539 38.0959 45.2739 38.1859 45.2039V45.1939Z" clip-rule="evenodd" fill-rule="evenodd"></path>
<path fill="#201C1A" d="M40.1259 46.8939C40.6559 47.1339 40.6259 47.5239 40.5859 47.9139C40.5659 48.1039 40.3058 48.2339 40.1158 48.1739C39.6958 48.0439 39.5359 47.5739 39.7859 47.1939C39.8659 47.0739 40.0059 47.0039 40.1259 46.8939Z" clip-rule="evenodd" fill-rule="evenodd"></path>
<path fill="#201C1A" d="M33.4859 62.634C33.2059 62.8806 32.8926 62.9206 32.5459 62.754C32.4759 62.524 32.3959 62.284 32.3359 62.044C32.2959 61.894 32.4259 61.734 32.5959 61.754C32.7159 61.764 32.8559 61.794 32.9459 61.864C33.1859 62.054 33.4059 62.264 33.4859 62.634Z" clip-rule="evenodd" fill-rule="evenodd"></path>
<path fill="#201C1A" d="M46.7458 36.7739C46.8058 36.6439 46.8758 36.5139 46.9358 36.3739C47.2058 36.2939 47.4659 36.2139 47.7359 36.1539C47.8559 36.1239 47.9858 36.1539 48.0658 36.2839C48.1458 36.4339 48.0959 36.6339 47.9459 36.7339C47.8659 36.7939 47.7459 36.8139 47.6959 36.8839C47.6159 37.0039 47.6259 37.1839 47.4159 37.1939C47.1959 37.2139 47.0158 37.1439 46.8858 36.9739C46.8358 36.9139 46.7958 36.8539 46.7458 36.7639V36.7739Z" clip-rule="evenodd" fill-rule="evenodd"></path>
<path fill="#201C1A" d="M34.0259 56.874C34.0459 56.804 34.0559 56.754 34.0759 56.714C34.1859 56.564 34.0959 56.264 34.3759 56.254C34.6659 56.244 34.8059 56.494 34.9559 56.674C35.1159 56.864 35.1159 57.094 34.9659 57.304C34.8859 57.414 34.7559 57.504 34.6759 57.574C34.4159 57.554 34.3459 57.394 34.2559 57.234C34.1859 57.104 34.0859 56.984 34.0059 56.874H34.0259Z" clip-rule="evenodd" fill-rule="evenodd"></path>
<path fill="#201C1A" d="M33.1459 37.0339C32.7559 37.0539 32.4959 36.8739 32.2759 36.6239C32.0959 36.4139 32.2059 36.0939 32.4659 36.0239C32.7259 35.9539 33.1959 36.1239 33.3259 36.3639C33.3659 36.4439 33.3859 36.5639 33.3559 36.6539C33.3059 36.7939 33.2159 36.9139 33.1459 37.0439V37.0339Z" clip-rule="evenodd" fill-rule="evenodd"></path>
<path fill="#201C1A" d="M33.1859 43.574C33.2159 43.814 33.4659 44.034 33.1859 44.314C32.9759 44.294 32.7359 44.284 32.4959 44.244C32.2459 44.204 32.1359 43.974 32.2359 43.724C32.3759 43.354 32.5459 43.284 32.9359 43.434C33.0259 43.464 33.1059 43.534 33.1959 43.574H33.1859Z" clip-rule="evenodd" fill-rule="evenodd"></path>
<path fill="#201C1A" d="M40.4459 66.6339C40.3259 66.5039 40.2259 66.3539 40.0859 66.2639C39.9459 66.1739 39.7759 66.1339 39.5959 66.0639C39.6559 65.7539 39.866 65.6039 40.076 65.4839C40.396 65.3039 40.766 65.5439 40.736 65.9239C40.726 66.1239 40.6859 66.3239 40.6359 66.5139C40.6259 66.5639 40.5159 66.5839 40.4359 66.6339H40.4459Z" clip-rule="evenodd" fill-rule="evenodd"></path>
<path fill="#201C1A" d="M47.3359 40.2139C47.3559 40.0639 47.3659 39.9239 47.3959 39.7139C47.6359 39.7739 47.8459 39.8239 48.0859 39.8739V40.7239C47.7959 40.8439 47.5159 40.9039 47.2259 40.7239C47.0259 40.6139 47.0059 40.4939 47.1759 40.3139C47.2259 40.2639 47.2959 40.2239 47.3559 40.1839C47.3859 40.2139 47.4059 40.2539 47.4359 40.2839C47.4059 40.2539 47.3759 40.2339 47.3359 40.2039V40.2139Z" clip-rule="evenodd" fill-rule="evenodd"></path>
<path fill="#201C1A" d="M34.1759 42.2739C34.3559 42.2539 34.4959 42.2339 34.6659 42.2139C34.5959 42.0539 34.5459 41.9239 34.4859 41.7739C34.7959 41.6039 35.0859 41.8239 35.3659 41.7639C35.3959 41.7639 35.4459 41.8239 35.4659 41.8639C35.5559 42.0739 35.3559 42.5039 35.1059 42.4939C34.8959 42.4939 34.7959 42.6339 34.6459 42.6839C34.5259 42.7239 34.3359 42.6839 34.2259 42.6239C34.1659 42.5839 34.1859 42.4039 34.1759 42.2839V42.2739Z" clip-rule="evenodd" fill-rule="evenodd"></path>
<path fill="#201C1A" d="M31.7059 49.2239C31.5459 49.5639 31.4459 49.8339 31.3059 50.0939C31.2659 50.1639 31.1459 50.2239 31.0559 50.2239C30.7859 50.2339 30.3859 49.7639 30.4259 49.5039C30.4559 49.3039 30.6459 49.1539 30.8659 49.1939C31.0159 49.2139 31.1559 49.2839 31.2959 49.2939C31.4059 49.3039 31.5259 49.2639 31.7059 49.2339V49.2239Z" clip-rule="evenodd" fill-rule="evenodd"></path>
<path fill="#201C1A" d="M26.6158 34.6539C27.1258 34.1539 27.2258 34.1839 27.8358 34.8439C27.7258 34.9339 27.6158 35.0239 27.5158 35.1139C27.4258 35.1939 27.3458 35.2739 27.2558 35.3539C26.9058 35.2139 26.9158 34.8339 26.6158 34.6539Z" clip-rule="evenodd" fill-rule="evenodd"></path>
<path fill="#201C1A" d="M37.6959 64.1339C37.8759 63.9639 38.0259 63.7939 38.2159 63.6639C38.2959 63.6139 38.4559 63.6239 38.5659 63.6639C38.7259 63.7239 38.7759 63.8839 38.7459 64.0439C38.7259 64.1639 38.6559 64.2839 38.5959 64.3939C38.3759 64.7639 38.0059 64.7439 37.7859 64.3539C37.7659 64.3139 37.7559 64.2639 37.7059 64.1239L37.6959 64.1339Z" clip-rule="evenodd" fill-rule="evenodd"></path>
<path fill="#201C1A" d="M39.6959 51.494C39.7759 51.374 39.8659 51.254 39.9259 51.124C39.9759 51.024 39.9759 50.894 40.0159 50.744C40.2859 50.924 40.5059 51.074 40.7159 51.214C40.7159 51.314 40.7359 51.364 40.7159 51.404C40.4159 52.074 40.2159 52.094 39.7059 51.494H39.6959Z" clip-rule="evenodd" fill-rule="evenodd"></path>
<path fill="#201C1A" d="M31.6859 45.6739C31.5459 45.9539 31.3159 46.1239 31.0059 46.2039C30.6959 46.0539 30.8259 45.7039 30.6459 45.5139C31.0859 45.0439 31.2659 45.0739 31.6859 45.6739Z" clip-rule="evenodd" fill-rule="evenodd"></path>
<path fill="#201C1A" d="M37.9359 41.6039C38.3259 41.6839 38.4959 41.9439 38.6959 42.1439C38.5159 42.5939 38.4359 42.6339 38.1159 42.4839C38.0459 42.4539 37.9759 42.4239 37.9159 42.3839C37.6959 42.2439 37.6559 42.0939 37.7959 41.8039C37.8259 41.7339 37.8859 41.6839 37.9459 41.6039H37.9359Z" clip-rule="evenodd" fill-rule="evenodd"></path>
<path fill="#201C1A" d="M46.9159 62.8439C46.9159 62.8439 46.9559 62.7939 46.9759 62.7939C47.0159 62.8039 47.0559 62.8339 47.1059 62.8539C47.0859 62.8739 47.0659 62.9039 47.0459 62.9039C47.0059 62.8939 46.9659 62.8639 46.9159 62.8439Z" clip-rule="evenodd" fill-rule="evenodd"></path>
</g>
<path fill="#FBF9EB" d="M25.8575 27.5844C25.8575 28.952 33.1456 29.0505 39.1003 28.8973C40.3997 28.8645 51.2132 28.7879 51.2132 27.278C51.2132 25.7681 43.2359 25.8556 38.5354 25.8228C35.1569 25.8009 25.8575 26.1948 25.8575 27.5844Z"></path>
<path stroke-linejoin="round" stroke-linecap="round" stroke="#201C1A" d="M51.2132 27.278C51.2132 25.7681 43.2359 25.8556 38.5354 25.8228C35.1569 25.8009 25.8575 26.1948 25.8575 27.5844"></path>
<path stroke-linejoin="round" stroke-linecap="round" stroke="#201C1A" d="M51.2132 27.278C51.2132 27.278 48.3545 61.1086 48.1624 62.6732C47.9477 64.4457 47.0663 65.2882 45.6878 65.4304C45.6878 65.4304 35.2699 65.4851 32.3094 65.3757C30.897 65.321 29.4846 64.2488 29.2812 62.5748C28.8406 58.8 25.8575 27.5734 25.8575 27.5734"></path>
<path stroke-linejoin="round" stroke-linecap="round" stroke="#201C1A" d="M50.6821 32.5408C48.5578 32.4423 46.3205 32.9237 44.2641 33.5474C40.8178 34.5868 37.3489 36.0201 33.7557 35.6809C31.8913 35.5059 30.0947 34.8603 28.2304 34.6634C27.7671 34.6196 27.2812 34.6087 26.8066 34.6415"></path>
<path fill="#FBF9EB" d="M47.1876 31.386L41.3262 25.0714C41.0842 24.8107 40.6698 24.7894 40.4007 25.0236L33.8794 30.6994C33.6103 30.9337 33.5882 31.3349 33.8301 31.5956L39.6916 37.9102C39.9335 38.1708 40.3479 38.1922 40.6171 37.9579L47.1383 32.2822C47.4075 32.0479 47.4295 31.6467 47.1876 31.386Z"></path>
<path stroke-linejoin="round" stroke-linecap="round" stroke="#201C1A" d="M47.1876 31.386L41.3262 25.0714C41.0842 24.8107 40.6698 24.7894 40.4007 25.0236L33.8794 30.6994C33.6103 30.9337 33.5882 31.3349 33.8301 31.5956L39.6916 37.9102C39.9335 38.1708 40.3479 38.1922 40.6171 37.9579L47.1383 32.2822C47.4075 32.0479 47.4295 31.6467 47.1876 31.386Z"></path>
<path fill="#FBF9EB" d="M38.3787 37.3151L29.8124 39.1267C29.4588 39.2015 29.2347 39.5397 29.312 39.8821L31.1828 48.177C31.2601 48.5194 31.6093 48.7364 31.963 48.6616L40.5293 46.85C40.8829 46.7752 41.1069 46.437 41.0297 46.0946L39.1588 37.7996C39.0816 37.4572 38.7323 37.2403 38.3787 37.3151Z"></path>
<path stroke-linejoin="round" stroke-linecap="round" stroke="#201C1A" d="M38.3787 37.3151L29.8124 39.1267C29.4588 39.2015 29.2347 39.5397 29.312 39.8821L31.1828 48.177C31.2601 48.5194 31.6093 48.7364 31.963 48.6616L40.5293 46.85C40.8829 46.7752 41.1069 46.437 41.0297 46.0946L39.1588 37.7996C39.0816 37.4572 38.7323 37.2403 38.3787 37.3151Z"></path>
<path fill="#FBF9EB" d="M44.6328 50.3336L36.6802 46.7575C36.3519 46.6098 35.9622 46.7479 35.8098 47.0657L32.1166 54.7663C31.9642 55.0842 32.1067 55.4616 32.435 55.6092L40.3876 59.1853C40.7158 59.333 41.1055 59.1949 41.258 58.8771L44.9511 51.1765C45.1036 50.8586 44.961 50.4812 44.6328 50.3336Z"></path>
<path stroke-linejoin="round" stroke-linecap="round" stroke="#201C1A" d="M44.6328 50.3336L36.6802 46.7575C36.3519 46.6098 35.9622 46.7479 35.8098 47.0657L32.1166 54.7663C31.9642 55.0842 32.1067 55.4616 32.435 55.6092L40.3876 59.1853C40.7158 59.333 41.1055 59.1949 41.258 58.8771L44.9511 51.1765C45.1036 50.8586 44.961 50.4812 44.6328 50.3336Z"></path>
<path stroke-linejoin="round" stroke-linecap="round" stroke="#201C1A" d="M25.8575 27.5844C25.8575 28.952 33.1456 29.0505 39.1003 28.8973C40.3997 28.8645 51.2132 28.7879 51.2132 27.278"></path>
<path stroke-linejoin="round" stroke-linecap="round" stroke="#201C1A" fill="#FBF9EB" d="M61.6221 17.7964L56.3282 20.4668L55.9055 26.3847L53.235 21.0908L47.3171 20.6681L52.611 17.9977L53.0337 12.0798L55.7042 17.3737L61.6221 17.7964Z"></path>
</svg>
