<svg xmlns="http://www.w3.org/2000/svg" fill="none" viewBox="0 0 80 80" height="80" width="80">
<circle stroke="#201C1A" fill="#FBF9EB" r="39.5" cy="40" cx="40"></circle>
<path fill="#FBF9EB" d="M51.2131 27.278C51.2131 27.278 48.3543 61.1086 48.1622 62.6732C47.9476 64.4457 47.0662 65.2882 45.6877 65.4304C45.6877 65.4304 35.2697 65.4851 32.3093 65.3757C30.8969 65.321 29.4845 64.2488 29.2811 62.5748C28.8404 58.8 25.8574 27.5734 25.8574 27.5734"></path>
<path fill="#F09F54" d="M50.682 32.5408C49.6538 42.8585 48.3092 61.4806 48.151 62.6732C47.9363 64.4457 47.055 65.2882 45.6878 65.4304C45.6878 65.4304 35.2698 65.4851 32.3094 65.3757C30.897 65.321 29.4846 64.2488 29.2925 62.5747C28.9761 59.8832 27.801 44.9811 26.6484 34.6634C27.1795 34.6087 27.7219 34.6196 28.2416 34.6634C30.106 34.8494 31.9026 35.5059 33.767 35.67C37.3602 36.0092 40.8291 34.5759 44.2753 33.5365C46.3318 32.9128 48.5578 32.4423 50.6933 32.5299L50.682 32.5408Z"></path>
<mask height="34" width="25" y="32" x="26" maskUnits="userSpaceOnUse" style="mask-type:alpha" id="mask0_8151_89579">
<path fill="#F09F54" d="M50.682 32.5408C49.6538 42.8585 48.3092 61.4806 48.151 62.6732C47.9363 64.4457 47.055 65.2882 45.6878 65.4304C45.6878 65.4304 35.2698 65.4851 32.3094 65.3757C30.897 65.321 29.4846 64.2488 29.2925 62.5747C28.9761 59.8832 27.801 44.9811 26.6484 34.6634C27.1795 34.6087 27.7219 34.6196 28.2416 34.6634C30.106 34.8494 31.9026 35.5059 33.767 35.67C37.3602 36.0092 40.8291 34.5759 44.2753 33.5365C46.3318 32.9128 48.5578 32.4423 50.6933 32.5299L50.682 32.5408Z"></path>
</mask>
<g mask="url(#mask0_8151_89579)">
<path fill="#201C1A" d="M34.1958 50.3239C33.9858 50.2039 33.8658 50.0339 33.8458 49.7739C33.8358 49.4739 33.9458 49.2239 34.1358 49.0039C34.2858 48.8239 34.5058 48.8639 34.7058 48.8739C35.0258 48.8839 35.4158 49.1839 35.5058 49.4839C35.5858 49.7139 35.5058 49.9639 35.2858 50.0739C35.1358 50.1539 34.9558 50.2039 34.7858 50.2439C34.5858 50.2839 34.3858 50.3039 34.1858 50.3239H34.1958Z" clip-rule="evenodd" fill-rule="evenodd"></path>
<path fill="#201C1A" d="M37.3461 36.844C37.1361 36.964 36.9362 37.144 36.7062 37.184C36.4462 37.234 36.1162 37.234 35.8962 37.114C35.7162 37.014 35.6562 36.704 35.5562 36.494C35.6362 36.284 35.6962 36.094 35.7662 35.904C35.8462 35.884 35.9162 35.834 35.9862 35.844C36.2862 35.884 36.5861 35.924 36.8661 36.004C37.2161 36.104 37.4261 36.334 37.3461 36.844Z" clip-rule="evenodd" fill-rule="evenodd"></path>
<path fill="#201C1A" d="M33.6759 47.634C33.5459 48.144 33.1359 48.244 32.7659 48.374C32.6759 48.404 32.5059 48.344 32.4359 48.264C32.2659 48.084 32.1459 47.864 32.0059 47.674C32.0759 47.294 32.2159 47.004 32.4959 46.814C32.5859 46.754 32.7759 46.724 32.8359 46.774C33.1459 47.014 33.5359 47.184 33.6759 47.634Z" clip-rule="evenodd" fill-rule="evenodd"></path>
<path fill="#201C1A" d="M44.536 36.6939C44.536 36.6939 44.5361 36.7339 44.5061 36.7739C44.1861 37.3439 43.896 37.4239 43.336 37.0939C43.206 37.0139 43.096 36.9139 42.946 36.7939C42.896 36.5239 42.886 36.2239 42.966 35.8939C43.246 35.8539 43.516 35.8039 43.766 35.7639C44.116 35.9639 44.496 36.1039 44.536 36.6939Z" clip-rule="evenodd" fill-rule="evenodd"></path>
<path fill="#201C1A" d="M29.7058 41.004C29.2558 40.944 28.9158 40.884 28.5658 40.834C28.5258 40.804 28.4758 40.784 28.4458 40.744C28.0558 40.094 28.0858 40.014 28.8758 39.504C29.3158 39.694 29.8358 39.794 29.9958 40.454C29.9158 40.604 29.8158 40.794 29.7058 40.994V41.004Z" clip-rule="evenodd" fill-rule="evenodd"></path>
<path fill="#201C1A" d="M48.0362 33.3639C48.0362 33.3639 47.9162 33.4639 47.8362 33.5139C47.5862 33.6539 47.2962 33.7839 47.0562 33.5839C46.7662 33.3439 46.6662 32.9939 46.7662 32.6239C46.7962 32.5239 46.9062 32.3739 46.9962 32.3639C47.3462 32.3139 47.6762 32.2239 47.9762 32.0339C48.1062 31.9539 48.2662 32.1239 48.2362 32.2939C48.1762 32.6339 48.1062 32.9739 48.0262 33.3639H48.0362Z" clip-rule="evenodd" fill-rule="evenodd"></path>
<path fill="#201C1A" d="M36.296 44.854C35.966 44.694 35.856 44.454 35.806 44.164C35.756 43.864 35.876 43.614 36.016 43.374C36.146 43.144 36.346 43.084 36.596 43.184C36.736 43.244 36.866 43.324 37.006 43.404C37.086 43.614 37.156 43.834 37.246 44.074C37.166 44.194 37.066 44.314 37.016 44.444C36.886 44.754 36.576 44.744 36.296 44.854Z" clip-rule="evenodd" fill-rule="evenodd"></path>
<path fill="#201C1A" d="M32.2063 50.504C32.5963 50.314 32.8663 50.404 33.1363 50.674C33.3763 50.914 33.6163 51.134 33.5463 51.514C33.5363 51.584 33.5363 51.674 33.4863 51.734C33.2963 51.974 33.0063 52.024 32.7363 52.034C32.5563 52.034 32.3863 51.904 32.3063 51.674C32.1663 51.304 32.1363 50.944 32.2063 50.504Z" clip-rule="evenodd" fill-rule="evenodd"></path>
<path fill="#201C1A" d="M40.326 54.2039C40.496 54.2739 40.616 54.3139 40.716 54.3739C41.106 54.5939 41.156 54.8539 40.906 55.2439C40.726 55.5239 40.476 55.7239 40.156 55.8939C39.856 55.6539 39.506 55.4539 39.396 55.0039C39.426 54.7939 39.646 54.7439 39.806 54.6239C39.966 54.5039 40.116 54.3739 40.316 54.2039H40.326Z" clip-rule="evenodd" fill-rule="evenodd"></path>
<path fill="#201C1A" d="M43.0859 54.8239C43.2059 54.6439 43.2959 54.4539 43.4359 54.3239C43.5259 54.2339 43.7159 54.1639 43.8359 54.1939C44.1859 54.2639 44.4459 54.5239 44.4859 54.8539C44.5259 55.1539 44.4859 55.5039 44.2259 55.7539C44.0259 55.9439 43.8359 55.9439 43.6159 55.7839C43.2959 55.5639 43.1959 55.2339 43.0859 54.8239Z" clip-rule="evenodd" fill-rule="evenodd"></path>
<path fill="#201C1A" d="M47.5461 52.2539C47.2261 52.0239 46.9762 51.8639 46.7362 51.6839C46.5762 51.5639 46.5261 51.3339 46.6561 51.2139C46.9361 50.9639 47.1761 50.6739 47.5461 50.5339C47.8261 50.4239 47.9961 50.5039 48.1161 50.8239C48.3261 51.3539 48.3162 51.3739 47.9162 51.7339C47.8462 51.8039 47.7462 51.8539 47.6962 51.9239C47.6462 51.9939 47.6162 52.1039 47.5562 52.2539H47.5461Z" clip-rule="evenodd" fill-rule="evenodd"></path>
<path fill="#201C1A" d="M33.7158 34.7739C33.7658 34.6639 33.7958 34.5839 33.8358 34.5239C34.0458 34.1639 34.3758 34.0439 34.7158 34.2139C34.8758 34.2939 35.0058 34.4039 35.1558 34.5039C35.2358 34.5539 35.3258 34.6139 35.3258 34.6139C35.3558 34.7539 35.3658 34.7839 35.3658 34.8039C35.2158 35.1839 35.0258 35.6239 34.5958 35.6439C34.1058 35.6639 33.9158 35.2039 33.7258 34.7839L33.7158 34.7739Z" clip-rule="evenodd" fill-rule="evenodd"></path>
<path fill="#201C1A" d="M43.8862 33.8239C43.5128 33.6639 43.2362 33.4039 43.0562 33.0439C43.1862 32.6939 43.1762 32.2539 43.6662 32.0339C44.1162 32.1839 44.3462 32.5439 44.4262 33.0139C44.4862 33.4139 44.1662 33.5839 43.8862 33.8239Z" clip-rule="evenodd" fill-rule="evenodd"></path>
<path fill="#201C1A" d="M48.7361 35.354C48.7361 34.974 48.7361 34.704 48.7361 34.424C48.7361 34.254 48.8261 34.134 48.9561 34.044C49.3961 33.744 49.6761 33.804 49.9461 34.284C49.9961 34.374 50.0461 34.464 50.0761 34.554C50.1961 34.914 49.9661 35.304 49.5861 35.344C49.3361 35.374 49.0861 35.344 48.7261 35.344L48.7361 35.354Z" clip-rule="evenodd" fill-rule="evenodd"></path>
<path fill="#201C1A" d="M40.4962 37.174C40.2262 37.214 39.9762 37.254 39.7262 37.284C39.4662 37.174 39.3762 36.924 39.2762 36.704C39.1762 36.494 39.2562 36.304 39.4662 36.194C39.6862 36.084 39.9262 35.994 40.1962 35.864C40.3862 35.954 40.6062 36.074 40.8262 36.174C41.0762 36.644 40.6962 36.874 40.5062 37.164L40.4962 37.174Z" clip-rule="evenodd" fill-rule="evenodd"></path>
<path fill="#201C1A" d="M28.3359 65.964C28.4359 65.664 28.6359 65.524 28.8659 65.394C29.0959 65.274 29.2859 65.264 29.5059 65.394C29.8859 65.614 29.9859 66.064 29.7259 66.414C29.2959 66.984 28.8159 66.804 28.4959 66.344C28.4159 66.224 28.3759 66.074 28.3359 65.964Z" clip-rule="evenodd" fill-rule="evenodd"></path>
<path fill="#201C1A" d="M42.5359 61.0939H41.4259C41.3559 60.9139 41.2559 60.7639 41.2259 60.6039C41.1459 60.1839 41.2759 60.0139 41.6959 59.9139C41.7959 59.8939 41.8859 59.8639 41.9859 59.8439C42.3759 59.7439 42.4559 59.8139 42.6059 60.1539C42.7359 60.4639 42.5959 60.7439 42.5359 61.0939Z" clip-rule="evenodd" fill-rule="evenodd"></path>
<path fill="#201C1A" d="M38.4261 56.0439C38.5561 56.1439 38.6461 56.1939 38.7161 56.2639C39.1461 56.6739 39.1561 56.9039 38.7761 57.3539C38.5961 57.5739 38.3661 57.6439 38.0961 57.5639C37.8061 57.4839 37.5861 57.2839 37.5561 56.9939C37.5261 56.7139 37.6761 56.4539 37.9061 56.2839C38.0461 56.1839 38.2161 56.1339 38.4261 56.0439Z" clip-rule="evenodd" fill-rule="evenodd"></path>
<path fill="#201C1A" d="M45.8363 45.0339C46.1263 45.2839 46.4163 45.4839 46.5663 45.8039C46.3663 46.2839 45.9463 46.4039 45.5363 46.5339C45.3263 46.5939 45.0963 46.4539 45.0763 46.2539C45.0463 45.9739 45.0163 45.7039 45.1663 45.4339C45.3063 45.1839 45.5162 45.0939 45.8462 45.0239L45.8363 45.0339Z" clip-rule="evenodd" fill-rule="evenodd"></path>
<path fill="#201C1A" d="M36.0559 59.204C35.9459 58.864 35.7659 58.574 35.8859 58.204C36.0359 58.074 36.1859 57.884 36.4559 58.014C36.7959 58.194 37.2459 58.234 37.3659 58.714C37.4259 58.964 37.3259 59.174 37.1059 59.274C36.7659 59.424 36.4259 59.424 36.0559 59.204Z" clip-rule="evenodd" fill-rule="evenodd"></path>
<path fill="#201C1A" d="M44.9661 49.0039C45.1561 48.8739 45.3661 48.7339 45.5561 48.6039C45.7561 48.7039 45.9261 48.7639 46.0661 48.8539C46.5361 49.1639 46.5261 49.7239 46.0661 50.0339C45.9861 50.0939 45.8861 50.1339 45.7961 50.1639C45.6361 50.2339 45.4361 50.1639 45.3361 50.0139C45.2361 49.8439 45.1261 49.6739 45.0561 49.4839C45.0061 49.3439 44.9961 49.1939 44.9561 48.9839L44.9661 49.0039Z" clip-rule="evenodd" fill-rule="evenodd"></path>
<path fill="#201C1A" d="M44.8958 40.5439C44.5758 40.7139 44.2958 40.8839 44.0058 41.0139C43.9258 41.0439 43.7958 41.0239 43.7158 40.9839C43.3958 40.7839 43.2258 40.4839 43.2158 40.1039C43.2158 39.8839 43.3558 39.7239 43.5758 39.6839C43.6458 39.6739 43.7358 39.6539 43.7958 39.6839C44.2158 39.8639 44.7358 39.9039 44.8958 40.5539V40.5439Z" clip-rule="evenodd" fill-rule="evenodd"></path>
<path fill="#201C1A" d="M49.3963 52.2039C49.5363 52.2839 49.6362 52.3239 49.7062 52.3939C50.5762 53.1739 50.1662 53.4139 49.4562 53.7239C49.2262 53.8239 49.0462 53.7439 48.8562 53.5239C48.7062 53.3339 48.6762 53.0739 48.8062 52.8939C48.9662 52.6739 49.1562 52.4739 49.3862 52.2139L49.3963 52.2039Z" clip-rule="evenodd" fill-rule="evenodd"></path>
<path fill="#201C1A" d="M48.7558 46.374C48.7458 46.144 48.7358 46.004 48.7258 45.854C48.7258 45.594 48.7058 45.304 49.0158 45.224C49.3258 45.144 49.6658 45.104 49.9258 45.394C50.1858 45.674 50.2158 45.824 50.0158 46.374H48.7558Z" clip-rule="evenodd" fill-rule="evenodd"></path>
<path fill="#201C1A" d="M43.9063 50.554C44.3363 50.714 44.4863 51.004 44.4163 51.414C44.3863 51.644 44.0463 52.014 43.8263 52.064C43.6063 52.114 43.4163 51.994 43.2763 51.854C43.1363 51.714 43.0363 51.524 42.9263 51.364C43.0363 50.794 43.5263 50.734 43.9063 50.554Z" clip-rule="evenodd" fill-rule="evenodd"></path>
<path fill="#201C1A" d="M44.916 34.594C45.116 34.244 45.406 34.104 45.756 34.004C45.886 34.054 46.036 34.104 46.166 34.174C46.466 34.354 46.526 34.684 46.316 34.954C46.186 35.114 46.036 35.254 45.886 35.384C45.656 35.584 45.436 35.544 45.226 35.314C45.196 35.274 45.146 35.244 45.126 35.194C45.056 35.004 44.996 34.814 44.916 34.594Z" clip-rule="evenodd" fill-rule="evenodd"></path>
<path fill="#201C1A" d="M50.8661 61.6039C51.0061 61.6239 51.1661 61.6039 51.2961 61.6639C51.8261 61.8739 51.8861 62.0439 51.6561 62.5839C51.5961 62.7139 51.6061 62.8939 51.5261 63.0039C51.4461 63.1139 51.2961 63.2039 51.1561 63.2239C51.0761 63.2339 50.9461 63.0939 50.9061 62.9939C50.8461 62.8539 50.8261 62.7139 50.6461 62.6539C50.5661 62.6239 50.4561 62.5439 50.4461 62.4739C50.4261 62.3639 50.4461 62.2139 50.4961 62.1139C50.5861 61.9439 50.7261 61.7939 50.8661 61.6039Z" clip-rule="evenodd" fill-rule="evenodd"></path>
<path fill="#201C1A" d="M34.7958 52.4839C34.9158 52.6439 35.0358 52.8039 35.1658 52.9539C35.4258 53.2739 35.4158 53.4039 35.1558 53.6239C34.6258 54.0639 34.2658 53.9839 33.9758 53.3639C33.9358 53.2739 33.8958 53.1839 33.8758 53.0839C33.8258 52.8339 33.9558 52.6239 34.1958 52.5539C34.2458 52.5439 34.2958 52.5339 34.3458 52.5339C34.4958 52.5139 34.6358 52.4939 34.8158 52.4739L34.7958 52.4839Z" clip-rule="evenodd" fill-rule="evenodd"></path>
<path fill="#201C1A" d="M37.8561 35.4639C37.8061 35.2139 37.7561 35.0239 37.7261 34.8339C37.6261 34.2239 37.6461 34.1839 38.2861 33.8839C39.0061 34.2539 38.9461 34.5539 38.8761 34.9439C38.8061 35.3139 38.5561 35.4339 37.8561 35.4639Z" clip-rule="evenodd" fill-rule="evenodd"></path>
<path fill="#201C1A" d="M43.5462 58.064C43.8162 58.114 44.0662 58.154 44.3262 58.204C44.5062 58.514 44.4062 58.844 44.4162 59.144C44.1762 59.434 43.8762 59.484 43.5662 59.424C43.4262 59.394 43.2962 59.294 43.1862 59.194C43.0362 59.064 43.0362 58.884 43.0462 58.694C43.0562 58.544 43.0562 58.544 43.5362 58.054L43.5462 58.064Z" clip-rule="evenodd" fill-rule="evenodd"></path>
<path fill="#201C1A" d="M38.9162 60.5739C38.9162 60.5739 38.9162 60.714 38.9062 60.814C38.8562 61.054 38.5662 61.2939 38.3662 61.2739C38.0862 61.2439 37.7362 61.024 37.7162 60.814C37.6962 60.564 37.6962 60.3039 37.7162 60.0539C37.7362 59.8939 37.9662 59.7439 38.1262 59.7839C38.3262 59.8339 38.5162 59.8939 38.6962 59.9839C38.9262 60.0839 38.9062 60.304 38.9062 60.584L38.9162 60.5739Z" clip-rule="evenodd" fill-rule="evenodd"></path>
<path fill="#201C1A" d="M36.986 51.7839C36.776 52.1139 36.466 52.1239 36.116 52.0439C35.926 51.8539 35.816 51.5939 35.726 51.3339C35.616 51.0339 35.776 50.7939 36.096 50.7139C36.286 50.6639 36.486 50.6439 36.726 50.5939C36.786 50.7139 36.886 50.8239 36.916 50.9639C36.966 51.2339 36.966 51.5039 36.996 51.7839H36.986Z" clip-rule="evenodd" fill-rule="evenodd"></path>
<path fill="#201C1A" d="M37.7459 37.914C38.0959 37.634 38.4359 37.574 38.8659 37.954C38.9059 38.114 39.0059 38.374 39.0459 38.644C39.0859 38.904 38.8759 39.044 38.6059 38.984C38.3159 38.914 38.0259 38.854 37.7059 38.784C37.6559 38.694 37.6059 38.584 37.5459 38.474C37.6159 38.284 37.6759 38.094 37.7359 37.914H37.7459Z" clip-rule="evenodd" fill-rule="evenodd"></path>
<path fill="#201C1A" d="M36.2862 65.304C36.5762 65.424 36.7962 65.524 37.0462 65.624V66.404C36.8562 66.454 36.6662 66.494 36.4862 66.574C36.1762 66.714 35.9462 66.554 35.7162 66.414C35.4862 66.264 35.4762 65.864 35.7062 65.684C35.8862 65.544 36.0862 65.434 36.2862 65.304Z" clip-rule="evenodd" fill-rule="evenodd"></path>
<path fill="#201C1A" d="M47.1662 43.2339C47.3562 43.2839 47.5062 43.3139 47.6462 43.3739C48.1662 43.5939 48.2762 44.3039 47.8462 44.6139C47.7562 44.6839 47.6062 44.7239 47.4962 44.7039C47.0862 44.6339 46.7762 44.2639 46.7462 43.8639C46.7362 43.6739 46.7862 43.5939 47.1662 43.2439V43.2339Z" clip-rule="evenodd" fill-rule="evenodd"></path>
<path fill="#201C1A" d="M42.3861 53.6939C41.9261 53.7339 41.6661 53.5839 41.4861 53.3239C41.4061 53.2139 41.3761 53.0339 41.3961 52.9039C41.4261 52.7339 41.5161 52.5739 41.6161 52.4239C41.7561 52.2139 42.0461 52.2039 42.1961 52.3939C42.3561 52.5839 42.5061 52.7939 42.6461 52.9939C42.7561 53.1439 42.8061 53.3439 42.6961 53.4939C42.6061 53.6139 42.4161 53.6739 42.3761 53.6939H42.3861Z" clip-rule="evenodd" fill-rule="evenodd"></path>
<path fill="#201C1A" d="M28.416 62.524C28.446 62.344 28.466 62.224 28.486 62.104C28.566 61.654 28.616 61.634 29.076 61.724C29.686 61.854 29.736 61.924 29.716 62.504C29.716 62.724 29.626 62.894 29.416 62.974C29.306 63.024 29.186 63.064 29.056 63.124C28.846 62.924 28.646 62.744 28.416 62.524Z" clip-rule="evenodd" fill-rule="evenodd"></path>
<path fill="#201C1A" d="M28.6062 48.2139C28.3262 47.9439 28.3562 47.6839 28.5262 47.4339C28.7362 47.1439 29.0362 46.9839 29.3762 47.0539C29.6062 47.0939 29.8762 47.1839 29.9862 47.4539C29.5562 48.2539 29.5362 48.2639 28.6062 48.2139Z" clip-rule="evenodd" fill-rule="evenodd"></path>
<path fill="#201C1A" d="M35.376 38.4039C35.346 38.7739 34.956 39.1639 34.566 39.1839C34.496 39.1839 34.416 39.1639 34.356 39.1239C34.116 38.9639 33.986 38.3539 34.126 38.0939C34.286 37.7939 34.696 37.6839 35.056 37.8439C35.226 37.9239 35.396 38.2139 35.386 38.4039H35.376Z" clip-rule="evenodd" fill-rule="evenodd"></path>
<path fill="#201C1A" d="M42.3359 37.564C42.5459 37.934 42.6359 38.294 42.5859 38.684C42.5559 38.934 42.4159 39.044 42.1759 39.004C41.9759 38.964 41.7859 38.934 41.5859 38.894C41.2459 38.824 41.0859 38.484 41.2859 38.204C41.3759 38.064 41.5259 37.954 41.6759 37.864C41.8659 37.754 42.0759 37.684 42.3359 37.564Z" clip-rule="evenodd" fill-rule="evenodd"></path>
<path fill="#201C1A" d="M28.1861 49.3439C27.8561 49.6939 27.5561 50.0139 27.2261 50.3639C27.0861 50.2939 26.9561 50.2239 26.8061 50.1439C26.8061 49.9339 26.8061 49.7339 26.8061 49.5339C26.7961 49.2439 26.9561 49.0439 27.1861 48.9339C27.4461 48.8139 27.7361 48.8039 27.9561 49.0339C28.0361 49.1239 28.1061 49.2239 28.1861 49.3339V49.3439Z" clip-rule="evenodd" fill-rule="evenodd"></path>
<path fill="#201C1A" d="M50.446 54.684C50.446 54.684 50.516 54.594 50.556 54.574C51.176 54.254 51.496 54.404 51.636 55.084C51.656 55.184 51.686 55.274 51.716 55.374C51.716 55.394 51.716 55.424 51.696 55.514C51.586 55.584 51.446 55.724 51.296 55.744C51.136 55.774 50.946 55.704 50.786 55.644C50.416 55.504 50.336 55.294 50.446 54.684Z" clip-rule="evenodd" fill-rule="evenodd"></path>
<path fill="#201C1A" d="M47.3361 54.3839C47.6661 54.5439 47.9261 54.6739 48.2061 54.8039C48.3061 55.0139 48.2761 55.2239 48.0961 55.4139C47.9561 55.5539 47.8161 55.7039 47.6561 55.8339C47.4861 55.9739 47.2461 55.9239 47.1161 55.7539C46.8261 55.3739 46.8261 55.1239 47.0961 54.7239C47.1661 54.6239 47.2361 54.5239 47.3361 54.3839Z" clip-rule="evenodd" fill-rule="evenodd"></path>
<path fill="#201C1A" d="M47.066 59.4239C46.926 59.1339 46.796 58.8639 46.646 58.5739C46.696 58.4739 46.736 58.3539 46.806 58.2539C46.916 58.0839 47.116 58.0139 47.276 58.0839C47.546 58.2139 47.816 58.3639 48.026 58.5739C48.246 58.7939 48.066 59.1939 47.746 59.2739C47.546 59.3239 47.356 59.3539 47.066 59.4139V59.4239Z" clip-rule="evenodd" fill-rule="evenodd"></path>
<path fill="#201C1A" d="M45.676 65.1039C45.406 64.8739 45.166 64.6639 44.896 64.4239C44.966 64.2639 45.006 64.1139 45.086 63.9939C45.356 63.5739 45.476 63.5439 45.966 63.7139C46.056 63.7439 46.146 63.7839 46.216 63.8139C46.386 64.3839 46.236 64.7939 45.676 65.1039Z" clip-rule="evenodd" fill-rule="evenodd"></path>
<path fill="#201C1A" d="M47.3758 46.8239C47.5858 46.9339 47.7958 47.0239 47.9758 47.1539C48.0458 47.2039 48.0858 47.3239 48.1058 47.4139C48.1558 47.8239 47.8158 48.2839 47.4058 48.3639C47.3458 48.3739 47.2458 48.3439 47.1958 48.3039C46.8958 48.0239 46.8158 47.3939 47.0558 47.0539C47.1158 46.9639 47.2458 46.9139 47.3758 46.8339V46.8239Z" clip-rule="evenodd" fill-rule="evenodd"></path>
<path fill="#201C1A" d="M38.3161 52.5739C38.6061 52.6939 38.8661 52.7939 39.0161 53.0939C38.9561 53.2139 38.9061 53.3539 38.8261 53.4739C38.6361 53.7439 38.3361 53.8739 38.0461 53.8439C37.7261 53.8139 37.5061 53.5839 37.4761 53.2339C37.7027 52.9606 37.9861 52.7406 38.3261 52.5739H38.3161Z" clip-rule="evenodd" fill-rule="evenodd"></path>
<path fill="#201C1A" d="M37.036 39.9339C37.036 40.0639 37.066 40.2139 37.066 40.3639C37.056 40.7839 36.936 40.8839 36.496 40.8939C36.066 40.8939 36.066 40.8939 35.686 40.4139C35.756 40.1639 35.806 39.8639 36.086 39.7339C36.416 39.5839 36.736 39.6839 37.036 39.9439V39.9339Z" clip-rule="evenodd" fill-rule="evenodd"></path>
<path fill="#201C1A" d="M48.7358 49.1239C49.2825 48.9839 49.7392 49.1206 50.1058 49.5339C50.0558 49.6739 49.9958 49.8339 49.9358 49.9939C49.6758 50.0739 49.4358 50.1539 49.1958 50.2139C48.9858 50.2639 48.7658 50.1139 48.7458 49.9039C48.7258 49.6539 48.7458 49.4039 48.7458 49.1139L48.7358 49.1239Z" clip-rule="evenodd" fill-rule="evenodd"></path>
<path fill="#201C1A" d="M46.8462 62.0439C47.0062 61.8739 47.0962 61.6939 47.2262 61.6339C47.3362 61.5839 47.5162 61.6539 47.6562 61.6939C47.7762 61.7239 47.8762 61.8139 47.9962 61.8539C48.4062 62.0039 48.4662 62.2339 48.3862 62.7039C48.3462 62.9139 48.0662 63.0439 47.9162 62.9039C47.7362 62.7339 47.5162 62.7139 47.3262 62.6139C47.1462 62.5139 47.0362 62.2839 46.8462 62.0439Z" clip-rule="evenodd" fill-rule="evenodd"></path>
<path fill="#201C1A" d="M45.1058 41.5839C45.2958 41.5139 45.4258 41.4539 45.5758 41.4139C45.8958 41.3239 46.0858 41.4339 46.1058 41.7439C46.1258 41.9639 46.1058 42.1939 46.1058 42.4039C45.8958 42.7039 45.6058 42.7439 45.2858 42.7139C44.9958 42.6839 44.8358 42.4739 44.8958 42.1839C44.9358 41.9939 45.0258 41.8039 45.0958 41.5839H45.1058Z" clip-rule="evenodd" fill-rule="evenodd"></path>
<path fill="#201C1A" d="M50.4658 39.9539C50.6958 39.7039 50.9458 39.6039 51.2758 39.7739C51.3558 39.8139 51.4758 39.8039 51.5758 39.8239C51.8458 39.8939 51.9258 39.9939 51.9458 40.2339C51.9658 40.5039 51.8858 40.6239 51.5858 40.7239C51.3458 40.8039 51.1158 40.9539 50.8358 40.8239C50.5858 40.6039 50.5658 40.2639 50.4758 39.9539H50.4658Z" clip-rule="evenodd" fill-rule="evenodd"></path>
<path fill="#201C1A" d="M32.8159 32.0339C33.0759 32.2339 33.2959 32.4039 33.5159 32.5739C33.5959 32.9639 33.4659 33.2739 33.1559 33.5039C32.9059 33.6939 32.6459 33.7039 32.3759 33.4339C32.0959 32.8739 32.6159 32.5339 32.8159 32.0339Z" clip-rule="evenodd" fill-rule="evenodd"></path>
<path fill="#201C1A" d="M42.5261 34.5839C42.3561 34.5539 42.1861 34.5239 42.0261 34.5039C41.8761 34.4839 41.7961 34.5639 41.7561 34.7239C41.9261 35.0139 42.2861 34.9839 42.5161 35.1639C42.5961 35.3639 42.4561 35.4639 42.3061 35.4939C41.9861 35.5439 41.6461 35.6039 41.3761 35.3139C41.2461 35.1739 41.1861 35.0139 41.2161 34.8239C41.2961 34.3639 41.7861 33.9839 42.2561 34.0139C42.4361 34.0239 42.5261 34.1939 42.5161 34.5839H42.5261Z" clip-rule="evenodd" fill-rule="evenodd"></path>
<path fill="#201C1A" d="M46.2561 52.6639C46.2161 52.7739 46.1761 52.8439 46.1761 52.9139C46.1761 53.4839 45.8461 53.6939 45.2761 53.7039C45.2061 53.3139 44.9561 52.9439 45.0961 52.5139C45.7461 52.1239 45.7561 52.1239 46.2661 52.6639H46.2561Z" clip-rule="evenodd" fill-rule="evenodd"></path>
<path fill="#201C1A" d="M37.0661 47.9739C36.8561 48.0539 36.7161 48.1139 36.5861 48.1539C36.4461 48.1939 36.2961 48.2439 36.1461 48.2339C35.7561 48.2339 35.5561 47.8539 35.7761 47.5339C35.9661 47.2439 36.2561 47.0839 36.5961 47.0339C36.8461 46.9939 37.0461 47.1639 37.0661 47.4139C37.0861 47.5939 37.0661 47.7639 37.0661 47.9639V47.9739Z" clip-rule="evenodd" fill-rule="evenodd"></path>
<path fill="#201C1A" d="M41.4462 48.9339C41.7362 48.9739 42.0062 48.9939 42.2762 49.0439C42.4362 49.0739 42.5462 49.184 42.5762 49.354C42.6062 49.524 42.5362 49.6539 42.3862 49.7339C42.1662 49.8539 41.9362 49.9739 41.7062 50.0639C41.5562 50.1139 41.4062 50.064 41.3062 49.924C41.2662 49.864 41.2262 49.7939 41.1962 49.7239C41.0262 49.3939 41.0262 49.3439 41.2862 49.0539C41.3362 49.0039 41.4062 48.964 41.4562 48.924L41.4462 48.9339Z" clip-rule="evenodd" fill-rule="evenodd"></path>
<path fill="#201C1A" d="M45.7162 39.144C45.5162 39.014 45.3862 38.874 45.3562 38.654C45.3462 38.534 45.3062 38.404 45.2762 38.284C45.1895 37.9706 45.3262 37.7273 45.6862 37.554C46.0462 37.744 46.2862 38.054 46.4062 38.454C46.2962 38.784 46.1462 39.064 45.7162 39.144Z" clip-rule="evenodd" fill-rule="evenodd"></path>
<path fill="#201C1A" d="M29.686 51.274C29.636 51.554 29.526 51.774 29.326 51.944C29.036 52.194 28.626 52.094 28.556 51.724C28.496 51.434 28.526 51.124 28.546 50.824C28.546 50.744 28.666 50.674 28.756 50.564C29.096 50.784 29.496 50.904 29.696 51.274H29.686Z" clip-rule="evenodd" fill-rule="evenodd"></path>
<path fill="#201C1A" d="M31.5661 64.1639C31.3927 64.5039 31.1761 64.7673 30.9161 64.9539C30.7461 64.7839 30.5561 64.6339 30.4061 64.4339C30.2261 64.2039 30.3561 63.6339 30.6061 63.4739C30.7261 63.4039 30.9861 63.4239 31.1061 63.5439C31.2761 63.7239 31.4061 63.9439 31.5661 64.1539V64.1639Z" clip-rule="evenodd" fill-rule="evenodd"></path>
<path fill="#201C1A" d="M35.8858 32.5639C36.0658 32.4839 36.2058 32.4239 36.3358 32.3539C36.4658 32.2839 36.5858 32.2139 36.6958 32.1539C36.9958 32.2939 37.0258 32.5639 37.1558 32.7839C37.2758 32.9839 37.2258 33.1639 37.0658 33.3339C36.8558 33.5439 36.7158 33.5839 36.4558 33.4639C36.1058 33.2939 35.7758 33.1039 35.8858 32.5839V32.5639Z" clip-rule="evenodd" fill-rule="evenodd"></path>
<path fill="#201C1A" d="M28.3462 43.9939C28.4562 43.7539 28.5062 43.6439 28.5662 43.5039C28.7062 43.4739 28.8462 43.4439 28.9862 43.3939C29.3062 43.2839 29.4762 43.3139 29.6362 43.5339C29.6962 43.6139 29.7362 43.7039 29.7862 43.8039C29.9062 44.0739 29.8762 44.2239 29.6662 44.4139C29.4662 44.5939 29.1662 44.6339 28.9662 44.5039C28.9262 44.4739 28.8862 44.4339 28.8462 44.4039C28.6862 44.2739 28.5262 44.1539 28.3462 44.0039V43.9939Z" clip-rule="evenodd" fill-rule="evenodd"></path>
<path fill="#201C1A" d="M32.9362 66.6039C32.5062 66.4939 32.0762 66.5239 31.8862 66.0539C32.0762 65.5639 32.5462 65.4939 32.9862 65.4439C33.2862 65.4039 33.5062 65.8239 33.3462 66.1239C33.2462 66.2939 33.0862 66.4339 32.9362 66.6039Z" clip-rule="evenodd" fill-rule="evenodd"></path>
<path fill="#201C1A" d="M37.0661 61.7939C37.0661 62.1139 37.0761 62.3639 37.0661 62.6139C37.0461 62.8239 36.8261 63.0739 36.6361 63.0939C36.3361 63.1239 36.0961 62.9839 35.9161 62.7639C35.7761 62.6039 35.7361 62.3939 35.8661 62.2039C35.9161 62.1239 36.0161 62.0039 36.0661 62.0139C36.3461 62.0739 36.5361 61.8939 36.7661 61.7839C36.8261 61.7539 36.9161 61.7839 37.0761 61.7939H37.0661Z" clip-rule="evenodd" fill-rule="evenodd"></path>
<path fill="#201C1A" d="M49.736 42.4739C49.366 42.5639 49.016 42.6339 48.616 42.5039C48.566 42.2339 48.516 41.9739 48.746 41.7439C48.966 41.5139 49.426 41.4139 49.726 41.5839C49.826 41.6339 49.906 41.7639 49.936 41.8739C49.996 42.0839 49.916 42.2739 49.736 42.4739Z" clip-rule="evenodd" fill-rule="evenodd"></path>
<path fill="#201C1A" d="M28.406 55.254C28.496 55.024 28.566 54.814 28.646 54.604C28.746 54.354 29.026 54.234 29.246 54.314C29.606 54.444 29.736 54.624 29.696 54.914C29.656 55.204 29.516 55.434 29.226 55.544C28.906 55.664 28.636 55.604 28.396 55.254H28.406Z" clip-rule="evenodd" fill-rule="evenodd"></path>
<path fill="#201C1A" d="M51.7361 32.4939C51.8261 33.0239 51.7061 33.4739 51.2561 33.8039C50.6361 33.5039 50.4461 33.2139 50.5961 32.7739C50.6361 32.6639 50.7361 32.5639 50.8361 32.4939C51.0461 32.3539 51.1461 32.3639 51.7361 32.4939Z" clip-rule="evenodd" fill-rule="evenodd"></path>
<path fill="#201C1A" d="M30.4959 57.3939C30.2459 57.0839 30.3259 56.7839 30.3659 56.4939C30.3859 56.3639 30.5659 56.2539 30.7159 56.2839C30.8659 56.3039 31.0059 56.3539 31.1559 56.3739C31.6459 56.4439 31.8059 56.6739 31.6759 57.1439C31.6459 57.2739 31.4559 57.3739 31.3159 57.3339C31.0092 57.2472 30.7325 57.2639 30.4859 57.3839L30.4959 57.3939Z" clip-rule="evenodd" fill-rule="evenodd"></path>
<path fill="#201C1A" d="M45.6961 57.4239C45.4961 57.3639 45.3261 57.3239 45.1661 57.2639C44.9361 57.1739 44.8461 56.9339 44.9261 56.6939C45.0461 56.3239 45.4061 56.1439 45.7661 56.2839C45.8561 56.3239 45.9561 56.3639 46.0361 56.4139C46.3761 56.6239 46.3661 57.0539 46.0161 57.2739C45.9161 57.3439 45.7861 57.3739 45.6961 57.4239Z" clip-rule="evenodd" fill-rule="evenodd"></path>
<path fill="#201C1A" d="M41.9258 63.504C42.1658 63.664 42.4258 63.854 42.7158 64.054C42.5258 64.444 42.3358 64.754 41.8958 64.804C41.6558 64.834 41.5658 64.774 41.2158 64.354C41.5058 64.134 41.4158 63.624 41.9258 63.514V63.504Z" clip-rule="evenodd" fill-rule="evenodd"></path>
<path fill="#201C1A" d="M48.5959 38.194C48.7159 38.084 48.8259 37.974 48.9459 37.884C49.0259 37.824 49.1259 37.794 49.2459 37.744C49.5959 37.974 49.9159 38.244 50.0359 38.684C49.8859 38.994 49.6559 39.104 49.3459 39.034C48.9459 38.944 48.6659 38.704 48.5859 38.194H48.5959Z" clip-rule="evenodd" fill-rule="evenodd"></path>
<path fill="#201C1A" d="M41.5858 42.674C41.5158 42.354 41.2458 42.064 41.4758 41.654C41.6358 41.654 41.8058 41.654 41.9658 41.654C42.1158 41.654 42.2658 41.624 42.4058 41.614C42.4558 41.654 42.5158 41.674 42.5358 41.714C42.8558 42.364 42.7058 42.644 41.9958 42.734C41.9458 42.734 41.8958 42.734 41.8458 42.734C41.7758 42.734 41.6958 42.704 41.5858 42.684V42.674Z" clip-rule="evenodd" fill-rule="evenodd"></path>
<path fill="#201C1A" d="M32.186 40.3439C32.246 40.1439 32.286 39.9939 32.346 39.8539C32.416 39.7039 32.686 39.5339 32.826 39.5539C33.056 39.5739 33.356 39.8039 33.376 39.9939C33.396 40.1939 33.406 40.3939 33.376 40.5939C33.326 40.8539 33.096 40.9239 32.816 40.9939C32.616 40.7839 32.396 40.5539 32.196 40.3439H32.186Z" clip-rule="evenodd" fill-rule="evenodd"></path>
<path fill="#201C1A" d="M47.2858 65.314C47.8658 65.404 48.0158 65.804 48.1658 66.184C48.2558 66.404 48.0558 66.654 47.8158 66.644C47.4658 66.634 47.1858 66.464 46.9758 66.184C46.8358 66.004 46.8458 65.794 46.9758 65.614C47.0558 65.494 47.1958 65.404 47.2958 65.314H47.2858Z" clip-rule="evenodd" fill-rule="evenodd"></path>
<path fill="#201C1A" d="M50.6159 51.514C50.4859 51.034 50.6459 50.724 51.1459 50.554C51.3459 50.684 51.5559 50.824 51.7859 50.974C51.7859 51.184 51.7959 51.384 51.7859 51.584C51.7659 51.824 51.5759 51.944 51.3459 51.854C51.1159 51.764 50.8959 51.644 50.6159 51.514Z" clip-rule="evenodd" fill-rule="evenodd"></path>
<path fill="#201C1A" d="M28.6562 36.3839C28.9062 36.1239 29.1663 35.9839 29.4963 35.9839C29.9263 35.9839 30.0963 36.2439 29.9263 36.6339C29.7863 36.9439 29.5763 37.1839 29.2863 37.3339C28.7963 37.2039 28.7862 36.7839 28.6562 36.3839Z" clip-rule="evenodd" fill-rule="evenodd"></path>
<path fill="#201C1A" d="M27.196 53.7639C27.146 53.7639 27.016 53.7639 26.896 53.7139C26.816 53.6839 26.706 53.5939 26.696 53.5139C26.666 53.3439 26.646 53.1539 26.686 52.9939C26.746 52.7339 27.096 52.5239 27.336 52.5639C27.596 52.5939 27.836 52.8539 27.876 53.1339C27.936 53.6039 27.776 53.7839 27.206 53.7839L27.196 53.7639Z" clip-rule="evenodd" fill-rule="evenodd"></path>
<path fill="#201C1A" d="M40.8958 62.3739C40.7258 62.7739 40.3158 62.8539 40.0058 63.1439C39.8958 63.0239 39.7758 62.9439 39.7058 62.8239C39.6058 62.6539 39.5558 62.4639 39.4658 62.2339C39.6158 62.1339 39.7658 62.0139 39.9258 61.9039C40.3458 61.6439 40.5358 61.6939 40.7758 62.1039C40.8258 62.1839 40.8558 62.2839 40.8958 62.3639V62.3739Z" clip-rule="evenodd" fill-rule="evenodd"></path>
<path fill="#201C1A" d="M43.3062 47.9439C43.3362 47.6639 43.3662 47.4239 43.3962 47.1839C43.6262 46.8839 43.8961 46.8839 44.1861 47.0539C44.3461 47.1539 44.4361 47.2839 44.4361 47.4839C44.4361 47.7039 44.4361 47.9239 44.4361 48.1639C43.9961 48.3239 43.6662 48.2239 43.3062 47.9439Z" clip-rule="evenodd" fill-rule="evenodd"></path>
<path fill="#201C1A" d="M41.8262 57.4439C41.8262 57.4439 41.7662 57.4439 41.6662 57.4239C41.4962 57.3939 41.3662 57.2239 41.3662 57.0339C41.3662 56.8139 41.3662 56.5939 41.3962 56.3739C41.4162 56.1439 41.7262 56.0139 41.9262 56.1439C42.2362 56.3439 42.3662 56.6939 42.5462 56.9839C42.6362 57.1239 42.4962 57.3539 42.3362 57.4039C42.2862 57.4139 42.2362 57.4339 42.1862 57.4339C42.1162 57.4339 42.0362 57.4339 41.8162 57.4339L41.8262 57.4439Z" clip-rule="evenodd" fill-rule="evenodd"></path>
<path fill="#201C1A" d="M51.0459 57.7939C51.4959 58.0039 51.6759 58.4339 51.9159 58.8139C51.9559 58.8739 51.9159 59.0339 51.8659 59.0839C51.7859 59.1539 51.5759 59.2439 51.5459 59.2039C51.2859 58.9539 50.9359 59.0139 50.5859 58.9039C50.6659 58.5539 50.6859 58.2039 50.8559 57.9039C50.8859 57.8539 50.9759 57.8339 51.0459 57.7939Z" clip-rule="evenodd" fill-rule="evenodd"></path>
<path fill="#201C1A" d="M27.2363 37.8439C27.3663 37.8439 27.4763 37.8239 27.5663 37.8339C27.9663 37.8839 28.0763 38.0639 27.9463 38.4539C27.7563 39.0439 27.5363 39.1339 26.7663 38.9339C26.6663 38.4839 26.9663 38.2039 27.2363 37.8439Z" clip-rule="evenodd" fill-rule="evenodd"></path>
<path fill="#201C1A" d="M27.1861 64.9239C27.1461 64.7739 27.1261 64.6239 27.0661 64.5039C27.0061 64.3739 26.8661 64.2739 26.8161 64.1439C26.7761 64.0139 26.8161 63.8539 26.8161 63.7439C27.0961 63.4239 27.3561 63.4239 27.6461 63.6239C27.8461 63.7639 27.9761 63.954 27.9461 64.194C27.8961 64.604 27.6761 64.8839 27.1861 64.9239Z" clip-rule="evenodd" fill-rule="evenodd"></path>
<path fill="#201C1A" d="M30.916 59.944C31.046 59.984 31.166 60.014 31.286 60.054C31.656 60.184 31.716 60.274 31.696 60.664C31.686 60.964 31.576 61.094 31.296 61.114C31.096 61.134 30.896 61.114 30.676 61.114C30.576 60.884 30.486 60.684 30.396 60.474C30.486 60.204 30.686 60.054 30.916 59.934V59.944Z" clip-rule="evenodd" fill-rule="evenodd"></path>
<path fill="#201C1A" d="M44.2863 44.334C44.0463 44.304 43.7963 44.294 43.5563 44.244C43.2363 44.184 43.0863 43.814 43.2863 43.534C43.4163 43.354 43.5963 43.214 43.7463 43.064C44.4763 43.474 44.5463 43.634 44.2863 44.334Z" clip-rule="evenodd" fill-rule="evenodd"></path>
<path fill="#201C1A" d="M34.0662 45.4339C34.2162 45.3739 34.3762 45.3039 34.5362 45.2439C34.9762 45.0839 35.0862 45.3039 35.2062 45.6239C35.2462 45.7339 35.2362 45.8739 35.2262 45.9939C35.2162 46.2439 35.0962 46.3639 34.8562 46.3939C34.7862 46.4039 34.7062 46.4039 34.6262 46.3939C34.5262 46.3839 34.4262 46.3639 34.3262 46.3439C34.1262 46.0739 33.9162 45.8139 34.0562 45.4239L34.0662 45.4339Z" clip-rule="evenodd" fill-rule="evenodd"></path>
<path fill="#201C1A" d="M27.4861 41.3339C27.6861 41.5239 27.8661 41.6939 28.0661 41.8939C27.9161 42.1439 27.8361 42.3639 27.6961 42.5239C27.3761 42.8939 26.9361 42.7739 26.7861 42.3039C26.7661 42.2539 26.7561 42.2039 26.7461 42.1539C26.7461 42.1039 26.7461 42.0539 26.7461 41.9539C26.8461 41.8539 26.9561 41.7239 27.0861 41.6139C27.1961 41.5239 27.3261 41.4439 27.4861 41.3339Z" clip-rule="evenodd" fill-rule="evenodd"></path>
<path fill="#201C1A" d="M32.8261 54.0539C32.9661 54.3839 32.9261 54.6639 33.1461 54.8439C33.2061 54.8939 33.2361 55.0339 33.2261 55.1239C33.2061 55.2339 33.1561 55.3639 33.0761 55.4339C32.9161 55.5739 32.7061 55.6339 32.5061 55.5639C32.3961 55.5239 32.2461 55.4339 32.2261 55.3439C32.1361 54.9939 32.0861 54.6339 32.4261 54.3639C32.5361 54.2739 32.6561 54.1839 32.8361 54.0439L32.8261 54.0539Z" clip-rule="evenodd" fill-rule="evenodd"></path>
<path fill="#201C1A" d="M39.9461 57.9639C40.1761 58.0139 40.3961 58.0539 40.6361 58.1039C40.7861 58.2639 40.9561 58.4539 40.8861 58.6939C40.7961 58.9639 40.5761 59.1339 40.2861 59.2939C40.0461 59.0339 39.8061 58.7839 39.5561 58.5039C39.5261 58.2239 39.7361 58.0839 39.9561 57.9539L39.9461 57.9639Z" clip-rule="evenodd" fill-rule="evenodd"></path>
<path fill="#201C1A" d="M29.2358 59.4539C29.1258 59.4139 29.0158 59.4039 28.9458 59.3439C28.6158 59.0539 28.5558 58.4539 28.8258 58.1039C28.8758 58.0339 28.9958 57.9739 29.0858 57.9639C29.4558 57.9439 29.7758 58.2839 29.7058 58.6439C29.6558 58.8639 29.5758 59.0739 29.4758 59.2739C29.4358 59.3539 29.3258 59.3939 29.2458 59.4539H29.2358Z" clip-rule="evenodd" fill-rule="evenodd"></path>
<path fill="#201C1A" d="M30.4658 53.2439C30.4958 53.1439 30.5358 52.9739 30.5958 52.8139C30.6658 52.6139 30.7758 52.4239 31.0158 52.4139C31.2458 52.4039 31.3958 52.5739 31.4958 52.7539C31.6158 52.9639 31.6058 53.2039 31.4158 53.3939C31.2758 53.5439 31.1358 53.6839 30.9758 53.8139C30.7958 53.9639 30.5558 53.8639 30.5158 53.6339C30.4958 53.5339 30.4958 53.4339 30.4758 53.2539L30.4658 53.2439Z" clip-rule="evenodd" fill-rule="evenodd"></path>
<path fill="#201C1A" d="M45.186 60.5839C45.236 60.3939 45.276 60.2539 45.326 60.1139C45.416 59.8139 45.726 59.6939 45.976 59.8539C46.296 60.0539 46.286 60.3539 46.286 60.6639C46.286 60.9939 46.106 61.1739 45.786 61.2839C45.586 61.0439 45.396 60.8239 45.196 60.5839H45.186Z" clip-rule="evenodd" fill-rule="evenodd"></path>
<path fill="#201C1A" d="M31.3258 35.3139C30.8358 35.4939 30.6058 35.0739 30.2158 34.9039C30.3658 34.6039 30.6858 34.4839 30.7458 34.1639C30.7758 34.0039 31.0458 33.9739 31.2058 34.0739C31.5158 34.2639 31.6158 34.5039 31.5158 34.8439C31.4658 35.0139 31.3858 35.1639 31.3258 35.3239V35.3139Z" clip-rule="evenodd" fill-rule="evenodd"></path>
<path fill="#201C1A" d="M39.726 33.4139C39.706 33.2939 39.696 33.1939 39.686 33.0939C39.626 32.6039 39.8761 32.4739 40.3361 32.3239C40.5161 32.2639 40.826 32.5339 40.886 32.7639C40.956 33.0739 40.6361 33.5239 40.3261 33.5139C40.1261 33.5139 39.936 33.4439 39.726 33.4039V33.4139Z" clip-rule="evenodd" fill-rule="evenodd"></path>
<path fill="#201C1A" d="M29.866 33.494H29.016C28.906 33.274 28.786 33.084 28.696 32.874C28.656 32.784 28.646 32.684 28.646 32.584C28.646 32.414 28.726 32.294 28.876 32.214C29.036 32.134 29.176 32.174 29.296 32.284C29.606 32.594 29.796 32.964 29.866 33.494Z" clip-rule="evenodd" fill-rule="evenodd"></path>
<path fill="#201C1A" d="M51.1663 37.1839C50.6763 36.9539 50.7162 36.5439 50.6562 36.1539C50.7162 36.0939 50.7662 36.0039 50.8462 35.9539C51.1062 35.7939 51.1863 35.7939 51.3063 36.0539C51.3863 36.2239 51.4962 36.2639 51.6362 36.3139C51.7862 36.3639 51.9363 36.4739 51.8963 36.6439C51.8663 36.8039 51.8062 36.9939 51.5962 37.0439C51.4562 37.0839 51.3062 37.1339 51.1562 37.1839H51.1663Z" clip-rule="evenodd" fill-rule="evenodd"></path>
<path fill="#201C1A" d="M49.9159 63.554V64.564C49.6759 64.644 49.4559 64.804 49.1659 64.804C49.0059 64.804 48.8659 64.744 48.7859 64.604C48.6959 64.454 48.7359 64.304 48.8459 64.184C49.0059 64.014 49.1559 63.834 49.3359 63.704C49.4659 63.614 49.6559 63.614 49.9159 63.554Z" clip-rule="evenodd" fill-rule="evenodd"></path>
<path fill="#201C1A" d="M39.7059 44.5039C39.5659 44.3339 39.4259 44.1639 39.2759 43.9639C39.5359 43.9239 39.7559 43.884 39.8859 43.594C40.0059 43.344 40.2159 43.3039 40.3859 43.3939C40.6959 43.5639 40.8059 43.804 40.6959 44.084C40.5159 44.544 40.4159 44.584 39.7059 44.5039Z" clip-rule="evenodd" fill-rule="evenodd"></path>
<path fill="#201C1A" d="M30.326 38.7039C30.296 38.4839 30.386 38.2939 30.576 38.1339C30.916 37.8539 31.416 38.0039 31.526 38.4539C31.546 38.5539 31.496 38.7139 31.426 38.7839C31.306 38.9039 31.146 38.9939 30.996 39.0839C30.636 39.3039 30.346 39.1539 30.336 38.7039H30.326Z" clip-rule="evenodd" fill-rule="evenodd"></path>
<path fill="#201C1A" d="M31.666 42.084C31.496 42.254 31.346 42.434 31.176 42.574C30.836 42.864 30.346 42.724 30.196 42.304C30.146 42.144 30.206 41.974 30.356 41.914C30.606 41.804 30.866 41.734 31.136 41.674C31.406 41.614 31.556 41.764 31.666 42.094V42.084Z" clip-rule="evenodd" fill-rule="evenodd"></path>
<path fill="#201C1A" d="M44.3962 62.7539C44.2862 62.7639 44.1862 62.8139 44.1462 62.7839C43.9362 62.6439 43.7562 62.4839 43.5062 62.7239C43.4862 62.7439 43.2962 62.6739 43.2762 62.6139C43.1462 62.2539 43.1762 61.9139 43.5562 61.7039C43.8662 61.7139 44.1562 61.8039 44.3962 62.0239V62.7639V62.7539Z" clip-rule="evenodd" fill-rule="evenodd"></path>
<path fill="#201C1A" d="M35.2962 63.7739C35.3962 64.0339 35.4462 64.2139 35.2262 64.3639C35.1262 64.4339 35.0262 64.5139 34.9362 64.5939C34.5462 64.9039 34.3362 64.8939 33.9662 64.5239C33.9362 64.4939 33.9162 64.4439 33.8862 64.3939C34.1362 63.8239 34.2062 63.7839 34.7462 63.8039C34.9162 63.8039 35.0862 63.7839 35.2962 63.7639V63.7739Z" clip-rule="evenodd" fill-rule="evenodd"></path>
<path fill="#201C1A" d="M35.606 54.924C35.826 54.674 36.026 54.454 36.176 54.294C36.596 54.254 36.556 54.574 36.696 54.734C36.786 54.724 36.886 54.704 36.976 54.694C37.006 54.724 37.046 54.764 37.056 54.804C37.096 54.994 37.046 55.144 36.876 55.264C36.666 55.404 36.476 55.444 35.966 55.444C35.856 55.294 35.736 55.114 35.606 54.934V54.924Z" clip-rule="evenodd" fill-rule="evenodd"></path>
<path fill="#201C1A" d="M41.9759 46.4339C41.8159 46.2939 41.6959 46.1939 41.5859 46.0939C41.3659 45.8639 41.3259 45.7239 41.4159 45.5639C41.5759 45.2939 41.8559 45.1439 42.1059 45.2039C42.2759 45.2439 42.4459 45.3639 42.7259 45.6539C42.5759 45.9839 42.2959 46.1839 41.9659 46.4439L41.9759 46.4339Z" clip-rule="evenodd" fill-rule="evenodd"></path>
<path fill="#201C1A" d="M49.976 56.4839C49.816 57.0139 49.496 57.3139 49.086 57.7039C48.966 57.2839 48.936 56.9639 48.646 56.8339C48.916 56.1739 48.986 56.1439 49.546 56.3239C49.666 56.3639 49.786 56.4039 49.976 56.4739V56.4839Z" clip-rule="evenodd" fill-rule="evenodd"></path>
<path fill="#201C1A" d="M27.8561 60.3639C27.7861 60.6039 27.6661 60.8839 27.3961 61.0539C27.2161 61.1639 27.0061 61.1639 26.8161 61.0539C26.6661 60.9639 26.6061 60.7339 26.6761 60.5039C26.7661 60.1839 27.2061 59.9039 27.5561 59.9339C27.7161 59.9439 27.8761 60.1539 27.8561 60.3739V60.3639Z" clip-rule="evenodd" fill-rule="evenodd"></path>
<path fill="#201C1A" d="M32.3661 59.0939C32.3161 58.8939 32.2761 58.7439 32.2461 58.6039C32.3661 58.3439 32.5761 58.1739 32.8361 58.1639C33.0761 58.1639 33.3461 58.1839 33.5161 58.4839C33.4561 58.6839 33.3861 58.9239 33.2961 59.2039C32.9961 59.1639 32.7061 59.1339 32.3661 59.0839V59.0939Z" clip-rule="evenodd" fill-rule="evenodd"></path>
<path fill="#201C1A" d="M51.9358 47.6339C51.8958 47.7239 51.8658 47.8039 51.8358 47.8639C51.5658 48.3339 51.2558 48.3839 50.8658 48.0039C50.7258 47.8639 50.5358 47.7439 50.6058 47.4339C50.8958 47.2639 51.2458 47.1439 51.6558 47.1039C51.7558 47.2839 51.8458 47.4639 51.9358 47.6239V47.6339Z" clip-rule="evenodd" fill-rule="evenodd"></path>
<path fill="#201C1A" d="M34.706 61.084C34.346 60.844 33.966 60.6839 33.896 60.2139C33.946 60.0239 34.056 59.9139 34.276 59.9639C34.346 59.9839 34.416 60.0239 34.486 60.0239C35.026 60.0239 35.026 60.0239 35.136 60.4539C35.226 60.7939 35.046 60.964 34.706 61.084Z" clip-rule="evenodd" fill-rule="evenodd"></path>
<path fill="#201C1A" d="M27.2159 45.1439C27.4259 45.3839 27.5759 45.5539 27.7159 45.7339C27.8959 45.9739 27.8159 46.2339 27.5059 46.3039C27.1759 46.3839 26.8659 46.3039 26.5959 46.1139C26.4859 46.0339 26.4559 45.8739 26.5359 45.7739C26.7359 45.5639 26.9559 45.3739 27.2159 45.1439Z" clip-rule="evenodd" fill-rule="evenodd"></path>
<path fill="#201C1A" d="M39.0859 49.1939C38.7459 49.5939 38.3159 49.6739 37.9059 49.7539C37.8059 49.7739 37.6759 49.6239 37.5259 49.5339C37.8559 49.1939 38.0459 48.8039 38.4859 48.5739C38.6759 48.7639 38.8559 48.9639 39.0859 49.2039V49.1939Z" clip-rule="evenodd" fill-rule="evenodd"></path>
<path fill="#201C1A" d="M51.2259 43.2239C51.3659 43.5839 51.9159 43.7539 51.7459 44.3339C51.6759 44.3539 51.5859 44.4039 51.4959 44.4139C50.8259 44.4439 50.7059 44.3339 50.6559 43.6639C50.6359 43.3539 50.7559 43.2539 51.2259 43.2339V43.2239Z" clip-rule="evenodd" fill-rule="evenodd"></path>
<path fill="#201C1A" d="M50.706 66.544C50.446 65.854 50.536 65.664 51.276 65.364C51.796 65.824 51.826 65.924 51.566 66.454C51.436 66.424 51.296 66.354 51.166 66.364C51.026 66.374 50.896 66.464 50.716 66.534L50.706 66.544Z" clip-rule="evenodd" fill-rule="evenodd"></path>
<path fill="#201C1A" d="M40.3459 40.9239C40.0759 40.7339 39.8959 40.6139 39.7159 40.4839C39.7159 40.2439 39.6959 40.0139 39.7159 39.7939C39.7359 39.6339 39.9759 39.4939 40.1259 39.5439C40.2659 39.5939 40.4059 39.6539 40.5359 39.7339C40.7359 39.8539 40.7859 40.0539 40.6759 40.2539C40.6159 40.3639 40.5259 40.4539 40.4659 40.5639C40.4159 40.6439 40.3959 40.7439 40.3359 40.9239H40.3459Z" clip-rule="evenodd" fill-rule="evenodd"></path>
<path fill="#201C1A" d="M48.8163 61.224C48.6563 61.044 48.5563 60.854 48.5763 60.604C48.5963 60.354 48.8263 60.174 49.0563 60.234C49.2263 60.274 49.3963 60.334 49.5563 60.404C49.8163 60.524 49.8563 60.814 49.6563 61.034C49.4163 61.304 49.1363 61.304 48.8163 61.214V61.224Z" clip-rule="evenodd" fill-rule="evenodd"></path>
<path fill="#201C1A" d="M27.796 57.414H26.986C26.876 57.224 26.776 57.054 26.686 56.904C26.716 56.654 27.026 56.344 27.206 56.404C27.416 56.464 27.646 56.564 27.796 56.714C27.946 56.884 27.906 57.134 27.796 57.414Z" clip-rule="evenodd" fill-rule="evenodd"></path>
<path fill="#201C1A" d="M38.1859 45.1939C38.2859 45.2139 38.3359 45.2239 38.3759 45.2439C38.8559 45.5239 38.8759 46.2339 38.4159 46.5039C38.2059 46.6239 37.8959 46.5039 37.8759 46.2839C37.8459 46.0139 37.8459 45.7239 37.8959 45.4639C37.9159 45.3539 38.0959 45.2739 38.1859 45.2039V45.1939Z" clip-rule="evenodd" fill-rule="evenodd"></path>
<path fill="#201C1A" d="M40.126 46.8939C40.656 47.1339 40.626 47.5239 40.586 47.9139C40.566 48.1039 40.306 48.2339 40.116 48.1739C39.696 48.0439 39.536 47.5739 39.786 47.1939C39.866 47.0739 40.006 47.0039 40.126 46.8939Z" clip-rule="evenodd" fill-rule="evenodd"></path>
<path fill="#201C1A" d="M33.4859 62.634C33.2059 62.8806 32.8926 62.9206 32.5459 62.754C32.4759 62.524 32.3959 62.284 32.3359 62.044C32.2959 61.894 32.4259 61.734 32.5959 61.754C32.7159 61.764 32.8559 61.794 32.9459 61.864C33.1859 62.054 33.4059 62.264 33.4859 62.634Z" clip-rule="evenodd" fill-rule="evenodd"></path>
<path fill="#201C1A" d="M46.7461 36.7739C46.8061 36.6439 46.8761 36.5139 46.9361 36.3739C47.2061 36.2939 47.4661 36.2139 47.7361 36.1539C47.8561 36.1239 47.9861 36.1539 48.0661 36.2839C48.1461 36.4339 48.0961 36.6339 47.9461 36.7339C47.8661 36.7939 47.7461 36.8139 47.6961 36.8839C47.6161 37.0039 47.6261 37.1839 47.4161 37.1939C47.1961 37.2139 47.0161 37.1439 46.8861 36.9739C46.8361 36.9139 46.7961 36.8539 46.7461 36.7639V36.7739Z" clip-rule="evenodd" fill-rule="evenodd"></path>
<path fill="#201C1A" d="M34.0259 56.874C34.0459 56.804 34.0559 56.754 34.0759 56.714C34.1859 56.564 34.0959 56.264 34.3759 56.254C34.6659 56.244 34.8059 56.494 34.9559 56.674C35.1159 56.864 35.1159 57.094 34.9659 57.304C34.8859 57.414 34.7559 57.504 34.6759 57.574C34.4159 57.554 34.3459 57.394 34.2559 57.234C34.1859 57.104 34.0859 56.984 34.0059 56.874H34.0259Z" clip-rule="evenodd" fill-rule="evenodd"></path>
<path fill="#201C1A" d="M33.146 37.0339C32.756 37.0539 32.496 36.8739 32.276 36.6239C32.096 36.4139 32.206 36.0939 32.466 36.0239C32.726 35.9539 33.196 36.1239 33.326 36.3639C33.366 36.4439 33.386 36.5639 33.356 36.6539C33.306 36.7939 33.216 36.9139 33.146 37.0439V37.0339Z" clip-rule="evenodd" fill-rule="evenodd"></path>
<path fill="#201C1A" d="M33.1859 43.574C33.2159 43.814 33.4659 44.034 33.1859 44.314C32.9759 44.294 32.7359 44.284 32.4959 44.244C32.2459 44.204 32.1359 43.974 32.2359 43.724C32.3759 43.354 32.5459 43.284 32.9359 43.434C33.0259 43.464 33.1059 43.534 33.1959 43.574H33.1859Z" clip-rule="evenodd" fill-rule="evenodd"></path>
<path fill="#201C1A" d="M40.4462 66.6339C40.3262 66.5039 40.2262 66.3539 40.0862 66.2639C39.9462 66.1739 39.7762 66.1339 39.5962 66.0639C39.6562 65.7539 39.8662 65.6039 40.0762 65.4839C40.3962 65.3039 40.7662 65.5439 40.7362 65.9239C40.7262 66.1239 40.6862 66.3239 40.6362 66.5139C40.6262 66.5639 40.5162 66.5839 40.4362 66.6339H40.4462Z" clip-rule="evenodd" fill-rule="evenodd"></path>
<path fill="#201C1A" d="M47.336 40.2139C47.356 40.0639 47.366 39.9239 47.396 39.7139C47.636 39.7739 47.846 39.8239 48.086 39.8739V40.7239C47.796 40.8439 47.516 40.9039 47.226 40.7239C47.026 40.6139 47.006 40.4939 47.176 40.3139C47.226 40.2639 47.296 40.2239 47.356 40.1839C47.386 40.2139 47.406 40.2539 47.436 40.2839C47.406 40.2539 47.376 40.2339 47.336 40.2039V40.2139Z" clip-rule="evenodd" fill-rule="evenodd"></path>
<path fill="#201C1A" d="M34.1763 42.2739C34.3563 42.2539 34.4963 42.2339 34.6663 42.2139C34.5963 42.0539 34.5463 41.9239 34.4863 41.7739C34.7963 41.6039 35.0863 41.8239 35.3663 41.7639C35.3963 41.7639 35.4463 41.8239 35.4663 41.8639C35.5563 42.0739 35.3563 42.5039 35.1063 42.4939C34.8963 42.4939 34.7963 42.6339 34.6463 42.6839C34.5263 42.7239 34.3363 42.6839 34.2263 42.6239C34.1663 42.5839 34.1863 42.4039 34.1763 42.2839V42.2739Z" clip-rule="evenodd" fill-rule="evenodd"></path>
<path fill="#201C1A" d="M31.7061 49.2239C31.5461 49.5639 31.4461 49.8339 31.3061 50.0939C31.2661 50.1639 31.1461 50.2239 31.0561 50.2239C30.7861 50.2339 30.3861 49.7639 30.4261 49.5039C30.4561 49.3039 30.6461 49.1539 30.8661 49.1939C31.0161 49.2139 31.1561 49.2839 31.2961 49.2939C31.4061 49.3039 31.5261 49.2639 31.7061 49.2339V49.2239Z" clip-rule="evenodd" fill-rule="evenodd"></path>
<path fill="#201C1A" d="M26.6162 34.6539C27.1262 34.1539 27.2262 34.1839 27.8362 34.8439C27.7262 34.9339 27.6162 35.0239 27.5162 35.1139C27.4262 35.1939 27.3462 35.2739 27.2562 35.3539C26.9062 35.2139 26.9162 34.8339 26.6162 34.6539Z" clip-rule="evenodd" fill-rule="evenodd"></path>
<path fill="#201C1A" d="M37.6958 64.1339C37.8758 63.9639 38.0258 63.7939 38.2158 63.6639C38.2958 63.6139 38.4558 63.6239 38.5658 63.6639C38.7258 63.7239 38.7758 63.8839 38.7458 64.0439C38.7258 64.1639 38.6558 64.2839 38.5958 64.3939C38.3758 64.7639 38.0058 64.7439 37.7858 64.3539C37.7658 64.3139 37.7558 64.2639 37.7058 64.1239L37.6958 64.1339Z" clip-rule="evenodd" fill-rule="evenodd"></path>
<path fill="#201C1A" d="M39.6958 51.494C39.7758 51.374 39.8658 51.254 39.9258 51.124C39.9758 51.024 39.9758 50.894 40.0158 50.744C40.2858 50.924 40.5058 51.074 40.7158 51.214C40.7158 51.314 40.7358 51.364 40.7158 51.404C40.4158 52.074 40.2158 52.094 39.7058 51.494H39.6958Z" clip-rule="evenodd" fill-rule="evenodd"></path>
<path fill="#201C1A" d="M31.686 45.6739C31.546 45.9539 31.316 46.1239 31.006 46.2039C30.696 46.0539 30.826 45.7039 30.646 45.5139C31.086 45.0439 31.266 45.0739 31.686 45.6739Z" clip-rule="evenodd" fill-rule="evenodd"></path>
<path fill="#201C1A" d="M37.936 41.6039C38.326 41.6839 38.496 41.9439 38.696 42.1439C38.516 42.5939 38.436 42.6339 38.116 42.4839C38.046 42.4539 37.976 42.4239 37.916 42.3839C37.696 42.2439 37.656 42.0939 37.796 41.8039C37.826 41.7339 37.886 41.6839 37.946 41.6039H37.936Z" clip-rule="evenodd" fill-rule="evenodd"></path>
<path fill="#201C1A" d="M46.916 62.8439C46.916 62.8439 46.956 62.7939 46.976 62.7939C47.016 62.8039 47.056 62.8339 47.106 62.8539C47.086 62.8739 47.066 62.9039 47.046 62.9039C47.006 62.8939 46.966 62.8639 46.916 62.8439Z" clip-rule="evenodd" fill-rule="evenodd"></path>
</g>
<path fill="#FBF9EB" d="M25.8574 27.5844C25.8574 28.952 33.1455 29.0505 39.1002 28.8973C40.3996 28.8645 51.2131 28.7879 51.2131 27.278C51.2131 25.7681 43.2357 25.8556 38.5352 25.8228C35.1567 25.8009 25.8574 26.1948 25.8574 27.5844Z"></path>
<path stroke-linejoin="round" stroke-linecap="round" stroke="#201C1A" d="M51.2131 27.278C51.2131 25.7681 43.2357 25.8556 38.5352 25.8228C35.1567 25.8009 25.8574 26.1948 25.8574 27.5844"></path>
<path stroke-linejoin="round" stroke-linecap="round" stroke="#201C1A" d="M51.2131 27.278C51.2131 27.278 48.3543 61.1086 48.1622 62.6732C47.9476 64.4457 47.0662 65.2882 45.6877 65.4304C45.6877 65.4304 35.2697 65.4851 32.3093 65.3757C30.8969 65.321 29.4845 64.2488 29.2811 62.5748C28.8404 58.8 25.8574 27.5734 25.8574 27.5734"></path>
<path stroke-linejoin="round" stroke-linecap="round" stroke="#201C1A" d="M50.6821 32.5408C48.5578 32.4423 46.3205 32.9237 44.2641 33.5474C40.8178 34.5868 37.3489 36.0201 33.7557 35.6809C31.8913 35.5059 30.0947 34.8603 28.2304 34.6634C27.7671 34.6196 27.2812 34.6087 26.8066 34.6415"></path>
<path fill="#FBF9EB" d="M47.1877 31.386L41.3263 25.0714C41.0843 24.8107 40.67 24.7894 40.4008 25.0236L33.8796 30.6994C33.6104 30.9337 33.5883 31.3349 33.8303 31.5956L39.6917 37.9102C39.9336 38.1708 40.348 38.1922 40.6172 37.9579L47.1384 32.2822C47.4076 32.0479 47.4297 31.6467 47.1877 31.386Z"></path>
<path stroke-linejoin="round" stroke-linecap="round" stroke="#201C1A" d="M47.1877 31.386L41.3263 25.0714C41.0843 24.8107 40.67 24.7894 40.4008 25.0236L33.8796 30.6994C33.6104 30.9337 33.5883 31.3349 33.8303 31.5956L39.6917 37.9102C39.9336 38.1708 40.348 38.1922 40.6172 37.9579L47.1384 32.2822C47.4076 32.0479 47.4297 31.6467 47.1877 31.386Z"></path>
<path fill="#FBF9EB" d="M38.3785 37.3151L29.8121 39.1267C29.4585 39.2015 29.2345 39.5397 29.3117 39.8821L31.1826 48.177C31.2598 48.5194 31.6091 48.7364 31.9627 48.6616L40.529 46.85C40.8827 46.7752 41.1067 46.437 41.0295 46.0946L39.1586 37.7996C39.0814 37.4572 38.7321 37.2403 38.3785 37.3151Z"></path>
<path stroke-linejoin="round" stroke-linecap="round" stroke="#201C1A" d="M38.3785 37.3151L29.8121 39.1267C29.4585 39.2015 29.2345 39.5397 29.3117 39.8821L31.1826 48.177C31.2598 48.5194 31.6091 48.7364 31.9627 48.6616L40.529 46.85C40.8827 46.7752 41.1067 46.437 41.0295 46.0946L39.1586 37.7996C39.0814 37.4572 38.7321 37.2403 38.3785 37.3151Z"></path>
<path fill="#FBF9EB" d="M44.6324 50.3336L36.6798 46.7575C36.3516 46.6098 35.9619 46.7479 35.8094 47.0657L32.1163 54.7663C31.9638 55.0842 32.1064 55.4616 32.4346 55.6092L40.3872 59.1853C40.7155 59.333 41.1052 59.1949 41.2576 58.8771L44.9507 51.1765C45.1032 50.8586 44.9607 50.4812 44.6324 50.3336Z"></path>
<path stroke-linejoin="round" stroke-linecap="round" stroke="#201C1A" d="M44.6324 50.3336L36.6798 46.7575C36.3516 46.6098 35.9619 46.7479 35.8094 47.0657L32.1163 54.7663C31.9638 55.0842 32.1064 55.4616 32.4346 55.6092L40.3872 59.1853C40.7155 59.333 41.1052 59.1949 41.2576 58.8771L44.9507 51.1765C45.1032 50.8586 44.9607 50.4812 44.6324 50.3336Z"></path>
<path stroke-linejoin="round" stroke-linecap="round" stroke="#201C1A" d="M25.8574 27.5844C25.8574 28.952 33.1455 29.0505 39.1002 28.8973C40.3996 28.8645 51.2131 28.7879 51.2131 27.278"></path>
<path stroke-linejoin="round" stroke-linecap="round" stroke="#201C1A" fill="#FBF9EB" d="M61.6218 17.7964L56.3279 20.4668L55.9052 26.3847L53.2348 21.0908L47.3169 20.6681L52.6108 17.9977L53.0335 12.0798L55.7039 17.3737L61.6218 17.7964Z"></path>
</svg>
