<svg text-rendering="geometricPrecision" shape-rendering="geometricPrecision" viewBox="0 0 160 160" xmlns:xlink="http://www.w3.org/1999/xlink" xmlns="http://www.w3.org/2000/svg" id="eOYQfWEqkP91">
<style>
#eOYQfWEqkP940_to {animation: eOYQfWEqkP940_to__to 3000ms linear infinite normal forwards}@keyframes eOYQfWEqkP940_to__to { 0% {transform: translate(80.560306px,116.2355px);animation-timing-function: cubic-bezier(0,0,0.58,1)} 10% {transform: translate(80.560306px,109.571992px)} 26.666667% {transform: translate(80.560306px,109.571992px);animation-timing-function: cubic-bezier(0.42,0,1,1)} 36.666667% {transform: translate(80.560306px,116.2355px)} 100% {transform: translate(80.560306px,116.2355px)}} #eOYQfWEqkP940_tr {animation: eOYQfWEqkP940_tr__tr 3000ms linear infinite normal forwards}@keyframes eOYQfWEqkP940_tr__tr { 0% {transform: rotate(0deg)} 3.333333% {transform: rotate(0deg)} 13.333333% {transform: rotate(-2.408748deg)} 16.666667% {transform: rotate(-0.625962deg)} 20% {transform: rotate(-2.733966deg)} 23.333333% {transform: rotate(-0.706843deg)} 33.333333% {transform: rotate(0deg)} 100% {transform: rotate(0deg)}} #eOYQfWEqkP940_ts {animation: eOYQfWEqkP940_ts__ts 3000ms linear infinite normal forwards}@keyframes eOYQfWEqkP940_ts__ts { 0% {transform: scale(1,1);animation-timing-function: cubic-bezier(0,0,0.58,1)} 10% {transform: scale(0.98,1.02)} 26.666667% {transform: scale(0.98,1.02);animation-timing-function: cubic-bezier(0.42,0,1,1)} 36.666667% {transform: scale(1,1)} 100% {transform: scale(1,1)}} #eOYQfWEqkP9179_to {animation: eOYQfWEqkP9179_to__to 3000ms linear infinite normal forwards}@keyframes eOYQfWEqkP9179_to__to { 0% {transform: translate(80.28855px,74.3999px)} 6.666667% {transform: translate(80.28855px,74.3999px);animation-timing-function: cubic-bezier(0,0,0.58,1)} 13.333333% {transform: translate(80.28855px,68.992058px)} 33.333333% {transform: translate(80.28855px,68.992058px);animation-timing-function: cubic-bezier(0.42,0,1,1)} 40% {transform: translate(80.28855px,74.3999px)} 100% {transform: translate(80.28855px,74.3999px)}} #eOYQfWEqkP9179_tr {animation: eOYQfWEqkP9179_tr__tr 3000ms linear infinite normal forwards}@keyframes eOYQfWEqkP9179_tr__tr { 0% {transform: rotate(0deg)} 6.666667% {transform: rotate(0deg)} 13.333333% {transform: rotate(-4.949482deg)} 33.333333% {transform: rotate(-4.949482deg)} 40% {transform: rotate(0deg)} 100% {transform: rotate(0deg)}}
</style>
<path stroke="#201c1a" fill="#b6e242" d="M80,0.5c43.907,0,79.5,35.5942,79.5,79.502c0,43.908-35.593,79.502-79.5,79.502-43.9066,0-79.5-35.594-79.5-79.502C0.50007,36.0942,36.0934,0.5,80,0.5Z"></path><g><path fill="#201c1a" d="M15.683,90.5936l-.8478-8.5112l2.5281-.2593.5298,5.3691l3.3305-.3356-.4542-4.6064l2.5281-.2593.4542,4.6064l6.3278-.6406.3179,3.1421L15.683,90.5936Z"></path><path fill="#201c1a" d="M14.7896,79.2473l.3633-4.4081c.0757-.9.3027-1.7084.6963-2.4558s.9235-1.3117,1.6047-1.7388s1.4987-.5949,2.4221-.5186c.8781.0762,1.6047.3508,2.2102.8389s.9689,1.1135,1.1203,1.9066c.1816-.6101.4995-1.0372.9385-1.2507.4542-.2136,1.0143-.3509,1.6955-.3661.2271-.0305.4996-.0305.8326,0c.8781,0,1.5896-.0153,2.1497-.061.545-.0458,1.0445-.1526,1.5138-.3508l-.2876,3.4929c-.3179.0458-.651.0763-1.0294.0915-.3633,0-.7721,0-1.1959,0-.3482,0-.6813-.0152-.9992-.0152s-.6358.0152-.9537.0457c-.5904.0458-1.0294.2593-1.3322.6101-.3027.3509-.4693.8237-.5147,1.4033l-.0302.4119l5.8131.4881-.2574,3.1421-14.7447-1.2355-.0151-.0305Zm6.358-5.2318c-.3179-.3508-.772-.5644-1.3624-.6101-.6055-.0458-1.09.0762-1.4684.366s-.5753.7169-.6207,1.2813l-.106,1.2507l3.8603.3204.106-1.2508c.0454-.5491-.0908-1.0067-.4088-1.3575Z"></path><path fill="#201c1a" d="M30.2903,68.1744c-.878.7016-1.9528,1.1287-3.2093,1.2812s-2.6038,0-4.0419-.4271c-1.4382-.4423-2.6341-1.0677-3.5878-1.8914-.9537-.8236-1.6198-1.7846-1.968-2.8675s-.3482-2.2117,0-3.3709c.3482-1.1745.9689-2.105,1.8469-2.8218.878-.7169,1.9528-1.1288,3.2093-1.2813s2.6038,0,4.0419.4271c1.4382.4423,2.6341,1.0677,3.5878,1.9066.9689.8237,1.6198,1.7846,1.968,2.8676s.3482,2.2117,0,3.3709c-.3482,1.1745-.9688,2.1049-1.8469,2.8218v-.0152Zm-.7417-5.2471c-.2725-.5491-.757-1.0524-1.423-1.51s-1.4836-.8237-2.4676-1.1135c-.9688-.2898-1.862-.4423-2.6643-.4423-.8024,0-1.4685.1525-2.0134.4575-.5299.3051-.8932.7474-1.0597,1.3118-.1665.5796-.1211,1.1287.1514,1.6931.2724.5491.7569,1.0525,1.423,1.51.666.4424,1.4987.8237,2.4675,1.1135.9689.3051,1.862.4424,2.6644.4424s1.4684-.1526,2.0134-.4576.8931-.7474,1.0596-1.3118c.1666-.5796.1211-1.1287-.1513-1.6931Z"></path><path fill="#201c1a" d="M20.9675,51.6676l1.862-3.1116l9.0225,2.0592-5.9948-7.0927l1.8469-3.0811l12.6556,7.718-1.5289,2.5625-3.8149-2.3184c-.9234-.5644-1.8015-1.1287-2.6341-1.7084-.8477-.5796-1.7712-1.2812-2.7854-2.1201l5.7223,6.7266-1.2717,2.1201-8.432-1.9219c2.3313,1.0983,4.2387,2.105,5.7374,3.0201l3.8149,2.3185-1.529,2.5625-12.6556-7.718-.0152-.0153Z"></path><path fill="#201c1a" d="M34.3933,33.0457l6.4035-5.6284l1.6652,1.9371-4.0419,3.554l2.1951,2.5472l3.4666-3.0353l1.6653,1.9371-3.4667,3.0354l4.1782,4.8352-2.3616,2.0744-9.7037-11.2415v-.0152Z"></path><path fill="#201c1a" d="M48.7461,22.3817l10.839,10.8297-2.8157,1.7083-8.6743-8.801l3.6181,11.8516-2.7401,1.6626-4.4052-14.7192l4.1782-2.532Zm-.6359,10.6314l6.0856-3.676l1.3019,2.1964-6.0856,3.676-1.3019-2.1964Z"></path><path fill="#201c1a" d="M54.5881,19.376l4.1479-1.4338c.8478-.2898,1.6804-.3966,2.4979-.3356s1.5743.3204,2.2253.7932c.6509.4728,1.1354,1.144,1.4381,2.0286.2877.839.3179,1.6321.1211,2.3795s-.6358,1.3423-1.2867,1.7999c.6358-.0763,1.1354.0457,1.5138.366s.7267.8085,1.0143,1.4186c.106.1983.2271.4576.3482.7626.3482.8084.6509,1.4643.9083,1.9524.2573.4881.5601.9152.9234,1.2508l-3.285,1.1287c-.1665-.2746-.3331-.5796-.4844-.9152s-.3179-.7016-.4693-1.0982c-.1211-.3356-.2574-.6406-.3785-.9305s-.2725-.5796-.4239-.8694c-.2876-.5186-.6358-.8389-1.0899-.9762-.439-.1372-.9386-.1067-1.4836.0763l-.3784.1373l1.8923,5.5521-2.9672,1.0219-4.7837-14.109Zm7.2967,3.7675c.1968-.4424.1968-.9305,0-1.5101s-.4996-.9762-.9234-1.205-.8932-.244-1.4079-.061l-1.1808.4119l1.2565,3.6912l1.1808-.4118c.5147-.1831.878-.4881,1.0748-.9305v.0153Z"></path><path fill="#201c1a" d="M67.4399,15.2305l3.5878-.3508l3.7392,8.5264l2.0739-9.0755l3.5576-.3356l1.4078,14.8412-2.952.2898-.4238-4.4691c-.106-1.083-.1666-2.1355-.212-3.1574-.0454-1.022-.0302-2.1965.0303-3.5235l-1.9528,8.6332-2.4524.2288-3.497-7.962c.5147,2.5472.8477,4.6826,1.0143,6.452l.4238,4.4691-2.9519.2898-1.4079-14.8412.0151-.0152Z"></path><path fill="#201c1a" d="M92.4352,18.0667L88.802,17.243l.5601-2.5015l10.3395,2.349-.5601,2.5015-3.6332-.8237-2.6946,12.0346-3.058-.7016l2.6946-12.0346h-.0151Z"></path><path fill="#201c1a" d="M98.3239,31.7468c-.5753-.9762-.8629-2.1049-.8477-3.3709.0151-1.2812.333-2.593.9537-3.981.6206-1.3728,1.3927-2.4863,2.3461-3.3404.939-.8542,1.968-1.3728,3.073-1.5864c1.105-.1982,2.211-.061,3.316.4576c1.105.5034,1.953,1.2508,2.528,2.227s.863,2.1049.848,3.3709c-.016,1.2812-.334,2.593-.954,3.9658-.621,1.3727-1.393,2.4862-2.347,3.3404-.938.8542-1.968,1.3728-3.073,1.5863s-2.21.061-3.315-.4576c-1.1051-.5033-1.9528-1.2507-2.5281-2.2269v.0152Zm5.2681-.0457c.575-.1983,1.135-.6102,1.665-1.2203s.999-1.388,1.423-2.3184c.424-.9305.681-1.7999.787-2.6083s.046-1.4948-.181-2.0744-.621-.9915-1.151-1.2355-1.105-.2746-1.68-.061-1.135.6101-1.665,1.2202-.999,1.388-1.423,2.3185c-.424.9304-.682,1.7998-.787,2.6082-.106.8085-.046,1.4948.181,2.0745s.621.9914,1.151,1.2354s1.105.2746,1.68.0611Z"></path><path fill="#201c1a" d="M120.455,28.1357l2.316,2.1354-9.991,10.9974-2.316-2.1354l9.991-10.9974Zm-4.208,7.2909l9.582-2.3337l2.725,2.5015-14.094,2.9591l1.787-3.1269Zm2.694.5491l2.998.8084-3.285,9.9145-2.619-2.4252l2.906-8.2977Z"></path><path fill="#201c1a" d="M130.173,37.6832l5.041,6.8943-2.043,1.5253-3.18-4.3471-2.694,1.9982l2.725,3.737-2.044,1.5253-2.725-3.737-3.073,2.2879l3.225,4.3929-2.044,1.5253-5.087-6.9401l11.914-8.8468-.015-.0152Z"></path><path fill="#201c1a" d="M135.912,51.1804l-1.62-3.3861l2.286-1.1135l4.602,9.6094-2.286,1.1135-1.619-3.3862-11.036,5.369-1.363-2.8523l11.036-5.369v.0152Z"></path><path fill="#201c1a" d="M140.363,62.439l-.938-3.6302l2.452-.6559l2.695,10.3263-2.453.6559-.953-3.6303-11.854,3.1269-.802-3.0506l11.853-3.1269v-.0152Z"></path><path fill="#201c1a" d="M144.859,71.1183l.242,3.1574-12.217.9305.394,5.308-2.544.1983-.635-8.4502l14.744-1.1134.016-.0306Z"></path><path fill="#201c1a" d="M145.434,82.2225l-.818,8.5264-2.528-.244.515-5.3843-3.331-.3204-.439,4.6065-2.528-.2441.439-4.6064-3.799-.3661-.53,5.4453-2.528-.244.817-8.5874l14.73,1.4337v-.0152Z"></path><path fill="#201c1a" d="M19.9822,110.366l6.5246-3.57l2.2708,4.21-1.1657.641-1.5744-2.929-1.5592.854l1.317,2.441-1.1657.64-1.317-2.44-2.6189,1.434-.6964-1.281h-.0151Z"></path><path fill="#201c1a" d="M23.085,115.961l6.131-4.21l1.5592,2.288c.2877.442.4693.885.5299,1.327s0,.869-.1665,1.266-.4391.717-.8327.992c-.3784.259-.7871.396-1.2262.411-.439,0-.8477-.091-1.2413-.32s-.7418-.564-1.0445-.991l-.7115-1.038-2.1648,1.495-.8175-1.205-.0151-.015Zm2.301,3.401l1.4987-3.127l1.2867.473-1.8468,4.012-.9235-1.373-.0151.015Zm1.7863-4.438l.7418,1.098c.1211.183.2725.32.439.412.1665.091.3633.137.545.122.1968,0,.3784-.061.545-.183.2573-.183.4087-.427.439-.732.0302-.305-.0454-.611-.2574-.9l-.6963-1.038-1.7712,1.221h.0151Z"></path><path fill="#201c1a" d="M29.4581,124.718c-.4996-.564-.8023-1.174-.9386-1.83s-.0908-1.296.1363-1.922c.2119-.625.6055-1.19,1.1807-1.693.5602-.503,1.1657-.808,1.8166-.946.651-.137,1.2868-.091,1.8923.122.6207.214,1.1657.611,1.6653,1.175.4844.564.8023,1.174.9234,1.815.1362.656.0908,1.296-.1363,1.922-.227.625-.6055,1.19-1.1807,1.693-.5602.488-1.1657.808-1.8015.946-.651.137-1.2716.106-1.8923-.107-.6207-.214-1.1808-.595-1.6652-1.159v-.016Zm.984-.869c.2876.336.6358.564,1.0294.686s.7872.122,1.1959.031c.4087-.107.8023-.32,1.1657-.641.3633-.32.6206-.686.772-1.083.1514-.396.1968-.793.1211-1.205-.0605-.412-.2573-.778-.5601-1.128-.2876-.336-.6358-.565-1.0294-.687s-.8023-.137-1.2111-.03c-.4087.106-.8023.32-1.1808.64-.3633.321-.6206.687-.772,1.083-.1514.397-.1968.809-.1211,1.22.0757.412.2573.794.5601,1.144l.0303-.03Z"></path><path fill="#201c1a" d="M33.3184,128.774l4.8594-5.644l1.1959,1.037-.4693,3.859l3.724-1.006l1.1808,1.037-4.8594,5.644-1.0899-.946l3.3758-3.92-3.936,1.052.4693-4.072-3.3607,3.92-1.0899-.961Z"></path><path fill="#201c1a" d="M43.0522,136.661l3.7392-6.452l1.3625.808.2573,3.874l3.4818-1.677l1.3473.793-3.7391,6.452-1.2414-.732l2.6038-4.485-3.6786,1.77-.2876-4.088-2.5887,4.469-1.2565-.732Z"></path><path fill="#201c1a" d="M54.6637,142.869c-.6964-.29-1.2414-.686-1.6501-1.22-.4088-.519-.651-1.114-.7418-1.785-.0757-.656.0151-1.342.3028-2.044.2876-.701.6812-1.25,1.211-1.662.5147-.412,1.1051-.656,1.7561-.748.6509-.091,1.317,0,1.9982.29s1.2262.687,1.635,1.205c.4087.519.6509,1.114.7266,1.785.0757.656-.0151,1.342-.3028,2.044-.2876.686-.6812,1.25-1.1959,1.662s-1.1051.671-1.7409.763c-.6509.091-1.317,0-1.9982-.29Zm.4995-1.235c.4088.167.8175.213,1.2262.152s.7569-.244,1.09-.518c.3179-.275.5752-.641.7569-1.099.1817-.457.2574-.9.2119-1.327s-.1816-.808-.4238-1.144c-.2422-.335-.5753-.579-.9992-.762-.4087-.168-.8174-.214-1.2262-.153-.4087.061-.772.244-1.0899.503-.3179.275-.5753.641-.7721,1.099-.1816.457-.2573.9-.2119,1.327s.1816.808.4239,1.144c.2422.335.5752.595.9991.762l.0151.016Z"></path><path fill="#201c1a" d="M62.6259,145.601c-.5904-.168-1.0748-.412-1.4533-.762-.3784-.351-.6207-.778-.7418-1.251-.1211-.488-.1059-1.022.0455-1.602l1.211-4.53l1.4079.382-1.2111,4.53c-.0757.305-.0908.595-.0303.854.0606.259.1968.488.3936.671s.4542.32.757.397c.3027.076.5903.091.8477.03s.4844-.183.6812-.381c.1817-.199.3179-.443.4088-.763l1.211-4.53l1.4079.381-1.2111,4.53c-.1514.58-.4087,1.053-.7569,1.404-.3482.35-.7872.595-1.2868.701-.4995.122-1.0596.092-1.65-.076l-.0303.015Z"></path><path fill="#201c1a" d="M67.6978,146.684l.9991-7.413l1.4987.214l2.9217,5.46.6812-4.972l1.423.198-.9991,7.398-1.423-.198-2.9671-5.568-.6813,5.064-1.4381-.198-.0151.015Z"></path><path fill="#201c1a" d="M77.9175,147.737l.1362-6.132-2.2253-.046.0302-1.342l5.8889.137-.0303,1.343-2.2102-.046-.1363,6.131-1.4532-.03v-.015Z"></path><path fill="#201c1a" d="M81.5801,147.857l2.3616-7.672l1.4532-.107-2.2707,7.673-1.529.122-.0151-.016Zm1.2565-1.754l-.0909-1.281l4.6324-.351.0908,1.282-4.6323.35Zm4.5869,1.312l-3.391-7.245l1.4533-.107l3.4666,7.23-1.5289.122Z"></path><path fill="#201c1a" d="M90.1942,147.019l-1.1808-7.382l1.4382-.229l1.1808,7.382-1.4382.229Z"></path><path fill="#201c1a" d="M93.6603,146.487l-1.8317-7.245l1.4684-.382l4.7383,3.951-1.2262-4.866l1.3928-.366l1.8321,7.245-1.3931.366-4.8292-4.042l1.2565,4.957-1.4079.367v.015Z"></path><path fill="#201c1a" d="M104.455,143.342c-.349.137-.697.213-1.03.259-.333.03-.651,0-.954-.046-.302-.061-.56-.168-.787-.29s-.409-.289-.53-.488l1.166-.915c.167.198.394.32.681.412.273.076.591.061.924-.061.348-.122.605-.32.772-.564.166-.245.197-.489.091-.748-.091-.213-.243-.366-.47-.457-.227-.077-.514-.107-.847-.061l-.984.106c-.364.046-.712.031-1.045-.045-.318-.077-.606-.214-.848-.412-.242-.199-.439-.473-.56-.824-.2572-.656-.2269-1.251.061-1.785.287-.533.832-.96,1.62-1.266.439-.167.847-.259,1.241-.259.378,0,.726.076,1.044.229.318.152.591.366.833.641l-1.166.915c-.166-.199-.378-.336-.651-.412-.272-.076-.575-.061-.893.076-.333.122-.56.305-.696.534s-.136.473-.03.763c.09.213.227.366.423.427.197.061.439.091.712.046l.999-.122c.651-.092,1.211-.001,1.68.244.47.244.803.61.984,1.067.152.412.197.809.122,1.19-.076.381-.273.732-.591,1.052-.318.321-.726.58-1.271.794Z"></path><path fill="#201c1a" d="M112.28,139.543l-2.967-5.353-1.938,1.098-.651-1.159l5.147-2.899.651,1.16-1.938,1.083l2.967,5.353-1.271.717Z"></path><path fill="#201c1a" d="M119.593,135.062c-.605.443-1.241.702-1.892.763-.666.076-1.287-.031-1.893-.305-.605-.275-1.12-.717-1.559-1.342-.439-.61-.696-1.251-.772-1.907s.03-1.296.303-1.891c.272-.595.711-1.114,1.302-1.556.59-.443,1.226-.687,1.892-.763.651-.076,1.287.031,1.892.321.606.274,1.121.716,1.56,1.342.439.61.696,1.235.772,1.891.075.656-.015,1.297-.288,1.892-.272.594-.696,1.128-1.302,1.555h-.015Zm-.787-1.083c.363-.259.621-.579.772-.961.151-.381.197-.777.136-1.205-.06-.427-.242-.838-.53-1.235-.287-.397-.62-.686-.999-.885-.378-.198-.772-.274-1.181-.244-.408.031-.802.183-1.165.443-.364.259-.621.579-.772.96-.152.382-.212.778-.152,1.205.061.428.227.839.53,1.236.288.397.621.686.999.885.379.183.772.274,1.196.228.424-.045.803-.183,1.181-.457l-.015.03Z"></path><path fill="#201c1a" d="M125.997,129.721l-5.344-5.186l1.09-1.144l3.8.671-.802-3.813l1.09-1.144l5.343,5.186-.999,1.052-3.709-3.6.833,4.012-4.012-.686l3.709,3.599-1.014,1.053h.015Z"></path><path fill="#201c1a" d="M134.412,120.281c-.364.503-.772.854-1.242,1.083-.454.229-.938.305-1.438.244-.499-.061-.984-.275-1.453-.626l-3.739-2.776.863-1.174l3.739,2.776c.257.183.515.305.787.336.273.03.53,0,.772-.123.242-.122.454-.305.651-.564.182-.259.303-.518.333-.793.046-.275,0-.519-.106-.778-.106-.244-.303-.473-.56-.656l-3.739-2.776.863-1.174l3.739,2.776c.484.351.817.762,1.014,1.22s.258.946.182,1.464c-.076.519-.303,1.022-.666,1.526v.015Z"></path><path fill="#201c1a" d="M139.03,113.035c-.378.656-.847,1.175-1.423,1.525-.575.351-1.195.534-1.862.534-.666,0-1.317-.183-1.968-.549-.65-.366-1.15-.839-1.483-1.418-.333-.58-.515-1.205-.5-1.877c0-.671.182-1.342.56-2.013.228-.397.485-.732.788-.991.302-.275.635-.473.984-.611.348-.137.711-.228,1.074-.244l.061,1.404c-.227,0-.454.061-.681.167-.227.107-.424.229-.621.397-.182.168-.333.351-.454.549-.227.412-.333.824-.333,1.251s.121.824.348,1.19.56.671.984.915.848.366,1.287.381c.424,0,.832-.091,1.196-.305.363-.213.666-.534.908-.961.182-.32.288-.656.303-.991.015-.336-.061-.641-.197-.915-.151-.275-.378-.504-.681-.687l.499-1.312c.606.351,1.06.763,1.348,1.266.287.504.424,1.022.393,1.602-.03.58-.197,1.144-.514,1.724l-.016-.031Zm-2.467-1.678l-.984-.564l1.529-2.73.787.442-.182.808-1.15,2.044Z"></path></g><path stroke-linejoin="round" stroke-linecap="round" stroke="#201c1a" fill="none" d="M52.0758,109.782c-3.7543-3.127-8.1293-5.461-12.7919-6.849c3.3659-1.227,9.5372-.564,13.9424,1.602-1.6046-2.578-3.8602-4.744-6.5094-6.2083c4.9199.2898,9.749,2.1963,13.5336,5.3843-.3633-1.571-1.1505-3.051-2.2556-4.2251c4.0571-.0305,7.9476,3.0051,8.9316,6.9711"></path><path stroke-linejoin="round" stroke-linecap="round" stroke="#201c1a" fill="none" d="M94.7661,108.379c3.2245-4.698,7.8569-8.4045,13.1399-10.5094-1.635,1.7389-2.664,4.0264-2.891,6.4064c2.634-2.425,5.843-4.179,9.295-5.0946-1.272,1.3426-2.089,3.1116-2.301,4.9576c2.482-1.632,5.298-2.746,8.22-3.234-2.907,2.608-5.314,5.781-7.055,9.304"></path><g transform="translate(80.560306,116.2355)" id="eOYQfWEqkP940_to"><g transform="rotate(0)" id="eOYQfWEqkP940_tr"><g transform="scale(1,1)" id="eOYQfWEqkP940_ts"><g transform="translate(-80.560288,-116.23549)"><path fill="#fffefb" d="M97.5422,49.8093c-5.0665-4.0258-11.8173-4.0532-17.5138-4.0669-5.6827.0137-12.4335.0411-17.5001,4.0669-5.3952,4.2997-7.1205,12.8718-4.4366,16.5964c1.1639,1.6158,1.7527,3.0536,2.0814,4.3271l-.7258-.4108-.8079,1.2734v4.4778l2.2868,3.3001l1.3009-2.1362c-.2739-.3697-.671-.8764-1.0133-1.3283c2.4374-3.2316.9722-6.8603-.9038-10.4343-1.7938-3.4507-.8901-10.2289,3.9437-13.7892c4.5462-3.3412,10.626-3.3412,15.7473-3.3412s11.1875,0,15.7337,3.3412c4.8473,3.5603,5.7513,10.3385,3.9437,13.7892-1.9308,3.7109-2.9167,7.3807-.1643,9.6264c0,0-1.0955,1.4105-1.6569,2.1362l1.6158,1.6843l1.972-2.8619v-4.4778l-.808-1.2734-.6984.2738c.3284-1.2324.9314-2.6291,2.0544-4.1764c2.683-3.7246.944-12.2967-4.4371-16.5964h-.0137Z"></path><path fill="#fffefb" d="M93.5166,109.786c-.0821,1.328-.3012,3.916-.3697,5.245-7.8463,2.04-19.1022,1.753-25.7846-.493v-4.752"></path><path stroke-linejoin="round" stroke-linecap="round" stroke="#201c1a" fill="none" d="M93.5166,109.786c-.0821,1.328-.3012,3.916-.3697,5.245-7.8463,2.04-19.1022,1.753-25.7846-.493v-4.752"></path><path fill="#fffefb" d="M102.157,97.7497c5.587.1232,11.133-3.1769,11.188-10.8178.041-4.957.246-6.2304,3.615-10.4069-1.069.0137-2.424-.4108-4.752.8627-.383-1.0955.466-2.9989.616-4.2997-2.068.6846-5.313,1.4788-5.45,6.8056-.068,2.41.014,4.9843-1.068,7.0931s-3.875,2.903-4.957.8353"></path><path stroke-linejoin="round" stroke-linecap="round" stroke="#201c1a" fill="none" d="M102.157,97.7497c5.587.1232,11.133-3.1769,11.188-10.8178.041-4.957.246-6.2304,3.615-10.4069-1.069.0137-2.424-.4108-4.752.8627-.383-1.0955.466-2.9989.616-4.2997-2.068.6846-5.313,1.4788-5.45,6.8056-.068,2.41.014,4.9843-1.068,7.0931s-3.875,2.903-4.957.8353"></path><path stroke-linejoin="round" stroke-linecap="round" stroke="#201c1a" fill="#fffefb" d="M65.6368,73.4029l-5.669,7.367c-.5615,4.1902-.8627,17.5001-.4519,21.7721.4519,4.752,1.3282,6.902,5.135,8.23c5.0528,1.753,12.3103,2.328,15.3502,2.314c4.9296-.013,10.5576-.205,15.3092-1.41c4.7517-1.205,6.2307-2.78,6.4357-8.093.233-5.669-.397-17.281-1.123-23.0732l-5.9974-6.8741c-1.1568-1.9482-7.9381-1.9794-15.1568-1.9482-7.2188.0312-12.4688.6562-13.8183,1.7017l-.0137.0137Z"></path><path stroke-linejoin="round" stroke-linecap="round" stroke="#201c1a" fill="none" d="M94.6256,73.6494c0,0-2.2184.7395-13.6934.849-13.1182.1232-15.2955-.671-15.2955-.671"></path><g mask="url(#eOYQfWEqkP966)"><g><path fill-rule="evenodd" fill="#201c1a" clip-rule="evenodd" d="M70.185,72.5899c-.53.01-.86-.38-.71-.9.05-.17.13-.34.24-.47.33-.43.66-.38.93.12.18.33.09.69-.01,1.03-.06.2-.25.23-.44.23l-.01-.01Z"></path><path fill-rule="evenodd" fill="#201c1a" clip-rule="evenodd" d="M68.3749,74.55c-.12-.16-.23-.3-.33-.44-.09-.12-.17-.25-.25-.37c0-.37.3-.5.52-.68.15-.12.3-.18.48-.06.27.18.35.36.28.63-.02.1-.1.19-.1.28.01.38-.21.55-.62.64h.02Z"></path><path fill-rule="evenodd" fill="#201c1a" clip-rule="evenodd" d="M65.9351,71.9999c.05-.56.06-.58.76-.89.21.08.4.22.42.47.01.14-.02.31-.09.43-.08.12-.22.23-.35.26-.29.08-.54-.04-.74-.26v-.01Z"></path><path fill-rule="evenodd" fill="#201c1a" clip-rule="evenodd" d="M94.685,74.3699c-.71.25-1.09-.1-1.35-.69.1-.15.2-.33.29-.47.41-.04.78-.07,1.18-.1.15.45.17.87-.12,1.26Z"></path><path fill-rule="evenodd" fill="#201c1a" clip-rule="evenodd" d="M91.5549,71.7501c.01-.08.01-.13.03-.18.04-.09.1-.18.16-.29.16-.03.33-.07.49-.11.17-.04.33-.08.48-.11.4.36.41.72.17,1.12-.17.28-.51.35-.78.15-.06-.04-.12-.1-.17-.15-.14-.15-.27-.29-.39-.43h.01Z"></path><path fill-rule="evenodd" fill="#201c1a" clip-rule="evenodd" d="M91.345,73.63c-.13.17-.2.37-.34.43-.24.11-.52.15-.79.2-.06.01-.15-.04-.19-.1-.04-.05-.05-.14-.08-.21-.06-.15-.31-.19-.25-.42.07-.23.26-.28.45-.34.61-.2.61-.2,1.19.44h.01Z"></path><path fill-rule="evenodd" fill="#201c1a" clip-rule="evenodd" d="M88.0651,72.3699c-.02-.32-.04-.59-.07-.89.2-.09.37-.19.56-.25.43-.14.65-.02.82.41.03.09.06.19.09.28-.16.23-.32.46-.48.68-.11.15-.31.18-.48.09-.02-.01-.04-.02-.06-.04-.12-.09-.24-.18-.37-.28h-.01Z"></path><path fill-rule="evenodd" fill="#201c1a" clip-rule="evenodd" d="M84.145,71.86c.17-.22.31-.42.46-.62.27.06.51.09.75.17.1.03.2.16.24.26.09.25-.1.66-.33.76-.66.29-.78.23-1.12-.57Z"></path><path fill-rule="evenodd" fill="#201c1a" clip-rule="evenodd" d="M86.7749,72.9199c.27.15.51.27.77.41-.1.49-.14.95-.73,1.07-.36-.1266-.6233-.39-.79-.79.13-.09.27-.19.4-.3.11-.1.2-.22.35-.39Z"></path><path fill-rule="evenodd" fill="#201c1a" clip-rule="evenodd" d="M80.4451,72.4401c.05-.33.02-.57.12-.71.17-.24.42-.43.66-.62.05-.04.2,0,.28.03.32.18.45.58.3.92-.03.06-.09.12-.15.16s-.14.05-.22.06c-.29.05-.58.09-1,.15l.01.01Z"></path><path fill-rule="evenodd" fill="#201c1a" clip-rule="evenodd" d="M78.8052,73.1099c.25-.02.45-.05.64-.04.28.02.47.2.55.46.1.32-.02.65-.27.81-.19.12-.4.13-.58.03s-.3-.23-.24-.5c.04-.2-.05-.44-.1-.77v.01Z"></path><path fill-rule="evenodd" fill="#201c1a" clip-rule="evenodd" d="M83.2549,74.3999c-.3534-.2066-.6034-.4366-.75-.69.07-.42.32-.6699.74-.7599.05.02.1.0199.14.0499.64.58.61.86-.13,1.4Z"></path><path fill-rule="evenodd" fill="#201c1a" clip-rule="evenodd" d="M77.755,71.1001c.3.15.42.39.53.65.08.19.04.37-.12.47-.43.26-.62.34-.98-.08-.1-.11-.2-.21-.32-.34.19-.37.48-.58.89-.7Z"></path><path fill-rule="evenodd" fill="#201c1a" clip-rule="evenodd" d="M76.485,73.86c-.05.05-.11.18-.21.22-.23.09-.48.15-.72.19-.27.05-.5-.24-.38-.48.09-.18.2-.33.22-.54.01-.11.19-.22.32-.29.07-.04.23-.02.28.03.18.23.34.49.5.74.01.02,0,.05,0,.14l-.01-.01Z"></path><path fill-rule="evenodd" fill="#201c1a" clip-rule="evenodd" d="M71.375,73.4201c.26-.2933.57-.4833.93-.57.29.11.36.39.49.68-.1.26-.2.54-.32.82-.06.15-.19.24-.36.23-.23,0-.47-.18-.52-.36-.08-.26-.15-.53-.22-.79v-.01Z"></path><path fill-rule="evenodd" fill="#201c1a" clip-rule="evenodd" d="M73.2852,71.4502c.24-.05.41-.1101.58-.1201.43-.04.63.19.58.64-.01.12-.03.25-.04.36-.23.15-.46.17-.66.03-.28-.19-.43-.48-.46-.9v-.0099Z"></path></g><mask width="400%" height="400%" y="-150%" x="-150%" id="eOYQfWEqkP966"><path fill="#fff" d="M90.0625,71.6875c2.725.325,3.7604,1.4271,3.9375,1.9375-1.25.1562-5.8937.5-14.4687.625l-.2033.0029c-8.4613.1235-14.0457.2049-13.9217-1.1592C66.5626,72.25,73.6875,71.5,79.5,71.4062c2.0937-.0338,7.1563-.125,10.5625.2813Z"></path></mask></g><g mask="url(#eOYQfWEqkP9177)"><g><path fill-rule="evenodd" fill="#201c1a" clip-rule="evenodd" d="M67.9393,83.9538c-.3292,0-.6171-.0926-.7714-.4114-.072-.1646-.1543-.3086-.0617-.5143.072-.1543.0411-.3497.072-.5348.0617-.3394.4319-.4629.7199-.2777.4629.288.576.7611.6583,1.2342.0514.2777-.2777.5246-.6274.504h.0103Z"></path><path fill-rule="evenodd" fill="#201c1a" clip-rule="evenodd" d="M63.5782,102.858c-.216-.123-.3395-.298-.36-.565-.0103-.309.1028-.566.2983-.792.1542-.185.3805-.144.5862-.134.3292.01.7303.319.8229.627.0822.237,0,.494-.2263.607-.1543.083-.3394.134-.5143.175-.2057.041-.4114.062-.6171.082h.0103Z"></path><path fill-rule="evenodd" fill="#201c1a" clip-rule="evenodd" d="M66.8181,88.9936c-.216.1235-.4217.3086-.6582.3497-.2674.0515-.6069.0515-.8331-.072-.1852-.1028-.2469-.4217-.3497-.6377.0822-.216.1439-.4114.2159-.6068.0823-.0206.1543-.072.2263-.0617.3086.0411.6171.0823.9051.1646.36.1028.576.3394.4937.8639Z"></path><path fill-rule="evenodd" fill="#201c1a" clip-rule="evenodd" d="M63.0433,100.092c-.1337.524-.5554.627-.9359.761-.0926.031-.2674-.031-.3394-.113-.1749-.185-.2983-.412-.4423-.607.072-.391.216-.6893.504-.8847.0925-.0618.288-.0926.3497-.0412.3188.2469.72.4217.8639.8849Z"></path><path fill-rule="evenodd" fill="#201c1a" clip-rule="evenodd" d="M74.2134,88.8394c0,0,0,.0411-.0309.0822-.3291.5863-.6274.6686-1.2034.3292-.1337-.0823-.2468-.1852-.4011-.3086-.0514-.2777-.0617-.5863.0206-.9257.288-.0411.5657-.0925.8228-.1337.36.2057.7509.3497.792.9566Z"></path><path fill-rule="evenodd" fill="#201c1a" clip-rule="evenodd" d="M77.8132,85.4143c0,0-.1234.1029-.2057.1543-.2571.144-.5554.2777-.8022.072-.2983-.2469-.4012-.6069-.2983-.9874.0309-.1029.144-.2572.2366-.2674.3599-.0515.6994-.144,1.0079-.3395.1337-.0822.2983.0926.2675.2675-.0618.3497-.1338.6994-.216,1.1005h.0102Z"></path><path fill-rule="evenodd" fill="#201c1a" clip-rule="evenodd" d="M65.7383,97.2323c-.3394-.1646-.4526-.4114-.504-.7097-.0514-.3086.072-.5657.216-.8125.1337-.2366.3394-.2983.5965-.1955.144.0618.2778.144.4218.2263.0822.216.1542.4423.2468.6891-.0823.1235-.1851.2469-.2366.3806-.1337.3189-.4525.3086-.7405.4217Z"></path><path fill-rule="evenodd" fill="#201c1a" clip-rule="evenodd" d="M75.9928,83.9949c-.5143-.1132-.9874-.3909-1.5531-.5349.0103-.1234,0-.2468.0411-.3085.072-.0926.1852-.1954.2983-.2263.1954-.0514.432-.0206.5451-.2468s.3086-.2983.5246-.216c.2263.0822.4217.2365.4423.5039.0308.3703.0617.7406-.2983,1.0286Z"></path><path fill-rule="evenodd" fill="#201c1a" clip-rule="evenodd" d="M61.5315,103.044c.4011-.196.6788-.103.9566.174.2468.247.4937.474.4217.864-.0103.072-.0103.165-.0618.227-.1954.246-.4937.298-.7714.308-.1851,0-.36-.134-.4422-.37-.144-.381-.1749-.751-.1029-1.203Z"></path><path fill-rule="evenodd" fill="#201c1a" clip-rule="evenodd" d="M69.8833,106.849c.1749.072.2983.113.4011.175.4012.226.4526.494.1955.895-.1852.288-.4423.494-.7715.668-.3085-.246-.6685-.452-.7816-.915.0308-.216.2571-.267.4217-.391.1645-.123.3188-.257.5245-.432h.0103Z"></path><path fill-rule="evenodd" fill="#201c1a" clip-rule="evenodd" d="M72.7219,107.487c.1234-.185.216-.381.36-.514.0926-.093.288-.165.4114-.134.36.072.6274.339.6686.679.0411.308,0,.668-.2674.925-.2057.196-.4012.196-.6275.031-.3291-.226-.4319-.565-.5451-.987Z"></path><path fill-rule="evenodd" fill="#201c1a" clip-rule="evenodd" d="M77.3093,104.843c-.3292-.236-.5863-.401-.8332-.586-.1645-.123-.216-.36-.0822-.483.288-.257.5348-.556.9154-.7.288-.113.4628-.03.5862.299.216.545.2057.565-.2057.936-.072.072-.1748.123-.2263.195-.0514.072-.0822.185-.1439.339h-.0103Z"></path><path fill-rule="evenodd" fill="#201c1a" clip-rule="evenodd" d="M63.0845,86.8645c.0514-.1131.0823-.1954.1234-.2571.216-.3703.5554-.4937.9051-.3189.1646.0823.2983.1955.4526.2983.0823.0515.1748.1132.1748.1132.0309.144.0412.1748.0412.1954-.1543.3908-.3497.8434-.792.864-.504.0205-.6994-.4526-.8948-.8846l-.0103-.0103Z"></path><path fill-rule="evenodd" fill="#201c1a" clip-rule="evenodd" d="M73.5449,85.8874c-.384-.1646-.6686-.432-.8537-.8022.1337-.36.1234-.8126.6274-1.0389.4628.1543.6994.5246.7817,1.008.0617.4114-.2675.5863-.5554.8331Z"></path><path fill-rule="evenodd" fill="#201c1a" clip-rule="evenodd" d="M78.5332,87.4612c0-.3909,0-.6686,0-.9566c0-.1748.0926-.2983.2263-.3908.4526-.3086.7406-.2469,1.0183.2468.0514.0926.1028.1852.1337.2777.1234.3703-.1132.7714-.504.8126-.2571.0308-.5143,0-.8846,0l.0103.0103Z"></path><path fill-rule="evenodd" fill="#201c1a" clip-rule="evenodd" d="M70.0581,89.333c-.2777.0412-.5348.0823-.792.1132-.2674-.1132-.3599-.3703-.4628-.5966-.1029-.216-.0206-.4114.1954-.5245.2263-.1132.4732-.2057.7509-.3394.1954.0925.4217.216.6479.3188.2572.4834-.1337.72-.3291,1.0183l-.0103.0102Z"></path><path fill-rule="evenodd" fill="#201c1a" clip-rule="evenodd" d="M72.1563,113.936h-1.1417c-.072-.185-.1749-.34-.2057-.504-.0823-.432.0514-.607.4834-.71.1028-.02.1954-.051.2983-.072.4011-.103.4834-.031.6376.319.1338.319-.0102.607-.0719.967Z"></path><path fill-rule="evenodd" fill="#201c1a" clip-rule="evenodd" d="M67.929,108.742c.1337.102.2263.154.2983.226.4423.422.4526.658.0617,1.121-.1851.226-.4217.298-.6994.216-.2983-.082-.5246-.288-.5554-.586-.0309-.288.1234-.556.36-.731.144-.102.3188-.154.5348-.246Z"></path><path fill-rule="evenodd" fill="#201c1a" clip-rule="evenodd" d="M75.5505,97.4174c.2983.2571.5966.4628.7509.792-.2057.4937-.6377.6171-1.0594.7508-.216.0617-.4526-.0823-.4732-.288-.0308-.288-.0617-.5657.0926-.8434.144-.2571.36-.3497.6994-.4217l-.0103.0103Z"></path><path fill-rule="evenodd" fill="#201c1a" clip-rule="evenodd" d="M65.4913,111.992c-.1131-.35-.2983-.648-.1748-1.029.1542-.133.3085-.329.5862-.195.3497.185.8126.226.936.72.0617.257-.0411.473-.2674.576-.3497.154-.6994.154-1.08-.072Z"></path><path fill-rule="evenodd" fill="#201c1a" clip-rule="evenodd" d="M65.6044,81.8864c-.3977-.4114-.4731-.84-.2263-1.2857.2366-.0514.4834-.1131.7612-.1749.1234.1132.2674.216.3908.3497.3086.36.1749.8537-.2777.9977-.216.072-.4526.0823-.648.1132Z"></path><path fill-rule="evenodd" fill="#201c1a" clip-rule="evenodd" d="M74.6556,101.501c.1954-.134.4114-.278.6068-.412.2057.103.3806.165.5245.257.4835.319.4732.895,0,1.214-.0822.062-.1851.103-.2777.134-.1645.072-.3702,0-.4731-.154-.1028-.175-.216-.35-.288-.546-.0514-.144-.0617-.298-.1028-.514l.0103.021Z"></path><path fill-rule="evenodd" fill="#201c1a" clip-rule="evenodd" d="M74.5837,92.7992c-.3292.1749-.6172.3497-.9154.4834-.0823.0309-.216.0103-.2983-.0308-.3291-.2057-.504-.5143-.5143-.9051c0-.2263.144-.3909.3703-.432.072-.0103.1646-.0309.2263,0c.432.1851.9668.2263,1.1314.8948v-.0103Z"></path><path fill-rule="evenodd" fill="#201c1a" clip-rule="evenodd" d="M70.6855,82.7195c.2469-.2674.5966-.288.9257-.3908.1852.216.3703.4217.576.6685-.0103.1029-.0206.2366-.0411.36-.0617.3703-.3086.5451-.648.4937-.5657-.0823-.8126-.432-.8126-1.1211v-.0103Z"></path><path fill-rule="evenodd" fill="#201c1a" clip-rule="evenodd" d="M79.2121,104.792c.144.082.2468.123.3188.195.8948.803.4731,1.05-.2571,1.368-.2366.103-.4217.021-.6171-.205-.1543-.196-.1852-.463-.0515-.648.1646-.227.36-.432.5966-.7l.0103-.01Z"></path><path fill-rule="evenodd" fill="#201c1a" clip-rule="evenodd" d="M78.5538,98.7957c-.0103-.2366-.0205-.3806-.0308-.5349c0-.2674-.0206-.5657.2983-.648s.6685-.1234.9359.1749c.2674.288.2983.4423.0926,1.008h-1.296Z"></path><path fill-rule="evenodd" fill="#201c1a" clip-rule="evenodd" d="M73.5653,103.095c.4423.165.5966.463.5246.885-.0309.236-.3806.617-.6068.668s-.4217-.072-.5657-.216-.2469-.339-.36-.504c.1131-.586.6171-.648,1.0079-.833Z"></path><path fill-rule="evenodd" fill="#201c1a" clip-rule="evenodd" d="M74.6042,86.6794c.2058-.36.504-.504.864-.6068.1337.0514.288.1028.4217.1748.3086.1852.3703.5246.1543.8023-.1337.1646-.288.3085-.4423.4423-.2365.2057-.4628.1645-.6788-.072-.0309-.0412-.0823-.072-.1029-.1235-.072-.1954-.1337-.3908-.216-.6171Z"></path><path fill-rule="evenodd" fill="#201c1a" clip-rule="evenodd" d="M64.1955,105.08c.1234.165.2468.329.3805.483.2674.33.2572.463-.0103.69-.5451.452-.9154.37-1.2137-.268-.0411-.092-.0822-.185-.1028-.288-.0514-.257.0823-.473.3291-.545.0515-.01.1029-.021.1543-.021.1543-.02.2983-.041.4834-.061l-.0205.01Z"></path><path fill-rule="evenodd" fill="#201c1a" clip-rule="evenodd" d="M67.3428,87.5742c-.0515-.2571-.1029-.4526-.1338-.648-.1028-.6274-.0822-.6685.576-.9771.7406.3806.6789.6891.6069,1.0903-.072.3805-.3292.5039-1.0491.5348Z"></path><path fill-rule="evenodd" fill="#201c1a" clip-rule="evenodd" d="M73.5962,82.1127c-.4114-.1234-.6891-.2572-.8743-.5966.1234-.3497.1646-.7714.5349-1.1005.216.0617.4422.1028.6377.1954.0925.0412.2057.2057.1954.3086-.0309.2777-.1029.5657-.1954.8228-.0515.1337-.1955.2366-.2983.3703Z"></path><path fill-rule="evenodd" fill="#201c1a" clip-rule="evenodd" d="M73.1951,110.819c.2777.052.5348.093.8022.144.1852.319.0823.659.0926.967-.2469.298-.5554.35-.8743.288-.144-.031-.2777-.134-.3908-.236-.1543-.134-.1543-.319-.144-.515.0103-.154.0103-.154.504-.658l.0103.01Z"></path><path fill-rule="evenodd" fill="#201c1a" clip-rule="evenodd" d="M68.433,113.401c0,0,0,.144-.0103.247-.0514.247-.3497.493-.5554.473-.288-.031-.648-.257-.6685-.473-.0206-.257-.0206-.525,0-.782.0205-.164.2571-.319.4217-.278.2057.052.4011.114.5862.206.2366.103.216.329.216.617l.0103-.01Z"></path><path fill-rule="evenodd" fill="#201c1a" clip-rule="evenodd" d="M66.4478,104.36c-.216.339-.5349.35-.8949.267-.1954-.195-.3085-.462-.4011-.73-.1131-.308.0514-.555.3806-.637.1954-.052.4011-.072.6479-.124.0618.124.1646.237.1955.381.0514.277.0514.555.0823.843h-.0103Z"></path><path fill-rule="evenodd" fill="#201c1a" clip-rule="evenodd" d="M67.2296,90.0942c.36-.288.7097-.3497,1.152.0412.0411.1645.144.432.1851.7097.0412.2674-.1748.4114-.4525.3497-.2983-.072-.5966-.1337-.9257-.2057-.0514-.0926-.1029-.2058-.1646-.3189.072-.1954.1337-.3908.1955-.576h.0102Z"></path><path fill-rule="evenodd" fill="#201c1a" clip-rule="evenodd" d="M76.9185,95.566c.1954.0515.3497.0823.4937.144.5348.2263.648.9566.2057,1.2754-.0926.072-.2468.1132-.36.0926-.4217-.072-.7405-.4526-.7714-.864-.0103-.1954.0412-.2777.432-.6377v-.0103Z"></path><path fill-rule="evenodd" fill="#201c1a" clip-rule="evenodd" d="M72.002,106.325c-.4732.041-.7406-.114-.9257-.381-.0823-.113-.1132-.298-.0926-.432.0309-.175.1234-.339.2263-.494.144-.216.4423-.226.5965-.031.1646.196.3189.412.4629.618.1131.154.1646.36.0514.514-.0926.123-.288.185-.3291.206h.0103Z"></path><path fill-rule="evenodd" fill="#201c1a" clip-rule="evenodd" d="M64.792,90.5981c-.0309.3806-.432.7817-.8332.8023-.072,0-.1542-.0206-.216-.0617-.2468-.1646-.3805-.792-.2365-1.0594.1645-.3086.5862-.4217.9565-.2571.1749.0822.3497.3805.3394.5759h-.0102Z"></path><path fill-rule="evenodd" fill="#201c1a" clip-rule="evenodd" d="M71.9506,89.7342c.216.3806.3086.7508.2572,1.152-.0309.2571-.1749.3702-.4217.3291-.2057-.0412-.4011-.072-.6069-.1131-.3497-.072-.5142-.4217-.3085-.7097.0925-.144.2468-.2572.4011-.3497.1954-.1132.4114-.1852.6788-.3086Z"></path><path fill-rule="evenodd" fill="#201c1a" clip-rule="evenodd" d="M77.0933,107.034c.3394.165.6068.299.8948.432.1028.216.072.432-.1132.628-.144.144-.2879.298-.4525.432-.1749.144-.4217.092-.5554-.083-.2983-.391-.2983-.648-.0206-1.059.072-.103.144-.206.2469-.35Z"></path><path fill-rule="evenodd" fill="#201c1a" clip-rule="evenodd" d="M76.8155,112.218c-.144-.298-.2777-.576-.432-.874.0515-.103.0926-.226.1646-.329.1132-.175.3189-.247.4834-.175.2777.134.5554.288.7714.504.2263.226.0412.638-.288.72-.2057.051-.4011.082-.6994.144v.01Z"></path><path fill-rule="evenodd" fill="#201c1a" clip-rule="evenodd" d="M61.7886,80.4361c.4114-.1337.7405.0309,1.0594.288-.0309.4937-.4731.6892-.6686,1.0697-.1645,0-.3188.0206-.4731,0-.3086-.0514-.4217-.2983-.2777-.576.1131-.2262.216-.4628.36-.7714v-.0103Z"></path><path fill-rule="evenodd" fill="#201c1a" clip-rule="evenodd" d="M77.1344,99.2585c.2159.1131.4319.2057.6171.3394.072.0514.1131.1749.1337.2674.0514.4217-.2983.8947-.72.9767-.0617.011-.1646-.02-.216-.061-.3085-.288-.3908-.9362-.144-1.286.0617-.0925.1954-.1439.3292-.2262v-.0103Z"></path><path fill-rule="evenodd" fill="#201c1a" clip-rule="evenodd" d="M67.8159,105.173c.2983.123.5657.226.72.534-.0618.124-.1132.268-.1955.391-.1954.278-.5039.412-.8022.381-.3292-.031-.5554-.268-.5863-.628.2331-.281.5246-.507.8743-.678h-.0103Z"></path><path fill-rule="evenodd" fill="#201c1a" clip-rule="evenodd" d="M66.4994,92.1718c0,.1337.0308.288.0308.4423-.0103.4319-.1337.5348-.5862.5451-.4423,0-.4423,0-.8332-.4937.072-.2572.1235-.5657.4115-.6994.3394-.1543.6685-.0515.9771.216v-.0103Z"></path><path fill-rule="evenodd" fill="#201c1a" clip-rule="evenodd" d="M78.5332,101.624c.5623-.144,1.032-.003,1.4091.422-.0514.144-.1131.308-.1748.473-.2675.082-.5143.165-.7612.226-.216.052-.4422-.103-.4628-.319-.0206-.257,0-.514,0-.812l-.0103.01Z"></path><path fill-rule="evenodd" fill="#201c1a" clip-rule="evenodd" d="M76.5894,114.913c.1645-.175.2571-.36.3908-.422.1131-.051.2983.021.4423.062.1234.031.2263.123.3497.164.4217.155.4834.391.4011.875-.0411.216-.3291.349-.4834.205-.1851-.174-.4114-.195-.6068-.298-.1852-.103-.2983-.339-.4937-.586Z"></path><path fill-rule="evenodd" fill="#201c1a" clip-rule="evenodd" d="M74.7997,93.8689c.1954-.072.3291-.1337.4834-.1748.3291-.0926.5245.0206.5451.3394.0206.2263,0,.4628,0,.6788-.216.3086-.5143.3497-.8434.3189-.2983-.0309-.4628-.2469-.4011-.5451.0411-.1955.1337-.3909.2057-.6172h.0103Z"></path><path fill-rule="evenodd" fill="#201c1a" clip-rule="evenodd" d="M62.1589,84.0463c.2674.2057.4937.3806.72.5554.0823.4012-.0514.72-.3703.9566-.2571.1954-.5245.2057-.8023-.072-.2879-.576.2469-.9257.4526-1.44Z"></path><path fill-rule="evenodd" fill="#201c1a" clip-rule="evenodd" d="M72.146,86.6692c-.1749-.0309-.3497-.0618-.5143-.0823-.1543-.0206-.2366.0617-.2777.2263.1748.2982.5451.2674.7817.4525.0823.2057-.0617.3086-.216.3394-.3291.0515-.6788.1132-.9565-.1851-.1338-.144-.1955-.3086-.1646-.504.0823-.4731.5863-.864,1.0697-.8331.1851.0103.2777.1851.2674.5863h.0103Z"></path><path fill-rule="evenodd" fill="#201c1a" clip-rule="evenodd" d="M75.9825,105.265c-.0411.113-.0823.185-.0823.257c0,.587-.3394.803-.9256.813-.072-.401-.3292-.782-.1852-1.224.6686-.401.6789-.401,1.2034.154h-.0103Z"></path><path fill-rule="evenodd" fill="#201c1a" clip-rule="evenodd" d="M66.5301,100.441c-.216.083-.36.144-.4937.185-.144.042-.2983.093-.4525.083-.4012,0-.6069-.391-.3806-.7203.1954-.2983.4937-.4628.8434-.5143.2571-.0411.4628.1338.4834.3909.0206.1847,0,.3597,0,.5657v.01Z"></path><path fill-rule="evenodd" fill="#201c1a" clip-rule="evenodd" d="M71.0353,101.429c.2982.041.576.061.8537.113.1645.031.2777.144.3085.319s-.0411.308-.1954.391c-.2263.123-.4628.246-.6994.339-.1543.051-.3086,0-.4114-.144-.0412-.062-.0823-.134-.1132-.206-.1748-.339-.1748-.391.0926-.689.0514-.051.1234-.092.1749-.134l-.0103.011Z"></path><path fill-rule="evenodd" fill="#201c1a" clip-rule="evenodd" d="M75.427,91.3593c-.2057-.1337-.3394-.2777-.3703-.504-.0103-.1234-.0514-.2571-.0823-.3805-.0891-.3223.0515-.5726.4217-.7509.3703.1955.6172.5143.7406.9257-.1132.3394-.2674.6274-.7097.7097Z"></path><path fill-rule="evenodd" fill="#201c1a" clip-rule="evenodd" d="M60.873,117.093c-.1782.35-.4011.621-.6685.813-.1749-.175-.3703-.329-.5246-.535-.1851-.236-.0514-.823.2057-.987.1235-.072.3909-.052.5143.072.1749.185.3086.411.4731.627v.01Z"></path><path fill-rule="evenodd" fill="#201c1a" clip-rule="evenodd" d="M65.3166,84.5914c.1851-.0822.3291-.144.4628-.216s.2572-.1439.3703-.2057c.3086.144.3394.4217.4731.648.1235.2057.072.3909-.0925.5657-.216.216-.36.2572-.6275.1337-.3599-.1748-.6994-.3702-.5862-.9051v-.0206Z"></path><path fill-rule="evenodd" fill="#201c1a" clip-rule="evenodd" d="M66.5301,114.656c0,.329.0103.586,0,.843-.0205.216-.2468.473-.4422.494-.3086.031-.5555-.113-.7406-.34-.144-.164-.1851-.38-.0514-.576.0514-.082.1543-.205.2057-.195.288.062.4834-.123.72-.237.0617-.03.1542,0,.3188.011h-.0103Z"></path><path fill-rule="evenodd" fill="#201c1a" clip-rule="evenodd" d="M68.8855,81.403c.1337-.2983.216-.5452.3394-.7611.1132-.1955.3806-.2058.5349-.0412.1337.1543.2571.3189.3908.4834.2571.3292.1234.7406-.2777.8434-.0926.0206-.216,0-.2983-.0411-.216-.1337-.4217-.288-.6891-.4834Z"></path><path fill-rule="evenodd" fill="#201c1a" clip-rule="evenodd" d="M79.5619,94.7843c-.3806.0926-.7406.1646-1.152.0309-.0514-.2777-.1028-.5452.1337-.7817.2263-.2366.6994-.3394,1.008-.1646.1029.0514.1851.1851.216.2983.0617.216-.0206.4114-.2057.6171Z"></path><path fill-rule="evenodd" fill="#201c1a" clip-rule="evenodd" d="M59.7726,110.13c-.2571-.319-.1749-.627-.1337-.926.0206-.133.2057-.246.36-.216.1543.021.2982.072.4525.093.504.072.6686.309.5349.792-.0309.134-.2263.237-.3703.195-.3154-.089-.6-.072-.8537.052l.0103.01Z"></path><path fill-rule="evenodd" fill="#201c1a" clip-rule="evenodd" d="M75.4064,110.161c-.2057-.062-.3806-.103-.5451-.165-.2366-.092-.3292-.339-.2469-.586.1234-.38.4937-.566.864-.422.0926.042.1954.083.2777.134.3497.216.3394.658-.0206.885-.1028.072-.2365.103-.3291.154Z"></path><path fill-rule="evenodd" fill="#201c1a" clip-rule="evenodd" d="M78.3892,90.3822c.1234-.1131.2366-.2263.36-.3188.0823-.0617.1851-.0926.3085-.144.36.2365.6892.5142.8126.9668-.1543.3189-.3909.432-.7097.36-.4114-.0926-.6994-.3394-.7817-.864h.0103Z"></path><path fill-rule="evenodd" fill="#201c1a" clip-rule="evenodd" d="M71.1792,94.99c-.072-.3291-.3497-.6274-.1132-1.0491.1646,0,.3395,0,.504,0c.1543,0,.3086-.0308.4526-.0411.0514.0411.1131.0617.1337.1028.3291.6686.1748.9566-.5554,1.0491-.0514,0-.1029,0-.1543,0-.072,0-.1543-.0308-.2674-.0514v-.0103Z"></path><path fill-rule="evenodd" fill="#201c1a" clip-rule="evenodd" d="M61.511,92.5935c.0617-.2057.1028-.36.1646-.504.072-.1543.3497-.3291.4937-.3085.2365.0205.5451.2571.5657.4525.0205.2057.0308.4114,0,.6171-.0515.2675-.288.3395-.576.4115-.2057-.216-.432-.4526-.6377-.6686h-.0103Z"></path><path fill-rule="evenodd" fill="#201c1a" clip-rule="evenodd" d="M57.8801,88.5205c.2572-.2674.5246-.4114.864-.4114.4423,0,.6171.2675.4423.6686-.144.3188-.36.5657-.6583.72-.504-.1337-.5143-.5657-.648-.9772Z"></path><path fill-rule="evenodd" fill="#201c1a" clip-rule="evenodd" d="M70.4694,115.252c-.1749.412-.5966.494-.9155.792-.1131-.123-.2365-.205-.3085-.329-.1029-.175-.1543-.37-.2469-.607.1543-.103.3086-.226.4732-.339.432-.268.6274-.216.8742.206.0515.082.0823.185.1235.267v.01Z"></path><path fill-rule="evenodd" fill="#201c1a" clip-rule="evenodd" d="M64.8227,82.7916c-.0411.1234-.0411.2057-.0925.2571-.1749.1954-.3497.3806-.5452.5451-.1748.144-.4937.1235-.648-.0205-.2057-.1749-.2674-.4732-.1131-.6994.1954-.2983.4011-.5452.8228-.3497.072.0308.2263-.072.2983-.0309.1234.0617.2057.1954.288.288l-.0103.0103Z"></path><path fill-rule="evenodd" fill="#201c1a" clip-rule="evenodd" d="M72.9482,100.41c.0309-.288.0618-.5344.0926-.7812.2366-.3086.5143-.3086.8126-.1337.1645.1028.2571.2365.2571.4422c0,.2267,0,.4527,0,.6997-.4526.164-.792.061-1.1623-.227Z"></path><path fill-rule="evenodd" fill="#201c1a" clip-rule="evenodd" d="M71.426,110.182c0,0-.0617,0-.1646-.021-.1748-.031-.3085-.206-.3085-.401c0-.226,0-.453.0308-.679.0206-.236.3395-.37.5452-.236.3188.205.4525.565.6377.863.0925.144-.0515.381-.216.432-.0515.011-.1029.031-.1543.031-.072,0-.1543,0-.3806,0l.0103.011Z"></path><path fill-rule="evenodd" fill="#201c1a" clip-rule="evenodd" d="M60.2045,112.753c.1337.041.2572.072.3806.113.3805.134.4423.226.4217.628-.0103.308-.1234.442-.4114.462-.2057.021-.4115,0-.6377,0-.1029-.236-.1955-.442-.288-.658.0925-.278.2983-.432.5348-.555v.01Z"></path><path fill-rule="evenodd" fill="#201c1a" clip-rule="evenodd" d="M73.9563,96.6974c-.2469-.0308-.504-.0411-.7508-.0925-.3292-.0618-.4835-.4423-.2777-.7303.1337-.1852.3188-.3291.4731-.4834.7508.4217.8228.5862.5554,1.3062Z"></path><path fill-rule="evenodd" fill="#201c1a" clip-rule="evenodd" d="M63.4445,97.8288c.1543-.0617.3188-.1337.4834-.1954.4526-.1646.5657.0617.6891.3908.0412.1132.0309.2572.0206.3806-.0103.2571-.1337.3806-.3806.4114-.072.0103-.1543.0103-.2365,0-.1029-.0103-.2057-.0308-.3086-.0514-.2057-.2777-.4217-.5451-.2777-.9463l.0103.0103Z"></path><path fill-rule="evenodd" fill="#201c1a" clip-rule="evenodd" d="M62.1691,106.695c.144.339.1028.627.3291.812.0617.052.0926.196.0823.288-.0206.114-.072.247-.1543.319-.1646.144-.3805.206-.5863.134-.1131-.041-.2674-.134-.2879-.226-.0926-.36-.144-.731.2057-1.008.1131-.093.2365-.185.4217-.329l-.0103.01Z"></path><path fill-rule="evenodd" fill="#201c1a" clip-rule="evenodd" d="M69.4925,110.716c.2365.052.4628.093.7097.144.1542.165.3291.36.2571.607-.0926.278-.3189.453-.6171.617-.2469-.267-.4937-.524-.7509-.812-.0308-.288.1852-.432.4114-.566l-.0102.01Z"></path><path fill-rule="evenodd" fill="#201c1a" clip-rule="evenodd" d="M59.7417,105.862c.0309-.103.072-.278.1337-.443.072-.205.1851-.401.432-.411.2366-.01.3908.165.4937.35.1234.216.1131.463-.0823.658-.144.154-.288.298-.4525.432-.1852.154-.432.051-.4732-.185-.0205-.103-.0205-.206-.0411-.391l-.0103-.01Z"></path><path fill-rule="evenodd" fill="#201c1a" clip-rule="evenodd" d="M74.8818,113.411c.0515-.195.0926-.339.144-.483.0926-.309.4114-.432.6686-.268.3291.206.3188.515.3188.834c0,.339-.1851.524-.5142.637-.2057-.247-.4012-.473-.6069-.72h-.0103Z"></path><path fill-rule="evenodd" fill="#201c1a" clip-rule="evenodd" d="M60.6263,87.4199c-.504.1852-.7405-.2468-1.1417-.4217.1543-.3085.4834-.432.5451-.7611.0309-.1646.3086-.1954.4732-.0926.3188.1955.4217.4423.3188.792-.0514.1749-.1337.3292-.1954.4937v-.0103Z"></path><path fill-rule="evenodd" fill="#201c1a" clip-rule="evenodd" d="M69.266,85.4657c-.0206-.1234-.0308-.2263-.0411-.3291-.0617-.504.1954-.6377.6685-.792.1852-.0617.504.216.5657.4526.072.3188-.2571.7817-.576.7714-.2057,0-.4011-.072-.6171-.1132v.0103Z"></path><path fill-rule="evenodd" fill="#201c1a" clip-rule="evenodd" d="M69.2455,96.8723c-.144-.1749-.288-.3497-.4423-.5554.2674-.0412.4937-.0823.6274-.3806.1235-.2571.3395-.2983.5143-.2057.3189.1748.432.4217.3189.7097-.1852.4731-.288.5143-1.0183.432Z"></path><path fill-rule="evenodd" fill="#201c1a" clip-rule="evenodd" d="M59.5979,90.9067c-.0309-.2263.0617-.4217.2571-.5863.3497-.2879.864-.1337.9771.3292.0206.1028-.0308.2674-.1028.3394-.1235.1234-.288.216-.4423.3086-.3703.2262-.6686.072-.6788-.3909h-.0103Z"></path><path fill-rule="evenodd" fill="#201c1a" clip-rule="evenodd" d="M60.3487,83.779c-.2777-.0617-.4834-.1029-.7097-.144-.0103-.2469-.0206-.4834-.0308-.72.1851-.144.3394-.288.5142-.3909.1029-.0617.2469-.072.3703-.072.1646,0,.3086.1132.3394.2778.0103.1131,0,.2982-.0823.3497-.216.1645-.3805.3394-.3908.6891l-.0103.0103Z"></path><path fill-rule="evenodd" fill="#201c1a" clip-rule="evenodd" d="M60.976,94.3832c-.1748.1749-.3291.36-.504.504-.3497.2983-.8536.1543-1.0079-.2777-.0515-.1646.0103-.3394.1645-.4012.2572-.1131.5246-.1851.8023-.2468s.432.0926.5451.432v-.0103Z"></path><path fill-rule="evenodd" fill="#201c1a" clip-rule="evenodd" d="M74.0693,115.643c-.1131.01-.216.062-.2571.031-.216-.144-.4012-.309-.6583-.062-.0206.021-.216-.051-.2366-.113-.1337-.37-.1028-.72.288-.936.3189.01.6172.103.864.329v.761-.01Z"></path><path fill-rule="evenodd" fill="#201c1a" clip-rule="evenodd" d="M65.0286,107.59c.2262-.257.432-.484.5862-.648.432-.041.3909.288.5349.452.0925-.01.1954-.031.288-.041.0308.031.072.072.0823.113.0411.196-.0103.35-.1852.473-.216.144-.4114.186-.936.186-.1131-.155-.2365-.34-.3702-.525v-.01Z"></path><path fill-rule="evenodd" fill="#201c1a" clip-rule="evenodd" d="M71.5804,98.8573c-.1646-.1439-.288-.2468-.4012-.3497-.2263-.2365-.2674-.3805-.1748-.5451.1645-.2777.4525-.432.7097-.3703.1748.0412.3497.1646.6377.4629-.1543.3394-.4423.5451-.7817.8125l.0103-.0103Z"></path><path fill-rule="evenodd" fill="#201c1a" clip-rule="evenodd" d="M79.8086,109.194c-.1645.545-.4937.854-.9154,1.255-.1234-.432-.1542-.761-.4525-.895.2777-.679.3497-.71.9257-.524.1234.041.2468.082.4422.154v.01Z"></path><path fill-rule="evenodd" fill="#201c1a" clip-rule="evenodd" d="M79.9322,83.4395c-.2469.072-.4629.144-.6789.2057-.072.0206-.1543,0-.2263-.0206-.3188-.0926-.5348-.3188-.4937-.5143.0515-.2777.4732-.6171.7406-.5759.1131.0205.2263.1028.3188.1851.072.072.1132.1748.1543.2674.0617.1337.1132.2777.1852.4526Z"></path><path fill-rule="evenodd" fill="#201c1a" clip-rule="evenodd" d="M61.6959,111.879c-.0514-.206-.0925-.36-.1234-.504.1234-.268.3394-.443.6068-.453.2469,0,.5246.021.6995.329-.0618.206-.1338.453-.2263.741-.3086-.041-.6069-.072-.9566-.124v.011Z"></path><path fill-rule="evenodd" fill="#201c1a" clip-rule="evenodd" d="M64.1029,113.926c-.3703-.247-.7611-.412-.8331-.895.0514-.196.1645-.309.3908-.257.072.02.144.061.216.061.5554,0,.5554,0,.6686.443.0925.349-.0926.524-.4423.648Z"></path><path fill-rule="evenodd" fill="#201c1a" clip-rule="evenodd" d="M68.6077,101.696c-.3497.412-.792.494-1.2137.576-.1028.021-.2365-.134-.3908-.226.3394-.35.5348-.751.9874-.988.1954.196.3805.402.6171.648v-.01Z"></path><path fill-rule="evenodd" fill="#201c1a" clip-rule="evenodd" d="M69.9037,93.1901c-.2777-.1954-.4628-.3188-.648-.4526c0-.2468-.0205-.4834,0-.7096.0206-.1646.2674-.3086.4217-.2572.144.0514.288.1132.4217.1954.2057.1235.2572.3292.144.5349-.0617.1131-.1543.2057-.216.3188-.0514.0823-.072.1852-.1337.3703h.0103Z"></path><path fill-rule="evenodd" fill="#201c1a" clip-rule="evenodd" d="M78.6154,114.07c-.1645-.186-.2674-.381-.2468-.638.0205-.257.2571-.442.4937-.381.1748.041.3497.103.5142.175.2675.124.3086.422.1029.648-.2469.278-.5348.278-.864.185v.011Z"></path><path fill-rule="evenodd" fill="#201c1a" clip-rule="evenodd" d="M67.6822,97.582c.1028.0205.1543.0308.1954.0514.4937.288.5143,1.0183.0412,1.296-.216.1234-.5349,0-.5555-.2263-.0308-.2777-.0308-.576.0206-.8434.0206-.1132.2057-.1954.2983-.2674v-.0103Z"></path><path fill-rule="evenodd" fill="#201c1a" clip-rule="evenodd" d="M69.6774,99.3304c.5451.2469.5143.648.4731,1.0496-.0205.195-.288.329-.4834.267-.432-.134-.5965-.617-.3394-1.008.0823-.1234.2263-.1954.3497-.3086Z"></path><path fill-rule="evenodd" fill="#201c1a" clip-rule="evenodd" d="M62.848,115.52c-.288.253-.6102.295-.9668.123-.072-.236-.1543-.483-.216-.73-.0411-.154.0926-.319.2674-.298.1235.01.2675.041.36.113.2469.195.4731.411.5554.792Z"></path><path fill-rule="evenodd" fill="#201c1a" clip-rule="evenodd" d="M76.4866,88.9216c.0617-.1337.1337-.2674.1954-.4114.2777-.0823.5451-.1645.8228-.2263.1235-.0308.2572,0,.3394.1338.0823.1542.0309.3599-.1234.4628-.0823.0617-.2057.0823-.2571.1543-.0823.1234-.072.3085-.288.3188-.2263.0206-.4114-.0514-.5451-.2262-.0515-.0618-.0926-.1235-.144-.216v.0102Z"></path><path fill-rule="evenodd" fill="#201c1a" clip-rule="evenodd" d="M63.4034,109.595c.0206-.072.0308-.123.0514-.164.1131-.155.0206-.463.3086-.473.2983-.011.4422.246.5965.432.1646.195.1646.432.0103.648-.0823.113-.216.205-.2983.277-.2674-.02-.3394-.185-.432-.349-.0719-.134-.1748-.258-.2571-.371h.0206Z"></path><path fill-rule="evenodd" fill="#201c1a" clip-rule="evenodd" d="M62.4983,89.1891c-.4011.0205-.6685-.1646-.8948-.4217-.1851-.216-.072-.5452.1954-.6172.2675-.0719.7509.1029.8846.3498.0411.0822.0617.2057.0308.2982-.0514.144-.144.2675-.216.4012v-.0103Z"></path><path fill-rule="evenodd" fill="#201c1a" clip-rule="evenodd" d="M62.5393,95.9157c.0309.2469.288.4731,0,.7611-.216-.0205-.4628-.0308-.7097-.072-.2571-.0411-.3703-.2777-.2674-.5348.144-.3806.3188-.4526.72-.2983.0925.0309.1748.1029.2674.144h-.0103Z"></path><path fill-rule="evenodd" fill="#201c1a" clip-rule="evenodd" d="M77.0934,92.4598c.0206-.1543.0308-.2982.0617-.5142.2469.0617.4628.1131.7097.1645v.8743c-.2983.1234-.5863.1851-.8846,0-.2057-.1132-.2262-.2366-.0514-.4217.0514-.0514.1234-.0926.1852-.1337.0308.0308.0514.072.0822.1028-.0308-.0308-.0617-.0514-.1028-.0823v.0103Z"></path><path fill-rule="evenodd" fill="#201c1a" clip-rule="evenodd" d="M63.5576,94.5786c.1852-.0206.3292-.0412.504-.0617-.072-.1646-.1234-.2983-.1851-.4526.3188-.1748.6171.0514.9051-.0103.0308,0,.0823.0617.1028.1029.0926.216-.1131.6582-.3702.648-.216,0-.3189.144-.4732.1954-.1234.0411-.3188,0-.432-.0617-.0617-.0412-.0411-.2263-.0514-.3497v-.0103Z"></path><path fill-rule="evenodd" fill="#201c1a" clip-rule="evenodd" d="M61.0172,101.727c-.1646.35-.2675.627-.4115.895-.0411.072-.1645.134-.2571.134-.2777.01-.6891-.474-.648-.741.0309-.206.2263-.36.4526-.319.1543.021.2983.093.4422.103.1132.01.2366-.031.4218-.062v-.01Z"></path><path fill-rule="evenodd" fill="#201c1a" clip-rule="evenodd" d="M77.4739,81.7732c-.2674-.216-.4937-.4114-.7303-.6068-.0617-.2366.1338-.3291.2777-.4114.1955-.1132.4115-.2674.6583-.1852.0823.0309.1646.1235.1954.2057.0309.0926,0,.2058-.0205.3086-.0412.1234-.1029.2366-.1646.36-.0617.1131-.1337.216-.2057.3394l-.0103-.0103Z"></path><path fill-rule="evenodd" fill="#201c1a" clip-rule="evenodd" d="M69.2354,104.062c.0822-.124.1748-.247.2365-.381.0514-.103.0514-.236.0926-.391.2777.186.504.34.72.484c0,.103.0205.154,0,.195-.3086.689-.5143.71-1.0389.093h-.0102Z"></path><path fill-rule="evenodd" fill="#201c1a" clip-rule="evenodd" d="M60.9967,98.0756c-.144.288-.3806.4629-.6994.5452-.3189-.1543-.1852-.5143-.3703-.7097.4526-.4834.6377-.4526,1.0697.1645Z"></path><path fill-rule="evenodd" fill="#201c1a" clip-rule="evenodd" d="M67.425,93.8895c.4011.0823.576.3497.7817.5554-.1851.4629-.2674.504-.5965.3497-.072-.0308-.144-.0617-.2058-.1028-.2262-.144-.2674-.2983-.1234-.5966.0309-.072.0926-.1234.1543-.2057h-.0103Z"></path><path fill-rule="evenodd" fill="#201c1a" clip-rule="evenodd" d="M76.6614,115.736c0,0,.0411-.052.0617-.052.0411.011.0823.041.1337.062-.0206.021-.0411.051-.0617.051-.0412-.01-.0823-.041-.1337-.061Z"></path></g><mask width="400%" height="400%" y="-150%" x="-150%" id="eOYQfWEqkP9177"><path fill="#fff" d="M59.9478,81.4946c2.5006,12.2402,5.5936,20.4014,7.6338,22.7054c3.5763,4.038,8.2274,7.766,11.7812,8.622v3.555c-4.4679-.128-8.7694-.753-12.001-1.839v-2.982c-.9453-.231-1.8599-.489-2.7109-.784-3.8066-1.328-4.6829-3.478-5.1348-8.23-.381-3.9627-.1495-15.7014.334-20.7251l.0977-.3223Z"></path></mask></g><g transform="translate(80.28855,74.3999)" id="eOYQfWEqkP9179_to"><g transform="rotate(0)" id="eOYQfWEqkP9179_tr"><g transform="translate(-80.288532,-74.3999)"><g mask="url(#eOYQfWEqkP9184)"><g><path stroke-linejoin="round" stroke-linecap="round" stroke="#201c1a" fill="#fffefb" d="M65.6368,73.4029l-5.669,7.367c-.5615,4.1902-.8627,17.5002-.4519,21.7721.4519,4.752,1.3282,6.902,5.135,8.23c5.0528,1.753,12.3103,2.328,15.3502,2.314c4.9296-.013,10.5576-.205,15.3092-1.41c4.7517-1.205,6.2307-2.78,6.4357-8.093.233-5.669-.397-17.2809-1.123-23.0732l-5.9974-6.8741c0-.8764-.1917-2.8208-1.1091-3.8205c0,0-18.7051.2876-27.0307.137-.5614.5751-1.0681,2.5469-.8353,3.437l-.0137.0137Z"></path><path stroke-linejoin="round" stroke-linecap="round" stroke="#201c1a" fill="none" d="M94.6256,73.6494c0,0-2.2184.7395-13.6934.849-13.1182.1232-15.2955-.671-15.2955-.671"></path></g><mask width="400%" height="400%" y="-150%" x="-150%" id="eOYQfWEqkP9184"><path fill="#fff" transform="translate(0.000001 0.000001)" d="M65.0001,68.5h9.5h20.5l.1562,4.9531c-.3333.5-.7031.6875-1.5156.8907-.9702.2425-8.9531.6718-13.4531.6562-2.6905-.0093-5.9697-.0102-8.625-.1094-2.3587-.0881-4.3748-.2863-4.9922-.3672-.7077-.0926-1.0665-.1509-1.7579-.6172-.6914-.4662.1876-5.4062.1876-5.4062Z"></path></mask></g><path stroke-linejoin="round" stroke-linecap="round" stroke="#201c1a" fill="#fffefb" d="M76.9748,65.2964c.0274,1.8897,1.2735,1.2735,2.9577,1.3145c1.6843.0411,3.218.6436,3.1769-1.2324-.0411-2.1087-1.4515-3.3959-3.1358-3.4233s-3.0262,1.4789-2.9988,3.3549v-.0137Z"></path><path stroke-linejoin="round" stroke-linecap="round" stroke="#201c1a" fill="#fffefb" d="M77.1392,69.829l.9311-2.9578l4.1491-.0137.671,2.9715h-5.7512Z"></path></g></g></g><path stroke-linejoin="round" stroke-linecap="round" stroke="#201c1a" fill="none" d="M99.2678,74.074c-2.7524-2.232-1.4241-4.8749.5203-8.5858c1.7939-3.4507.8899-10.2289-3.9437-13.7892-4.5461-3.3412-10.626-3.3412-15.7473-3.3412s-11.1875,0-15.7474,3.3412c-4.8337,3.5603-5.7512,10.3385-3.9437,13.7892c1.9445,3.7109,3.2454,8.0244,1.2598,10.0784"></path><path stroke-linejoin="round" stroke-linecap="round" stroke="#201c1a" fill="none" d="M59.9541,80.77c0,0,10.5713.9859,20.0334.9859s20.6355-.9859,20.6355-.9859"></path><path stroke-linejoin="round" stroke-linecap="round" stroke="#201c1a" fill="none" d="M59.5569,70.322l-.8079,1.2734v4.4778l2.2731,3.3138"></path><path stroke-linejoin="round" stroke-linecap="round" stroke="#201c1a" fill="none" d="M97.9533,77.2508c.5614-.7258,1.6569-2.1499,1.6569-2.1499.0684-1.8349-.3424-4.7926,2.4788-8.7089c2.821-3.9163.958-12.2967-4.437-16.5827-5.0665-4.0258-11.8173-4.0532-17.5138-4.0669-5.6964.0137-12.4472.0411-17.5138,4.0669-5.3815,4.2997-7.1068,12.8718-4.4229,16.5963c2.8208,3.9163,2.41,6.8741,2.4785,8.709c0,0,1.0954,1.4241,1.6569,2.1499"></path><path stroke-linejoin="round" stroke-linecap="round" stroke="#201c1a" fill="none" d="M100.733,70.322l.808,1.2734v4.4778l-1.9719,2.8756"></path></g></g></g></g></svg>
