<svg xmlns="http://www.w3.org/2000/svg" fill="none" viewBox="0 0 107 45" height="45" width="107">
<g clip-path="url(#clip0_6052_137769)">
<path fill="#201C1A" d="M21.5508 33.8321C22.9126 33.2134 24.1898 31.7162 24.4207 31.4717C25.1054 30.7613 26.6981 29.7988 27.1828 29.562C27.8291 29.2489 29.2679 28.7905 30.522 29.2107C30.522 29.2107 30.5604 29.203 30.4143 29.0808C30.0757 28.7982 29.214 27.935 27.6367 28.126C26.4903 28.2634 25.7671 29.0197 25.3362 30.0891C25.0977 30.6773 24.5822 30.9676 24.4514 31.0898C24.4514 31.0898 24.713 30.578 24.8438 29.6995C24.9285 29.1419 25.2054 28.2405 25.4439 27.7287C25.4439 27.7287 25.8748 27.4079 26.2133 25.8038C26.4749 24.5663 26.5057 23.3135 26.4826 23.0156C26.4672 22.8934 26.4211 22.8628 26.4211 22.8628C26.4211 22.8628 26.3134 23.367 26.198 23.6802C25.921 24.4517 25.1824 25.9565 25.0746 26.3996C24.9361 26.9725 24.9131 27.6065 24.9285 28.0801C24.9285 28.0801 24.7977 28.4009 24.7515 28.6378L24.6592 29.2107C24.6592 29.2107 24.436 28.6454 24.0667 28.1489C23.7128 27.6753 22.7741 26.2315 21.3431 26.1857C20.2659 26.1551 19.5581 27.1176 19.2965 27.4461C19.0503 27.7593 19.0503 27.8815 18.7733 28.019C18.3886 28.21 18.404 28.3322 18.404 28.3322C18.404 28.3322 20.5506 27.3162 22.6049 27.9655C23.2204 28.1641 23.6513 28.3322 24.0744 28.7905C24.436 29.1801 24.4899 29.6232 24.5207 29.7148C24.5207 29.7148 24.4437 30.3488 24.2591 30.8759C23.9436 31.7849 21.4662 34.6113 17.4038 34.1147C17.4038 34.1147 16.8652 34.2828 17.1114 34.489C17.1114 34.489 19.6042 34.7106 21.5508 33.8245"></path>
<path fill="#201C1A" d="M106.723 15.4761H106.754C106.638 15.4456 106.592 15.5678 106.508 15.6977C106.3 16.0109 106.069 16.2935 105.684 16.1713C105.538 16.1254 105.377 16.0491 105.207 15.9345C104.53 15.4991 104.007 15.2164 103.638 15.1018C102.599 14.781 101.63 14.8345 100.714 15.2775C99.7984 15.7206 99.1906 16.4234 98.8829 17.3935C98.4212 18.8525 99.1137 20.2657 100.953 21.6406C101.884 22.3281 102.437 22.7559 102.622 22.9163C102.807 23.0767 102.991 23.3135 103.184 23.6191C103.522 24.1614 103.584 24.7725 103.376 25.4524C103.184 26.0558 102.822 26.4836 102.299 26.7204C101.776 26.9572 101.276 26.8808 100.606 26.6669C99.3599 26.2774 98.6213 25.3607 98.1596 24.2225C97.9288 23.6573 98.3905 23.2906 98.7213 22.5038C98.7905 22.3358 98.5059 22.2747 98.3981 22.2441C98.3212 22.2212 98.175 22.3663 98.1135 22.5573C98.1135 22.5573 97.3056 24.1156 96.3516 25.2614C96.2208 25.3913 96.0207 25.6052 95.9976 25.6892C95.9515 25.8267 96.1977 26.0329 96.3285 26.0558C96.3977 26.0635 96.567 25.8649 96.7055 25.6815C96.9363 25.3913 97.2748 25.3454 97.5364 25.4218C97.7211 25.4829 97.9134 25.6052 98.1212 25.8038C98.8983 26.5065 99.5984 26.9496 100.229 27.1482C101.322 27.4919 102.376 27.4308 103.384 26.9725C104.392 26.5142 105.061 25.7808 105.377 24.7802C105.654 23.9094 105.546 23.0691 105.069 22.2517C104.692 21.6177 103.653 20.6476 101.937 19.3261C100.829 18.4858 100.414 17.6303 100.691 16.7671C100.868 16.2095 101.214 15.8199 101.745 15.5831C102.268 15.3463 102.853 15.331 103.484 15.522C104.153 15.7282 104.684 16.1102 105.077 16.6525C105.469 17.1949 105.669 17.8136 105.669 18.5087C105.669 19.0816 105.584 19.1886 105.7 19.2879C105.746 19.3261 106.084 19.4254 106.131 19.2879L106.146 19.2344C106.392 17.2407 106.923 15.9192 106.923 15.9192C106.954 15.8352 106.992 15.7053 106.992 15.69C107.046 15.5296 106.854 15.4991 106.723 15.4609"></path>
<path fill="#201C1A" d="M69.0841 43.6327C68.6379 44.2972 67.9454 44.6257 67.0067 44.6257C66.0219 44.6257 65.4372 44.3201 65.2602 43.7014C65.1448 43.3195 65.0909 42.1202 65.0909 40.0883C65.0909 38.0564 65.1602 36.9946 65.3064 36.6126C65.4526 36.2307 65.7218 35.9099 66.1219 35.6578C66.522 35.3981 66.9452 35.2758 67.3914 35.2758C68.2378 35.2758 68.8918 35.6501 69.3611 36.3987C69.8304 37.1473 70.0689 38.2091 70.0689 39.5917C70.0689 41.3105 69.7458 42.6625 69.0918 43.6403M67.7992 34.8481C66.5913 34.8481 65.6911 35.2682 65.0909 36.1085V26.8044H64.9986C64.9063 26.8044 64.737 26.8579 64.4985 26.9572C63.6906 27.2933 62.852 27.4614 61.9749 27.4614H61.644C61.4671 27.4614 61.3824 27.5149 61.3824 27.6142C61.3824 27.7287 61.4517 27.9273 61.5825 27.9197C62.1211 27.8891 62.8443 27.9503 62.9289 27.9961C63.0059 28.0419 63.0213 28.3704 63.0674 29.0197C63.1521 30.112 63.1905 31.7085 63.1905 32.6328V44.1063C63.1905 44.5951 63.2521 44.8319 63.3829 44.8319C63.4906 44.8319 63.6599 44.7632 63.883 44.6257C64.1061 44.4882 64.3062 44.4195 64.4754 44.4195C64.6678 44.4195 65.0294 44.5111 65.568 44.7097C66.1065 44.9007 66.622 45 67.1145 45C68.5225 45 69.7304 44.4653 70.7306 43.3882C71.7308 42.3111 72.2309 41.0126 72.2309 39.4848C72.2309 38.0869 71.8232 36.964 71.0153 36.1161C70.2074 35.2682 69.138 34.8481 67.8069 34.8481"></path>
<path fill="#201C1A" d="M8.35563 14.6741L8.74032 14.613C8.74032 14.613 14.7031 24.2684 14.7955 24.4975C14.8801 24.7267 15.1032 24.8336 15.134 24.7114C15.1648 24.5816 16.819 16.2018 16.819 16.2018L20.9199 22.4427C20.9199 22.4427 21.9201 23.8253 22.0047 23.7871C22.0894 23.7489 22.1432 23.5198 22.2048 23.367C22.2663 23.2142 24.4283 12.0005 24.4591 11.9318C24.4976 11.8706 25.367 11.7943 25.5439 11.7561C25.7209 11.7179 25.5439 11.2595 25.4978 11.2519L22.5587 11.7484L22.6279 12.2144C22.6664 12.2679 23.0203 12.2144 23.105 12.1838C23.1896 12.1533 23.9128 11.9852 23.9051 12.0769C23.8974 12.1686 22.351 20.5483 22.3048 20.5712C22.2586 20.6018 17.8423 13.0547 17.6192 12.6956C17.396 12.3443 17.2268 12.4741 17.196 12.5658C17.1575 12.6574 15.5649 20.1587 15.5341 20.2198L11.7794 14.0019C11.7794 14.0019 12.6104 13.8185 12.7797 13.7803L12.6258 13.2533L7.7478 14.2463L7.8786 14.7581C7.8786 14.7581 8.22483 14.697 8.36332 14.6664"></path>
<path fill="#201C1A" d="M49.5107 21.9233C49.5107 21.8698 49.5723 21.4879 49.4953 21.4191C49.4184 21.3504 47.4718 21.4726 47.4487 21.2663C47.441 21.19 47.2564 10.2665 47.2564 10.0679C47.2564 9.95332 47.241 6.6992 47.2333 3.93397V0H47.0948C46.9563 0 46.7178 0.0763877 46.3793 0.221524C45.2175 0.710406 44.0018 0.954846 42.7477 0.954846L42.0476 0.970124C41.9321 0.985402 41.8937 1.03123 41.8937 1.18401C41.8937 1.35206 41.9321 1.52775 42.0937 1.51248C42.8631 1.44373 43.9403 1.51248 44.0557 1.57359C44.1634 1.6347 44.2557 2.26871 44.325 3.20828C44.3788 3.90341 44.4173 4.73604 44.4481 5.56866C44.5096 10.9005 44.6327 20.999 44.6327 21.1059C44.6327 21.2511 44.5558 21.3809 44.5558 21.3809L43.0555 21.4497C43.017 21.4879 43.0709 21.9462 43.1709 21.9615C43.2786 21.9767 46.0638 21.908 46.1484 21.908C46.2331 21.908 49.5261 21.9767 49.5261 21.9309"></path>
<path fill="#201C1A" d="M74.393 11.9012C74.4315 11.9241 77.8937 22.374 78.063 23.0385C78.2323 23.7031 78.4862 23.6114 78.617 23.4281C78.7478 23.2448 85.5723 13.0317 85.6108 13.0317L87.165 13.2303C87.2188 13.2151 87.2573 12.9783 87.3112 12.8255C87.365 12.6651 87.165 12.7262 86.9957 12.6804C86.8264 12.6422 83.7104 12.1838 83.6027 12.222C83.4949 12.2602 83.4642 12.688 83.6027 12.7491C83.7488 12.8179 85.1645 12.9554 85.1645 12.9554L79.9019 20.4948L77.4706 12.2068C77.4706 12.2068 78.9401 12.3366 79.3325 12.3672C79.4402 12.3672 79.4325 12.2373 79.4633 12.0922C79.4864 11.947 79.4941 11.8248 79.3633 11.7866C79.1863 11.7332 73.0081 11.1068 72.9311 11.1297C72.8542 11.1602 72.8542 11.6568 72.9157 11.6797L74.393 11.8859"></path>
<path fill="#201C1A" d="M28.7677 12.7644C29.214 11.672 29.9603 11.0533 31.0144 10.9005C32.1223 10.7401 32.9763 11.0151 33.5611 11.7332C34.3612 12.7033 34.8998 14.147 35.1845 16.072C35.4769 18.0581 35.3153 19.6928 34.6998 20.9608C34.3766 21.633 33.7842 22.0302 32.9148 22.1601C31.7838 22.3281 30.8297 21.9615 30.0526 21.0677C29.2755 20.174 28.76 18.8449 28.4984 17.0803C28.2368 15.3005 28.3215 13.8644 28.7677 12.772M28.283 21.4497C29.5987 22.4274 31.1144 22.7865 32.8301 22.5344C34.4843 22.2899 35.7846 21.5184 36.7233 20.2122C37.662 18.906 38.0082 17.4088 37.7543 15.713C37.5004 13.9866 36.7156 12.6269 35.3999 11.6262C34.092 10.6332 32.5839 10.2589 30.8913 10.5033C29.214 10.7478 27.906 11.5269 26.9596 12.8484C26.0133 14.1623 25.6671 15.6977 25.921 17.4393C26.1749 19.1351 26.9596 20.4643 28.2753 21.442"></path>
<path fill="#201C1A" d="M13.703 33.3585C9.63285 32.0523 7.62472 23.0003 5.41655 15.3005L6.85532 15.0025L6.72453 14.4984L5.32422 14.7657L4.5856 11.6415L4.44711 11.5957C4.35478 11.8477 3.90084 13.4595 3.00065 14.2845C1.87733 15.3157 0.246206 15.5296 0.0461628 15.5831C-0.0923286 15.6213 0.0615507 16.1484 0.123102 16.1484L2.83138 15.7282C4.0778 20.0594 5.76278 25.017 6.87071 27.8204C8.87884 32.8773 11.9103 33.5037 13.5799 33.6793C13.7568 33.6946 13.9184 33.4425 13.6876 33.3662"></path>
<path fill="#201C1A" d="M18.4271 42.8917C18.4271 43.1438 17.2961 44.2514 16.2958 44.3125C14.0569 44.4576 13.5953 38.973 18.3501 38.9272C18.3501 38.9272 18.4348 42.4028 18.4271 42.8917ZM22.2894 42.1966C22.2433 43.2354 21.5277 43.709 21.0892 43.7167C20.6583 43.7167 20.4506 43.0674 20.4198 42.6778C20.3967 42.3952 20.3506 34.871 20.289 34.9627C20.1505 35.1613 18.3194 35.4133 18.3347 35.2988L18.3501 38.5147C18.3501 38.5147 18.0962 38.5376 17.7115 38.5758C13.8107 38.9654 12.6412 41.2264 12.6027 42.5709C12.5489 44.2896 14.0338 45 16.0342 44.9694C17.4499 44.9465 18.3963 43.5028 18.4732 43.4188C18.5502 43.3347 18.604 43.3959 18.6271 43.5639C18.7579 44.7326 19.635 45.0917 20.5506 44.9236C22.5433 44.5569 22.7819 42.1584 22.7819 42.0591C22.7819 41.9598 22.3125 41.6542 22.2894 42.1889"></path>
<path fill="#201C1A" d="M53.927 42.8841C53.927 43.1361 52.8191 44.2667 51.8189 44.3278C49.5799 44.4729 49.0952 39.6529 53.8501 39.5994C53.8501 39.5994 53.9347 42.3952 53.927 42.8841ZM57.7894 42.2271C57.7432 43.266 57.0277 43.7396 56.5891 43.7472C56.1583 43.7472 55.9505 43.0979 55.9197 42.7084C55.889 42.3188 55.8505 37.9876 55.8274 37.1473C55.7659 35.1689 54.6502 34.1606 52.5498 34.3745C50.4493 34.5884 48.8567 35.9251 48.8875 36.8342C48.9182 37.7432 49.8415 37.9418 50.1262 37.8807C50.4109 37.8196 51.011 37.6439 51.0418 36.7883C51.0648 35.9328 50.457 36.0168 50.3801 35.9022C50.3493 35.8487 50.4186 35.4974 50.5801 35.3446C50.8186 35.1154 51.4188 34.7946 52.3344 34.7335C53.2499 34.6724 53.7654 35.2835 53.8193 35.8564C53.8501 36.1772 53.8578 39.2022 53.8578 39.2022C53.8578 39.2022 53.6039 39.2174 53.2192 39.2556C49.3183 39.6452 48.1488 41.2188 48.1104 42.5632C48.0565 44.282 49.5414 44.9924 51.5419 44.9618C52.9576 44.9389 53.9039 43.4952 53.9809 43.4111C54.0578 43.3271 54.1117 43.3882 54.1347 43.5563C54.2655 44.725 55.1427 45.1222 56.0582 44.9542C58.051 44.5875 58.2818 42.2348 58.2895 42.0896C58.2972 41.9598 57.8278 41.7382 57.7971 42.2195"></path>
<path fill="#201C1A" d="M52.9883 14.5671C53.0576 11.8859 54.2886 9.89985 55.8582 9.87693C57.3893 9.86165 58.3664 12.0081 58.3279 14.5977L52.9883 14.5671ZM55.889 9.47208C54.2809 9.47208 52.9345 10.0679 51.8496 11.2825C50.7648 12.497 50.2262 14.0171 50.2185 15.8428C50.2185 17.5921 50.7725 19.0664 51.8958 20.258C53.0191 21.4497 54.4271 22.0531 56.1121 22.0608C57.4585 22.0608 58.5357 21.6712 59.3436 20.8768C59.6436 20.5865 59.9437 20.2122 60.2361 19.7462C60.5284 19.2803 60.6746 18.9594 60.6746 18.7761C60.6746 18.6462 60.5977 18.5851 60.4515 18.5851C60.3207 18.5851 60.2207 18.6539 60.1437 18.799C59.6128 19.7233 59.1281 20.3497 58.6742 20.6782C58.2279 21.0066 57.6201 21.1594 56.8738 21.1594C52.3574 21.1594 52.9806 15.5449 52.9883 15.1171C52.9883 14.9873 58.3203 15.0637 58.3203 15.0637C59.3128 15.0866 60.59 15.0331 60.69 14.9796C60.7054 14.5137 60.79 9.47208 55.8813 9.47208"></path>
<path fill="#201C1A" d="M92.4123 13.2915C93.9357 13.4977 94.5743 15.7664 94.1588 18.3178L88.8807 17.5157C89.3424 14.8727 90.8581 13.0852 92.4046 13.2915M95.6745 22.5649C95.5437 22.542 95.4283 22.6031 95.336 22.733C94.6743 23.5732 94.0972 24.1232 93.6048 24.383C93.1124 24.6427 92.4969 24.7038 91.7506 24.5968C87.2804 23.9399 88.7192 18.4782 88.7961 18.0504C88.8192 17.9206 94.0818 18.7761 94.0818 18.7761C95.059 18.9442 96.3285 19.074 96.4439 19.0358C96.5285 18.5775 97.3518 13.597 92.4969 12.8866C90.9042 12.6498 89.4885 13.047 88.2344 14.0935C86.988 15.14 86.2186 16.5685 85.9493 18.3712C85.6877 20.1052 86.0186 21.6406 86.9572 22.9851C87.8959 24.3295 89.1962 25.1239 90.8658 25.3836C92.1968 25.5899 93.3201 25.3531 94.2434 24.6809C94.582 24.4364 94.9359 24.108 95.2898 23.6878C95.6437 23.2753 95.8438 22.9774 95.8668 22.7941C95.8899 22.6719 95.8207 22.5955 95.6745 22.5726"></path>
<path fill="#201C1A" d="M68.5071 20.3039C68.4763 20.5941 67.0529 21.8011 65.8834 21.7552C63.2598 21.6636 63.2675 15.9879 68.7994 16.4768C68.7994 16.4768 68.5763 19.7386 68.5071 20.3039ZM73.0696 20.1052C72.9003 21.3122 72.0078 21.7781 71.5 21.7399C70.9922 21.7017 70.8384 20.915 70.846 20.4566C70.846 19.9983 71.3154 14.9567 71.3846 13.979C71.5462 11.6644 70.3613 10.3735 67.8916 10.3811C65.4295 10.3887 63.4137 11.7637 63.3444 12.8179C63.2752 13.8796 64.3216 14.2158 64.6601 14.1776C64.9986 14.1394 65.7219 14.0095 65.845 13.0088C65.9758 12.0158 65.2525 12.0463 65.1756 11.9012C65.1448 11.8401 65.2679 11.4276 65.468 11.2748C65.768 11.0304 66.5066 10.7325 67.5761 10.763C68.6533 10.7936 69.2457 11.5727 69.1688 12.2373C69.1534 12.3901 68.8379 15.9956 68.8379 15.9956C68.8379 15.9956 68.5379 15.9956 68.0839 15.9956C63.506 15.9956 61.9595 17.7067 61.7518 19.265C61.4902 21.2587 63.129 22.2517 65.468 22.4503C67.1145 22.5878 68.384 21.0143 68.484 20.9226C68.584 20.8386 68.6456 20.9073 68.6456 21.1136C68.661 22.4885 69.6227 23.176 70.7076 23.0844C73.0696 22.8858 73.6236 20.2351 73.6313 20.0823C73.6466 19.8379 73.1312 19.4865 73.0465 20.1052"></path>
<path fill="#201C1A" d="M17.2268 33.3891C17.2884 33.3891 17.4269 33.3662 17.9577 33.4655C17.9577 33.4655 18.5271 33.5113 19.1195 33.2287C19.2734 33.1599 18.9964 32.8849 17.4576 33.03C15.3572 33.2363 13.7645 34.5807 13.7953 35.4897C13.8261 36.3987 14.7494 36.5974 15.034 36.5362C15.3187 36.4751 15.9188 36.3071 15.9496 35.4439C15.9727 34.5807 15.3649 34.6724 15.2879 34.5578C15.2572 34.5043 15.3264 34.1529 15.488 34.0002C15.7265 33.771 16.3266 33.4349 17.2422 33.3891"></path>
<path fill="#201C1A" d="M41.3243 39.8591V38.2626C41.3243 38.3925 41.3243 38.5147 41.3243 38.6522C41.3243 39.0876 41.3243 39.4848 41.3243 39.8591ZM41.3243 40.0119C41.3089 41.7917 41.2473 42.8382 41.1473 43.1514C41.0242 43.541 40.7703 43.8695 40.3702 44.1445C39.9701 44.4195 39.5239 44.557 39.0238 44.557C38.6237 44.557 38.2313 44.4271 37.862 44.1674C37.485 43.9077 37.2003 43.5792 37.008 43.1743C36.5617 42.2271 36.3386 41.0813 36.3386 39.7445C36.3386 38.4077 36.5925 37.2314 37.108 36.3987C37.6235 35.5661 38.3082 35.1536 39.17 35.1536C39.8393 35.1536 40.3933 35.4057 40.8242 35.9099C41.1242 36.2689 41.2935 37.048 41.3243 38.232V40.0119ZM43.694 44.4882C43.6094 44.4882 43.5171 44.3889 43.4555 44.2743C43.394 43.8313 43.3247 41.5931 43.3247 38.255V27.4614C43.3247 27.2017 43.2785 27.0412 43.2016 26.9725L43.0939 26.9267C42.9862 26.919 42.84 26.9496 42.763 26.9725C42.6707 27.0107 41.8705 27.3544 41.0473 27.6447C40.2856 27.9121 39.2777 28.0725 39.2084 28.103C39.0699 28.1641 39.17 28.5919 39.3161 28.569C39.3854 28.5614 39.8316 28.5079 40.2317 28.5079C40.4318 28.5079 40.6934 28.4773 41.1319 28.5919C41.2243 28.6148 41.2858 28.7294 41.3166 29.0426C41.3397 29.4245 41.3474 31.2044 41.3474 32.3273V35.2835C41.3474 35.505 41.3474 35.6807 41.3474 35.7953C40.8011 35.0696 39.9855 34.7106 38.9007 34.7106C37.4927 34.7106 36.354 35.1918 35.4769 36.1467C34.6074 37.1015 34.1689 38.3466 34.1689 39.882C34.1689 41.4174 34.6074 42.6014 35.4769 43.5639C36.3463 44.5264 37.4542 45.0076 38.8007 45.0076C39.747 45.0076 40.5626 44.6868 41.2473 44.0528L41.2243 44.6486C41.2243 44.7938 41.3935 44.9312 41.532 44.9847L41.6397 45.0076C41.7782 45.0076 43.3632 44.9771 43.4555 44.9771C43.5478 44.9771 44.5865 44.916 44.7404 44.8931C44.8943 44.8701 44.7558 44.534 44.7096 44.4653C44.6481 44.3736 43.8248 44.4958 43.7171 44.5035"></path>
<path fill="#201C1A" d="M91.889 39.8515V38.255C91.889 38.3848 91.889 38.507 91.889 38.6445C91.889 39.08 91.889 39.4772 91.889 39.8515ZM91.889 40.0119C91.8736 41.7917 91.8121 42.8382 91.7121 43.1514C91.589 43.541 91.3351 43.8695 90.935 44.1445C90.5349 44.4195 90.0886 44.557 89.5885 44.557C89.1885 44.557 88.7961 44.4271 88.4267 44.1674C88.0497 43.9077 87.7651 43.5792 87.5727 43.1743C87.1265 42.2271 86.9033 41.0813 86.9033 39.7445C86.9033 38.4077 87.1572 37.2314 87.6727 36.3987C88.1882 35.5661 88.873 35.1536 89.7347 35.1536C90.4118 35.1536 90.9581 35.4057 91.3889 35.9099C91.689 36.2689 91.8583 37.048 91.889 38.232V40.0119ZM94.2357 44.45C94.1511 44.45 94.0587 44.3507 93.9972 44.2361C93.9356 43.7931 93.8895 41.5931 93.8895 38.2473V27.4537C93.8895 27.194 93.8433 27.0336 93.7664 26.9649L93.6586 26.919C93.5509 26.9114 93.4047 26.9419 93.3278 26.9649C93.2355 27.0031 92.4353 27.3468 91.6121 27.6371C90.8503 27.9044 89.8424 28.0648 89.7732 28.0954C89.6347 28.1641 89.7347 28.5843 89.8809 28.5614C89.9502 28.5461 90.3964 28.4926 90.7965 28.5003C90.9965 28.5003 91.2581 28.4697 91.6967 28.5843C91.789 28.6072 91.8506 28.7218 91.8813 29.035C91.9044 29.4169 91.9121 31.1967 91.9121 32.3196V35.2758C91.9121 35.4974 91.9121 35.6731 91.9121 35.7876C91.3658 35.062 90.5503 34.7029 89.4654 34.7029C88.0574 34.7029 86.9187 35.1765 86.0416 36.139C85.1722 37.0939 84.7336 38.339 84.7336 39.8744C84.7336 41.4098 85.1722 42.5938 86.0416 43.5563C86.911 44.5188 88.019 45 89.3654 45C90.3118 45 91.1273 44.6792 91.8121 44.0452V44.5493C91.8121 44.6944 91.9506 44.8854 92.0968 44.9389L92.166 44.9542H92.2507C92.3891 44.9694 93.9279 44.9389 94.028 44.9312C94.128 44.9312 95.1744 44.8854 95.3282 44.8625C95.4821 44.8396 95.3436 44.5875 95.2975 44.5188C95.2359 44.4271 94.3742 44.45 94.2588 44.4576"></path>
<path fill="#201C1A" d="M32.5224 44.3889C32.4685 44.3431 32.407 44.1521 32.407 43.6709V38.2091C32.407 36.9411 32.2608 36.0856 31.9684 35.6272C31.4452 34.8252 30.6066 34.4279 29.4371 34.4279C28.106 34.4279 27.0135 34.9321 26.1749 35.9404V34.8557C26.1749 34.5731 26.121 34.4279 26.0056 34.4279C25.921 34.4279 25.8132 34.4891 25.6671 34.6113C25.4362 34.8099 25.0438 34.9779 24.4745 35.1307C23.9051 35.2835 23.382 35.3675 22.8895 35.3828H22.828C22.7126 35.4057 22.7587 35.7647 22.828 35.7724H22.9896H23.5743C23.9513 35.7724 24.1513 35.864 24.1821 36.0397C24.2129 36.2231 24.2283 37.1703 24.2283 38.8813V44.1063L24.159 44.4424C24.136 44.4958 23.8513 44.5417 23.7666 44.5646L23.5358 44.5799C23.4743 44.6028 23.4743 44.9083 23.5589 44.916C23.6435 44.916 25.1977 44.916 25.3747 44.916H26.8673C26.9904 44.916 26.9673 44.5722 26.8673 44.5722C26.5673 44.5493 26.2518 44.45 26.2518 44.282V36.9335C26.2518 36.5897 26.3364 36.3147 26.498 36.1237C27.052 35.4592 27.729 35.1307 28.5446 35.1307C29.3602 35.1307 29.9218 35.4668 30.1988 36.1467C30.3296 36.4599 30.3912 37.4376 30.3912 39.08V43.7167C30.3912 44.1368 30.3758 44.3813 30.3219 44.4424C30.245 44.5264 30.1988 44.5264 30.0526 44.5493L29.7372 44.6104C29.7295 44.7479 29.7141 44.8243 29.7756 44.9313H30.1603C30.6451 44.9313 31.1144 44.916 31.953 44.916C32.407 44.916 33.0071 44.916 33.3149 44.9007C33.3764 44.8396 33.3841 44.5188 33.2918 44.4424C32.984 44.4347 32.6378 44.4882 32.5224 44.3889Z"></path>
<path fill="#201C1A" d="M83.9873 44.0681C83.7642 44.0681 83.5718 44.0757 83.3641 44.0299C83.1564 43.984 83.0256 43.8083 82.9717 43.5104C82.9179 43.2125 82.8948 42.1813 82.8948 41.0355V34.405C82.8948 34.3363 82.8717 34.2904 82.5716 34.3745C82.1715 34.489 81.5637 34.6571 80.425 34.9015C80.2096 34.9474 79.4171 34.9932 79.3786 35.0772C79.3402 35.1613 79.3402 35.4668 79.4402 35.4897C79.5171 35.5126 80.5866 35.3751 80.702 35.4897C80.702 35.5585 80.702 35.6425 80.7174 35.7342V35.7953C80.7174 35.9633 80.7328 36.2001 80.7482 36.4828C80.7635 36.773 80.7712 37.048 80.7712 37.2237V40.8903C80.7712 41.998 80.6174 42.8 80.3096 43.3042C79.8787 43.9993 79.2171 44.3431 78.3092 44.3431C77.4705 44.3431 76.9166 44.0375 76.6473 43.4188C76.478 43.0216 76.3934 42.2195 76.3934 41.0049V34.405V34.3974C76.3549 34.3974 76.2318 34.4279 76.1472 34.4509C75.7471 34.5654 75.1393 34.787 74.0006 35.0314C73.7851 35.0772 72.9926 35.1231 72.9542 35.2071C72.9157 35.2911 72.9157 35.5967 73.0157 35.6196C73.0696 35.6349 73.6851 35.5738 74.1006 35.589C74.1929 35.6119 74.2698 35.6578 74.2775 35.7189C74.2775 35.7342 74.2775 35.7953 74.2852 35.8946V41.3028C74.2852 42.3417 74.3083 42.9834 74.3468 43.2125C74.3852 43.4493 74.5237 43.709 74.7392 43.9917C75.2778 44.6715 76.1779 45.0076 77.4321 45.0076C78.8401 45.0076 79.9326 44.4958 80.7097 43.4875V44.7403C80.7097 44.8701 80.7635 44.9312 80.8636 44.9312L81.0405 44.8854C82.1023 44.5111 82.5101 44.5951 83.8411 44.5951C84.3028 44.5951 84.2258 44.3813 84.2258 44.2743C84.2258 44.1674 84.2028 44.0681 84.0027 44.0681"></path>
</g>
<defs>
<clipPath id="clip0_6052_137769">
<rect fill="white" height="45" width="107"></rect>
</clipPath>
</defs>
</svg>
